<mxfile host="app.diagrams.net" agent="Mozilla/5.0 (Windows NT 10.0; Win64; x64) AppleWebKit/537.36 (KHTML, like Gecko) Chrome/138.0.0.0 Safari/537.36" version="28.0.6">
  <diagram id="KQ6JpjM10NWKzPMiLjF_" name="Page-1">
    <mxGraphModel dx="3752" dy="2679" grid="1" gridSize="75" guides="1" tooltips="1" connect="1" arrows="1" fold="1" page="1" pageScale="1" pageWidth="900" pageHeight="1125" background="#ffffff" math="0" shadow="0">
      <root>
        <mxCell id="0" />
        <mxCell id="1" parent="0" />
        <mxCell id="68f9c82d-27ec-4a54-8c3e-36d8ff1f1a58" value="" style="html=1;shape=stencil(7VRBcsMgDHwNVwZQbOCcpv+gDomZUuPBbtL8PhA5Nmmnbk89lYsl7S4S7GAC26E1vSWCnQk8ESEAJK3YsniqJbSdUFlhbobeNiMWTyY68+ItIsMYw6s9u/04aVzX2ujGjMKOwPYQoj3G8N7tMUdBE3yISY7fm5AIsLWVVt3i55KN26ehlzZ57pLYm4zk6C2c8gE/kMdwzEuZTRLvuoIoak61UEJpzhJR8M2jklaSS86UllJLBZp/vxXMw93VsvqB/dWCy30sQTe6WCsnYDUVj31hrTFbozY+DHbOUrBcMHoyYwfn/W/t/Hfpz1zKtpTI53eYSvgvgN0V);" parent="1" vertex="1">
          <mxGeometry x="-468.17828910220214" y="693.1782891022021" width="337.5000000000001" height="375" as="geometry" />
        </mxCell>
        <mxCell id="6347896b-e35f-4875-b68e-011be64691f4" value="" style="html=1;shape=stencil(7ZTLbsMgEEW/hmUsHubhdZr8B3FIjUqNhd2k+ftCxompK8VW15EsMcydwzDWFYht+0Z3BlF8QewNUVoRVUgeg5hqIEUoxpDQfWfqAbJnHaw+OANKPwT/YS72OIyQbRsT7JBUtkNse/LBvAf/1R5hD0DtnQ8Rh/UGIsqMMNKoW7zPq+H4eNWpDZMFzws7nZQUffpzGusb6sYBrrDjoqC/MGfbrHiS78BmgZDqfo+1hBJ0Rkw/fiUg5sMvdiAle9pj83fy/zB8AcksNhKleD48LrgkkmBVSRk/OWtYElJUVFFVERyLKclPqp3vzWMXg8kjYKuHdrLOrXXky2gvo603WnJWrsxfw5iCd5jtfgA=);" parent="1" vertex="1">
          <mxGeometry x="37.5" y="-18.75" width="918.75" height="1200" as="geometry" />
        </mxCell>
        <mxCell id="3f681289-10b7-4bcc-b627-eea226b30892" value="" style="html=1;shape=stencil(7VPBbsMgDP0apO2wiNgD0nPW/QdNaYPGQkSydvv7QdylpJuy027jgv38nm1swbAeWt0bBvzM8IkBlLIqlIhGhFqCvlw99KYZCTvpYPXOGYoMY/Av5mz340Viu9YEO6YobhnWBx/MMfi3bk8+CRrvfIhyuidhOO70HWdQR/jmup9qPecJqGLs/VoZVSFyYq9TJFmv/pTe+U48Tp1/5N5F4myXEaeBPG7mU8mFsiwQAaSSsBGCl5WqzEOJv6QTixRCFiBWFGLZq1rjfku+xubrbTTOD2b2onGdJY1/jh2scz8skwHy6fwv5K8XkjaQR24/XIToo+P2Ew==);" parent="1" vertex="1">
          <mxGeometry x="-468.75" y="1106.25" width="168.75" height="75" as="geometry" />
        </mxCell>
        <mxCell id="275bf23e-fc14-4d15-b63a-8ac8f72ec437" value="" style="html=1;shape=stencil(7VPdDoIgFH4atrpxCPPn3uo9UFFZJA5N6+0Djyk519bqMm44fD8ez8dANGkr1nBE8IDoARHih7EXBaYwUAUQwaFHJoi1Dc86wHumBUslB6bttDrzQeTdZBN1xbXoLEuPiCaF0rzU6lrncAZDpqTSxg77aNRlynYYkcTAq20/9jq5H4CO5v+XzjTyAlfYMMvY6qJ6O+ttmnUZ9Q4Idm1S1K44/FLtxLht+diBX9R+vBr7vfjZbBJnUrV8PpliCQ1ynrlCSLlxa4jQYlz/5H+WvI3aZdZPyEDwfOnxAQ==);" parent="1" vertex="1">
          <mxGeometry x="562.5" y="506.25" width="168.75" height="206.25" as="geometry" />
        </mxCell>
        <mxCell id="62e021f9-2e35-47f8-b1a8-575559312926" value="" style="html=1;shape=stencil(7VTBcsIgEP0aZuyhmQVEknPU/8BIDFMaMiRq+/eFrGOIts7UY6dcgH373sI+BsLLvlGdJgzOhK8JYwxWWc6opJAXUhayCLGANoguBWRC3qGq73Q1YMpJeaN2ViPSD9696bPZDxcF0zbamyGifEN4WTuvD94d2z3ukVA563yg4zwS/WGnFkBYGcI308tYa5sKYMVwq6kyl5lIEzsVkbh6d6fYgQ/MAzz558SCZKyWqYY1bcqc9waEnEm9UsozSDLyB1o8n6UW9HmpHyx9VoqJeYPuOvSgQb9gVtb1+roLi8kvtPiK1cbabx4MYbwex7/pf8H06HKK3H4cIYRfGd98AQ==);" parent="1" vertex="1">
          <mxGeometry x="75" y="131.25" width="206.8217108977979" height="450.5717108977979" as="geometry" />
        </mxCell>
        <mxCell id="acaacd5f-c086-4e49-ad0a-b6063caf50c7" value="" style="html=1;shape=stencil(7VPdDoIgFH4atrpxBCnem70HGSqLxKFpvX3QMWXOuVa3XXHO98M5fg5Ek6bktUAE94geECEERwEJbWGhEiA2tLypRdYC1nEj+UkJYJrW6Ivo5bkdLLIqhZGtY2mKaJJrIwqjb9UZejBkWmlj7XC+jKY48Q1GJLHw7Ni+Zh39C2Ci3X2aTFkQ+sKaO8ZVV92577yDDsPmD78bLEpWntAP5Ct1OCKLjl383vhtYKvqgH2uxuuLZEo3YuxsMYUF+Y5cLpVa+FuI0D2Jo+yf+O+Ju4h9Zv5kLARPlaZP);" parent="1" vertex="1">
          <mxGeometry x="75" y="468.75" width="206.25" height="75" as="geometry" />
        </mxCell>
        <mxCell id="34344501-9ab1-4181-bd54-f01249348996" value="" style="html=1;shape=stencil(7ZRNDoIwEIVP00Q3BDqiuEa8R4EijZWSgn+3t2WIVGQh7kxk086b+Zgyj5RA3JSs5oT6VwI7Qmnorz0amo2RSpRgC96ml1hT86xF/cK0YKnkmGlarY78KvK2x0RVci1am4WEQFwozQ9anascYwQyJZU2OK4dqA8pW/iExkYeLcuu1959AXY05x86w8YL3cKa2YzdndTFfusN63w8+d2NekSKyil0h/JVNR2kSYSuhhF/iATr6A2JgrmI4+00Mpt4HSq8lmZSNfwZmc1gDbr5zBVCyol/g1Aouufv74/5aw11M+PrwEh4FUHyAA==);" parent="1" vertex="1">
          <mxGeometry x="318.75" y="187.5" width="506.25" height="393.75" as="geometry" />
        </mxCell>
        <mxCell id="25622917-707d-4086-814b-cd6daaed2fe0" value="" style="html=1;shape=stencil(7VPBbsMgDP0apO2wCGwIyTnr/oOmtEFjISJZu/39SB0lWdSp2mWnXQD7vWdjnmBY9Y3pLAN+YfjMALRKSwobCoHnGUwp03e2Hih/NtGZvbeE9EMMr/biDsMkc21joxtGFHcMq2OI9hTDe3ugmAR18CEmOe1XYTztzQNnUKX0Znu89npZF6CO6e5LZ9SZWhM7MyLj6S2cxzk/psGyPJcKFahScI5aafskkMb5JIrIyrKQXEgpERQUopgpU3Hv2lVJtTzVVIH/TNbfmaLItPoFezPlvYusbLyp4HfYtQ+9naN0WJ6VnJixo/P+hq8MUEKR1//e/KU3oxlrZPsNU4q+P+6+AA==);" parent="1" vertex="1">
          <mxGeometry x="825" y="187.5" width="75" height="206.25" as="geometry" />
        </mxCell>
        <mxCell id="46ceafd1-bb4c-47b1-8a1e-3ddd6942339c" value="" style="html=1;shape=stencil(7VPLEoIwDPyazuhBpm2k6BnxPypG6VgpU/D19xaD2mEcD57l0iS7m5CFMsjbSjfIJL8wWDEpBYhEpiEIpYpKwHnC40cRrNsGy444Z+2N3lgkpO28O+DFbLuhhakr9KbrUSgY5Dvnce/dqd5SToLSWeeDnM6H0O83esKZzEN5dEwfs9ZxA5oYdnlPhixJY2Kje6SPju7c730lHqc3v8XZILGmjoixQT+xgX/hq0QpAbAQ8yxL+RKWOBPzsfzT1xi6lda1+MpC8N6XLHphO2PtB8OZBFSY4eJv2tOlGBn/uKFEFwiKOw==);" parent="1" vertex="1">
          <mxGeometry x="337.5" y="243.75" width="131.25" height="300.00000000000006" as="geometry" />
        </mxCell>
        <mxCell id="475854c7-e071-41e0-b0c5-39354e9dfd6f" value="" style="html=1;shape=stencil(7VPBbsMgDP0apO2wiNgD0nPW/QdNaYPGQkSydvv7QdylpJuy027jgv38nm1swbAeWt0bBvzM8IkBlLIqlIhGhFqCvlw99KYZCTvpYPXOGYoMY/Av5mz340Viu9YEO6YobhnWBx/MMfi3bk8+CRrvfIhyuidhOO70HWdQR/jmup9qPecJqGLs/VoZVSFyYq9TJFmv/pTe+U48Tp1/5N5F4myXEaeBPG7mU8mFsiwQAaSSsBGCl5WqzEOJv6QTixRCFiBWFGLZq1rjfku+xubrbTTOD2b2onGdJY1/jh2scz8skwHy6fwv5K8XkjaQR24/XIToo+P2Ew==);" parent="1" vertex="1">
          <mxGeometry x="-18.75" y="862.5" width="168.75" height="75" as="geometry" />
        </mxCell>
        <mxCell id="a207307d-5125-40b7-ba88-5e31b10a54ed" value="" style="html=1;shape=stencil(7VNBDoMgEHwNSXsxCjV6t/YfqKikVAxabX9fcFGJMT3Ya7ksOzvDskNAJOlq2jKE/RGRK8I4CrAX6qiRGpBL6ENOu5blPYADVZxmgkGl65W8s5EXvdXwpmaK96ZKUkSSUipWKflsCshBkEshlZZDnISqyuhJ90s0vAnnqdfNPQA66ruvnUlkr2+JLTUVs3vIwcz5Al4Qe5Gd8w2I78oEbxyyY8oR8uzgLt0/Sg3izajfyfO4lpwL2bEl05vVKPB2qZVciJ2XQpiU0/q7/ZPbxl63sv0qGoIvStIP);" parent="1" vertex="1">
          <mxGeometry x="93.75" y="600" width="712.5" height="450" as="geometry" />
        </mxCell>
        <mxCell id="3b661c9f-7150-4a3d-82e2-3f2abf70e807" value="" style="html=1;shape=stencil(7VTLssIgDP0aZrwLGQpS2nXV/8BKLXO5pUPr6++FRlt01I0LN5cNyUlOEjgDiBVdLVuFKDkitkSUcpJiyr3hoRogevNl16qyB/AgnZYboyDS9c7+qqPe9leObmrldB+ibIVYUVmnds7umy34QCitsc7TYR+IbreRM4Jo4eGH7WfotY4LQEc//NSZCczjxFaGSLD+7CEc9AR5BCY/TywSrXQR1zC6iZmYi0QkJMuFyEVOuLgrNU8ShkmUkb2pNU47sdMMC/6aEQv0AYePyPMzvk8uje3U6HljumUQZoxV2pgnMiPKqmH9S/U9qYI2ceTxkXoIfge2ugA=);" parent="1" vertex="1">
          <mxGeometry x="318.75" y="112.5" width="506.25" height="225" as="geometry" />
        </mxCell>
        <mxCell id="ffaa85e2-4f51-4fbb-a76b-1760619e8ae6" value="mx-central-1" style="rounded=1;arcSize=10;dashed=0;strokeColor=#000000;fillColor=none;gradientColor=none;strokeWidth=2;labelBackgroundColor=none;fontSize=23;fontColor=#000000;verticalAlign=top;" parent="1" vertex="1">
          <mxGeometry x="66" y="-113.25" width="909" height="1463.25" as="geometry" />
        </mxCell>
        <mxCell id="a861ee2a-7a72-4ef2-aec4-b64f2548f49c-d67076ed-b381-484a-9875-a5a3fc4629da" value="" style="startArrow=classic;endArrow=none;dashed=0;strokeColor=#000000;strokeWidth=2;}" parent="1" source="a861ee2a-7a72-4ef2-aec4-b64f2548f49c" target="d67076ed-b381-484a-9875-a5a3fc4629da" edge="1">
          <mxGeometry width="50" height="50" relative="1" as="geometry" />
        </mxCell>
        <mxCell id="2d97ce8f-4521-427d-9c42-7faa94e33578-d49cd891-6811-4966-a4d6-660d9d0a1ad1" value="" style="startArrow=none;endArrow=classic;dashed=0;strokeColor=#000000;strokeWidth=2;}" parent="1" source="2d97ce8f-4521-427d-9c42-7faa94e33578" target="d49cd891-6811-4966-a4d6-660d9d0a1ad1" edge="1">
          <mxGeometry width="50" height="50" relative="1" as="geometry" />
        </mxCell>
        <mxCell id="62f72b6f-405c-41fa-8732-8b9252648df7-2d1f2722-4ed1-433f-9df8-76c46d87b174" value="" style="startArrow=none;endArrow=none;dashed=0;strokeColor=#000000;strokeWidth=2;}" parent="1" source="62f72b6f-405c-41fa-8732-8b9252648df7" target="2d1f2722-4ed1-433f-9df8-76c46d87b174" edge="1">
          <mxGeometry width="50" height="50" relative="1" as="geometry" />
        </mxCell>
        <mxCell id="f3fb7dd2-bbcd-4eb1-a827-b5738c59164f-72fc5a03-4637-4212-af03-08a143177f9e" value="" style="startArrow=none;endArrow=none;dashed=0;strokeColor=#000000;strokeWidth=2;}" parent="1" source="f3fb7dd2-bbcd-4eb1-a827-b5738c59164f" target="72fc5a03-4637-4212-af03-08a143177f9e" edge="1">
          <mxGeometry width="50" height="50" relative="1" as="geometry" />
        </mxCell>
        <mxCell id="f829fc9c-20a4-4cf5-b1c6-e187cec0c66c-9203edbf-c225-49a4-b1a3-e9498b36554c" value="" style="startArrow=none;endArrow=classic;dashed=0;strokeColor=#000000;strokeWidth=2;}" parent="1" source="f829fc9c-20a4-4cf5-b1c6-e187cec0c66c" target="9203edbf-c225-49a4-b1a3-e9498b36554c" edge="1">
          <mxGeometry width="50" height="50" relative="1" as="geometry" />
        </mxCell>
        <mxCell id="a972ec16-d6a3-4dab-ba44-97128442b79d-0591a96b-9509-4459-a71c-cad703c39088" value="" style="startArrow=none;endArrow=none;dashed=0;strokeColor=#000000;strokeWidth=2;}" parent="1" source="a972ec16-d6a3-4dab-ba44-97128442b79d" target="0591a96b-9509-4459-a71c-cad703c39088" edge="1">
          <mxGeometry width="50" height="50" relative="1" as="geometry" />
        </mxCell>
        <mxCell id="3e924eef-a7ad-4160-9776-5583db7a7eab-23bd8eb1-45c5-4100-b3f3-3215c5174400" value="" style="startArrow=none;endArrow=classic;dashed=0;strokeColor=#000000;strokeWidth=2;}" parent="1" source="3e924eef-a7ad-4160-9776-5583db7a7eab" target="23bd8eb1-45c5-4100-b3f3-3215c5174400" edge="1">
          <mxGeometry width="50" height="50" relative="1" as="geometry" />
        </mxCell>
        <mxCell id="26dc95b1-ff76-4196-b645-839524faa067-f541aab8-339d-45d1-86a5-a208281319b4" value="" style="startArrow=none;endArrow=classic;dashed=0;strokeColor=#000000;strokeWidth=2;}" parent="1" source="26dc95b1-ff76-4196-b645-839524faa067" target="f541aab8-339d-45d1-86a5-a208281319b4" edge="1">
          <mxGeometry width="50" height="50" relative="1" as="geometry" />
        </mxCell>
        <mxCell id="5ae73d4c-da2a-488a-baf1-a9c5b0949603-11ab225d-230f-4a67-854c-6bff276ff6b4" value="" style="startArrow=classic;endArrow=none;dashed=0;strokeColor=#000000;strokeWidth=2;}" parent="1" source="5ae73d4c-da2a-488a-baf1-a9c5b0949603" target="11ab225d-230f-4a67-854c-6bff276ff6b4" edge="1">
          <mxGeometry width="50" height="50" relative="1" as="geometry" />
        </mxCell>
        <mxCell id="2bc31535-875b-461f-a174-0e80da691cba-ac4f691c-874e-4941-aa38-abff03578730" value="" style="startArrow=none;endArrow=none;dashed=0;strokeColor=#000000;strokeWidth=2;}" parent="1" source="2bc31535-875b-461f-a174-0e80da691cba" target="ac4f691c-874e-4941-aa38-abff03578730" edge="1">
          <mxGeometry width="50" height="50" relative="1" as="geometry" />
        </mxCell>
        <mxCell id="5f835ef7-7a98-4629-aeac-bce1dca9d24b-7fa5aea5-7fec-4838-b9ab-a5826f4ba432" value="" style="startArrow=none;endArrow=classic;dashed=0;strokeColor=#000000;strokeWidth=2;}" parent="1" source="5f835ef7-7a98-4629-aeac-bce1dca9d24b" target="7fa5aea5-7fec-4838-b9ab-a5826f4ba432" edge="1">
          <mxGeometry width="50" height="50" relative="1" as="geometry" />
        </mxCell>
        <mxCell id="3e924eef-a7ad-4160-9776-5583db7a7eab-c9d0b30c-b976-4f5a-aae1-13705d3dc6b9" value="" style="startArrow=none;endArrow=classic;dashed=0;strokeColor=#000000;strokeWidth=2;}" parent="1" source="3e924eef-a7ad-4160-9776-5583db7a7eab" target="c9d0b30c-b976-4f5a-aae1-13705d3dc6b9" edge="1">
          <mxGeometry width="50" height="50" relative="1" as="geometry" />
        </mxCell>
        <mxCell id="c9d0b30c-b976-4f5a-aae1-13705d3dc6b9-2d97ce8f-4521-427d-9c42-7faa94e33578" value="" style="startArrow=none;endArrow=classic;dashed=0;strokeColor=#000000;strokeWidth=2;}" parent="1" source="c9d0b30c-b976-4f5a-aae1-13705d3dc6b9" target="2d97ce8f-4521-427d-9c42-7faa94e33578" edge="1">
          <mxGeometry width="50" height="50" relative="1" as="geometry" />
        </mxCell>
        <mxCell id="9203edbf-c225-49a4-b1a3-e9498b36554c-b81e9596-8ef7-4865-bf2b-7b4ae5db9c5a" value="" style="startArrow=none;endArrow=classic;dashed=0;strokeColor=#000000;strokeWidth=2;}" parent="1" source="9203edbf-c225-49a4-b1a3-e9498b36554c" target="b81e9596-8ef7-4865-bf2b-7b4ae5db9c5a" edge="1">
          <mxGeometry width="50" height="50" relative="1" as="geometry" />
        </mxCell>
        <mxCell id="23bd8eb1-45c5-4100-b3f3-3215c5174400-2d97ce8f-4521-427d-9c42-7faa94e33578" value="" style="startArrow=none;endArrow=classic;dashed=0;strokeColor=#000000;strokeWidth=2;}" parent="1" source="23bd8eb1-45c5-4100-b3f3-3215c5174400" target="2d97ce8f-4521-427d-9c42-7faa94e33578" edge="1">
          <mxGeometry width="50" height="50" relative="1" as="geometry" />
        </mxCell>
        <mxCell id="44f2c53a-bc88-4b8b-8b7c-1351a79b7401-e618fb58-d3e3-4c2b-a407-01de074bd185" value="" style="startArrow=none;endArrow=none;dashed=0;strokeColor=#000000;strokeWidth=2;}" parent="1" source="44f2c53a-bc88-4b8b-8b7c-1351a79b7401" target="e618fb58-d3e3-4c2b-a407-01de074bd185" edge="1">
          <mxGeometry width="50" height="50" relative="1" as="geometry" />
        </mxCell>
        <mxCell id="8eef2f81-aee4-4044-885f-f6fe672c5682-5f835ef7-7a98-4629-aeac-bce1dca9d24b" value="" style="startArrow=none;endArrow=classic;dashed=0;strokeColor=#000000;strokeWidth=2;}" parent="1" source="8eef2f81-aee4-4044-885f-f6fe672c5682" target="5f835ef7-7a98-4629-aeac-bce1dca9d24b" edge="1">
          <mxGeometry width="50" height="50" relative="1" as="geometry" />
        </mxCell>
        <mxCell id="d49cd891-6811-4966-a4d6-660d9d0a1ad1-17ef34b0-17ea-479e-a46c-80ab428c0ab6" value="" style="startArrow=none;endArrow=classic;dashed=0;strokeColor=#000000;strokeWidth=2;}" parent="1" source="d49cd891-6811-4966-a4d6-660d9d0a1ad1" target="17ef34b0-17ea-479e-a46c-80ab428c0ab6" edge="1">
          <mxGeometry width="50" height="50" relative="1" as="geometry" />
        </mxCell>
        <mxCell id="f1bb5c6f-cfec-47ae-b5e8-b2ccf5db73e1-5f835ef7-7a98-4629-aeac-bce1dca9d24b" value="" style="startArrow=none;endArrow=classic;dashed=0;strokeColor=#000000;strokeWidth=2;}" parent="1" source="f1bb5c6f-cfec-47ae-b5e8-b2ccf5db73e1" target="5f835ef7-7a98-4629-aeac-bce1dca9d24b" edge="1">
          <mxGeometry width="50" height="50" relative="1" as="geometry" />
        </mxCell>
        <mxCell id="455336bd-613b-48e8-af2e-b76e6e541882-32e9c093-6d01-4d1c-885b-f01ba7e4769a" value="" style="startArrow=none;endArrow=classic;dashed=0;strokeColor=#000000;strokeWidth=2;}" parent="1" source="455336bd-613b-48e8-af2e-b76e6e541882" target="32e9c093-6d01-4d1c-885b-f01ba7e4769a" edge="1">
          <mxGeometry width="50" height="50" relative="1" as="geometry" />
        </mxCell>
        <mxCell id="2d532daa-51af-4f2a-9467-d3f254149677-7fa5aea5-7fec-4838-b9ab-a5826f4ba432" value="" style="startArrow=none;endArrow=classic;dashed=0;strokeColor=#000000;strokeWidth=2;}" parent="1" source="2d532daa-51af-4f2a-9467-d3f254149677" target="7fa5aea5-7fec-4838-b9ab-a5826f4ba432" edge="1">
          <mxGeometry width="50" height="50" relative="1" as="geometry" />
        </mxCell>
        <mxCell id="b81e9596-8ef7-4865-bf2b-7b4ae5db9c5a-f1bb5c6f-cfec-47ae-b5e8-b2ccf5db73e1" value="" style="startArrow=none;endArrow=classic;dashed=0;strokeColor=#000000;strokeWidth=2;}" parent="1" source="b81e9596-8ef7-4865-bf2b-7b4ae5db9c5a" target="f1bb5c6f-cfec-47ae-b5e8-b2ccf5db73e1" edge="1">
          <mxGeometry width="50" height="50" relative="1" as="geometry" />
        </mxCell>
        <mxCell id="59f5624e-3de2-4f82-a2de-18c59ae7ed37-3e924eef-a7ad-4160-9776-5583db7a7eab" value="" style="startArrow=none;endArrow=classic;dashed=0;strokeColor=#000000;strokeWidth=2;}" parent="1" source="59f5624e-3de2-4f82-a2de-18c59ae7ed37" target="3e924eef-a7ad-4160-9776-5583db7a7eab" edge="1">
          <mxGeometry width="50" height="50" relative="1" as="geometry" />
        </mxCell>
        <mxCell id="f541aab8-339d-45d1-86a5-a208281319b4-cd75bcec-23a3-4271-b407-f028cbcda366" value="" style="startArrow=classic;endArrow=classic;dashed=0;strokeColor=#000000;strokeWidth=2;}" parent="1" source="f541aab8-339d-45d1-86a5-a208281319b4" target="cd75bcec-23a3-4271-b407-f028cbcda366" edge="1">
          <mxGeometry width="50" height="50" relative="1" as="geometry" />
        </mxCell>
        <mxCell id="2d4ae9a3-8942-42fc-ac29-ec490fcf4fab-f829fc9c-20a4-4cf5-b1c6-e187cec0c66c" value="" style="startArrow=none;endArrow=classic;dashed=0;strokeColor=#000000;strokeWidth=2;}" parent="1" source="2d4ae9a3-8942-42fc-ac29-ec490fcf4fab" target="f829fc9c-20a4-4cf5-b1c6-e187cec0c66c" edge="1">
          <mxGeometry width="50" height="50" relative="1" as="geometry" />
        </mxCell>
        <mxCell id="a57d741b-181a-4b9d-9f2c-bccb6ec4bae6-553be1d6-d83f-4a6d-8992-bfddaf389fbb" value="" style="startArrow=none;endArrow=none;dashed=0;strokeColor=#000000;strokeWidth=2;}" parent="1" source="a57d741b-181a-4b9d-9f2c-bccb6ec4bae6" target="553be1d6-d83f-4a6d-8992-bfddaf389fbb" edge="1">
          <mxGeometry width="50" height="50" relative="1" as="geometry" />
        </mxCell>
        <mxCell id="17ef34b0-17ea-479e-a46c-80ab428c0ab6-a861ee2a-7a72-4ef2-aec4-b64f2548f49c" value="" style="startArrow=classic;endArrow=classic;dashed=0;strokeColor=#000000;strokeWidth=2;}" parent="1" source="17ef34b0-17ea-479e-a46c-80ab428c0ab6" target="a861ee2a-7a72-4ef2-aec4-b64f2548f49c" edge="1">
          <mxGeometry width="50" height="50" relative="1" as="geometry" />
        </mxCell>
        <mxCell id="0591a96b-9509-4459-a71c-cad703c39088-f28595e9-cd1f-4303-bdfb-e9b12d735a1a" value="" style="startArrow=none;endArrow=none;dashed=0;strokeColor=#000000;strokeWidth=2;}" parent="1" source="0591a96b-9509-4459-a71c-cad703c39088" target="f28595e9-cd1f-4303-bdfb-e9b12d735a1a" edge="1">
          <mxGeometry width="50" height="50" relative="1" as="geometry" />
        </mxCell>
        <mxCell id="0591a96b-9509-4459-a71c-cad703c39088-afe5aa8a-cca2-4fc9-a502-912bada500a7" value="" style="startArrow=none;endArrow=classic;dashed=0;strokeColor=#000000;strokeWidth=2;}" parent="1" source="0591a96b-9509-4459-a71c-cad703c39088" target="afe5aa8a-cca2-4fc9-a502-912bada500a7" edge="1">
          <mxGeometry width="50" height="50" relative="1" as="geometry" />
        </mxCell>
        <mxCell id="de553fe4-096f-4a36-9c27-5464cb401e88-26dc95b1-ff76-4196-b645-839524faa067" value="" style="startArrow=classic;endArrow=none;dashed=0;strokeColor=#000000;strokeWidth=2;}" parent="1" source="de553fe4-096f-4a36-9c27-5464cb401e88" target="26dc95b1-ff76-4196-b645-839524faa067" edge="1">
          <mxGeometry width="50" height="50" relative="1" as="geometry" />
        </mxCell>
        <mxCell id="11ab225d-230f-4a67-854c-6bff276ff6b4-2d532daa-51af-4f2a-9467-d3f254149677" value="" style="startArrow=none;endArrow=none;dashed=0;strokeColor=#000000;strokeWidth=2;}" parent="1" source="11ab225d-230f-4a67-854c-6bff276ff6b4" target="2d532daa-51af-4f2a-9467-d3f254149677" edge="1">
          <mxGeometry width="50" height="50" relative="1" as="geometry" />
        </mxCell>
        <mxCell id="9cae68ce-1762-43fd-ba42-0c33a08b969f-7dec005f-1a57-43d5-bf7b-d89209e9c304" value="" style="startArrow=none;endArrow=classic;dashed=0;strokeColor=#000000;strokeWidth=2;}" parent="1" source="9cae68ce-1762-43fd-ba42-0c33a08b969f" target="7dec005f-1a57-43d5-bf7b-d89209e9c304" edge="1">
          <mxGeometry width="50" height="50" relative="1" as="geometry" />
        </mxCell>
        <mxCell id="28d11116-46ad-452e-9027-891c226ec087-f3fb7dd2-bbcd-4eb1-a827-b5738c59164f" value="" style="startArrow=none;endArrow=none;dashed=0;strokeColor=#000000;strokeWidth=2;}" parent="1" source="28d11116-46ad-452e-9027-891c226ec087" target="f3fb7dd2-bbcd-4eb1-a827-b5738c59164f" edge="1">
          <mxGeometry width="50" height="50" relative="1" as="geometry" />
        </mxCell>
        <mxCell id="7dec005f-1a57-43d5-bf7b-d89209e9c304-f541aab8-339d-45d1-86a5-a208281319b4" value="" style="startArrow=none;endArrow=classic;dashed=0;strokeColor=#000000;strokeWidth=2;}" parent="1" source="7dec005f-1a57-43d5-bf7b-d89209e9c304" target="f541aab8-339d-45d1-86a5-a208281319b4" edge="1">
          <mxGeometry width="50" height="50" relative="1" as="geometry" />
        </mxCell>
        <mxCell id="553be1d6-d83f-4a6d-8992-bfddaf389fbb-2d4ae9a3-8942-42fc-ac29-ec490fcf4fab" value="" style="startArrow=none;endArrow=none;dashed=0;strokeColor=#000000;strokeWidth=2;}" parent="1" source="553be1d6-d83f-4a6d-8992-bfddaf389fbb" target="2d4ae9a3-8942-42fc-ac29-ec490fcf4fab" edge="1">
          <mxGeometry width="50" height="50" relative="1" as="geometry" />
        </mxCell>
        <mxCell id="cc800f1e-e68d-4fc8-a392-222b873e3ad1-553be1d6-d83f-4a6d-8992-bfddaf389fbb" value="" style="startArrow=none;endArrow=none;dashed=0;strokeColor=#000000;strokeWidth=2;}" parent="1" source="cc800f1e-e68d-4fc8-a392-222b873e3ad1" target="553be1d6-d83f-4a6d-8992-bfddaf389fbb" edge="1">
          <mxGeometry width="50" height="50" relative="1" as="geometry" />
        </mxCell>
        <mxCell id="82e5fa73-27a4-494d-80f5-fc52cc6a56b0-5f47d455-26cd-4688-a9fd-9a48d33108af" value="" style="startArrow=none;endArrow=none;dashed=0;strokeColor=#000000;strokeWidth=2;}" parent="1" source="82e5fa73-27a4-494d-80f5-fc52cc6a56b0" target="5f47d455-26cd-4688-a9fd-9a48d33108af" edge="1">
          <mxGeometry width="50" height="50" relative="1" as="geometry" />
        </mxCell>
        <mxCell id="2d1f2722-4ed1-433f-9df8-76c46d87b174-59f5624e-3de2-4f82-a2de-18c59ae7ed37" value="" style="startArrow=none;endArrow=none;dashed=0;strokeColor=#000000;strokeWidth=2;}" parent="1" source="2d1f2722-4ed1-433f-9df8-76c46d87b174" target="59f5624e-3de2-4f82-a2de-18c59ae7ed37" edge="1">
          <mxGeometry width="50" height="50" relative="1" as="geometry" />
        </mxCell>
        <mxCell id="2d4ae9a3-8942-42fc-ac29-ec490fcf4fab-8eef2f81-aee4-4044-885f-f6fe672c5682" value="" style="startArrow=none;endArrow=classic;dashed=0;strokeColor=#000000;strokeWidth=2;}" parent="1" source="2d4ae9a3-8942-42fc-ac29-ec490fcf4fab" target="8eef2f81-aee4-4044-885f-f6fe672c5682" edge="1">
          <mxGeometry width="50" height="50" relative="1" as="geometry" />
        </mxCell>
        <mxCell id="afe5aa8a-cca2-4fc9-a502-912bada500a7-0d48b839-14fb-4a5a-9386-56fa81948ff0" value="" style="startArrow=classic;endArrow=classic;dashed=0;strokeColor=#000000;strokeWidth=2;}" parent="1" source="afe5aa8a-cca2-4fc9-a502-912bada500a7" target="0d48b839-14fb-4a5a-9386-56fa81948ff0" edge="1">
          <mxGeometry width="50" height="50" relative="1" as="geometry" />
        </mxCell>
        <mxCell id="522c3df1-aed9-48dc-8969-1136ff1f4f07-036f4e72-e0fd-46b0-8455-ed706efbbf61" value="" style="startArrow=classic;endArrow=none;dashed=0;strokeColor=#000000;strokeWidth=2;}" parent="1" source="522c3df1-aed9-48dc-8969-1136ff1f4f07" target="036f4e72-e0fd-46b0-8455-ed706efbbf61" edge="1">
          <mxGeometry width="50" height="50" relative="1" as="geometry" />
        </mxCell>
        <mxCell id="ac4f691c-874e-4941-aa38-abff03578730-a57d741b-181a-4b9d-9f2c-bccb6ec4bae6" value="" style="startArrow=none;endArrow=none;dashed=0;strokeColor=#000000;strokeWidth=2;}" parent="1" source="ac4f691c-874e-4941-aa38-abff03578730" target="a57d741b-181a-4b9d-9f2c-bccb6ec4bae6" edge="1">
          <mxGeometry width="50" height="50" relative="1" as="geometry" />
        </mxCell>
        <mxCell id="d67076ed-b381-484a-9875-a5a3fc4629da-44f2c53a-bc88-4b8b-8b7c-1351a79b7401" value="" style="startArrow=none;endArrow=none;dashed=0;strokeColor=#000000;strokeWidth=2;}" parent="1" source="d67076ed-b381-484a-9875-a5a3fc4629da" target="44f2c53a-bc88-4b8b-8b7c-1351a79b7401" edge="1">
          <mxGeometry width="50" height="50" relative="1" as="geometry" />
        </mxCell>
        <mxCell id="e618fb58-d3e3-4c2b-a407-01de074bd185-036f4e72-e0fd-46b0-8455-ed706efbbf61" value="" style="startArrow=none;endArrow=none;dashed=0;strokeColor=#000000;strokeWidth=2;}" parent="1" source="e618fb58-d3e3-4c2b-a407-01de074bd185" target="036f4e72-e0fd-46b0-8455-ed706efbbf61" edge="1">
          <mxGeometry width="50" height="50" relative="1" as="geometry" />
        </mxCell>
        <mxCell id="7fa5aea5-7fec-4838-b9ab-a5826f4ba432-17ef34b0-17ea-479e-a46c-80ab428c0ab6" value="" style="startArrow=classic;endArrow=classic;dashed=0;strokeColor=#000000;strokeWidth=2;}" parent="1" source="7fa5aea5-7fec-4838-b9ab-a5826f4ba432" target="17ef34b0-17ea-479e-a46c-80ab428c0ab6" edge="1">
          <mxGeometry width="50" height="50" relative="1" as="geometry" />
        </mxCell>
        <mxCell id="f28595e9-cd1f-4303-bdfb-e9b12d735a1a-522c3df1-aed9-48dc-8969-1136ff1f4f07" value="" style="startArrow=none;endArrow=classic;dashed=0;strokeColor=#000000;strokeWidth=2;}" parent="1" source="f28595e9-cd1f-4303-bdfb-e9b12d735a1a" target="522c3df1-aed9-48dc-8969-1136ff1f4f07" edge="1">
          <mxGeometry width="50" height="50" relative="1" as="geometry" />
        </mxCell>
        <mxCell id="9fc7e252-67a0-4e08-b25c-63bb02db32b2-3e924eef-a7ad-4160-9776-5583db7a7eab" value="" style="startArrow=none;endArrow=classic;dashed=0;strokeColor=#000000;strokeWidth=2;}" parent="1" source="9fc7e252-67a0-4e08-b25c-63bb02db32b2" target="3e924eef-a7ad-4160-9776-5583db7a7eab" edge="1">
          <mxGeometry width="50" height="50" relative="1" as="geometry" />
        </mxCell>
        <mxCell id="2d97ce8f-4521-427d-9c42-7faa94e33578-455336bd-613b-48e8-af2e-b76e6e541882" value="" style="startArrow=none;endArrow=none;dashed=0;strokeColor=#000000;strokeWidth=2;}" parent="1" source="2d97ce8f-4521-427d-9c42-7faa94e33578" target="455336bd-613b-48e8-af2e-b76e6e541882" edge="1">
          <mxGeometry width="50" height="50" relative="1" as="geometry" />
        </mxCell>
        <mxCell id="5f47d455-26cd-4688-a9fd-9a48d33108af-e49cff8f-3393-41e5-86c2-fd8a0697ac06" value="" style="startArrow=none;endArrow=none;dashed=0;strokeColor=#000000;strokeWidth=2;}" parent="1" source="5f47d455-26cd-4688-a9fd-9a48d33108af" target="e49cff8f-3393-41e5-86c2-fd8a0697ac06" edge="1">
          <mxGeometry width="50" height="50" relative="1" as="geometry" />
        </mxCell>
        <mxCell id="afe5aa8a-cca2-4fc9-a502-912bada500a7-fd13d210-fb3f-4c3a-b1f5-66cb0e7d0621" value="" style="startArrow=none;endArrow=none;dashed=0;strokeColor=#000000;strokeWidth=2;}" parent="1" source="afe5aa8a-cca2-4fc9-a502-912bada500a7" target="fd13d210-fb3f-4c3a-b1f5-66cb0e7d0621" edge="1">
          <mxGeometry width="50" height="50" relative="1" as="geometry" />
        </mxCell>
        <mxCell id="e49cff8f-3393-41e5-86c2-fd8a0697ac06-3e924eef-a7ad-4160-9776-5583db7a7eab" value="" style="startArrow=none;endArrow=none;dashed=0;strokeColor=#000000;strokeWidth=2;}" parent="1" source="e49cff8f-3393-41e5-86c2-fd8a0697ac06" target="3e924eef-a7ad-4160-9776-5583db7a7eab" edge="1">
          <mxGeometry width="50" height="50" relative="1" as="geometry" />
        </mxCell>
        <mxCell id="9cae68ce-1762-43fd-ba42-0c33a08b969f-de553fe4-096f-4a36-9c27-5464cb401e88" value="" style="startArrow=none;endArrow=classic;dashed=0;strokeColor=#000000;strokeWidth=2;}" parent="1" source="9cae68ce-1762-43fd-ba42-0c33a08b969f" target="de553fe4-096f-4a36-9c27-5464cb401e88" edge="1">
          <mxGeometry width="50" height="50" relative="1" as="geometry" />
        </mxCell>
        <mxCell id="5f47d455-26cd-4688-a9fd-9a48d33108af-6730fcf0-0a41-415e-b668-4c6816f0362d" value="" style="startArrow=none;endArrow=none;dashed=0;strokeColor=#000000;strokeWidth=2;}" parent="1" source="5f47d455-26cd-4688-a9fd-9a48d33108af" target="6730fcf0-0a41-415e-b668-4c6816f0362d" edge="1">
          <mxGeometry width="50" height="50" relative="1" as="geometry" />
        </mxCell>
        <mxCell id="72fc5a03-4637-4212-af03-08a143177f9e-553be1d6-d83f-4a6d-8992-bfddaf389fbb" value="" style="startArrow=none;endArrow=none;dashed=0;strokeColor=#000000;strokeWidth=2;}" parent="1" source="72fc5a03-4637-4212-af03-08a143177f9e" target="553be1d6-d83f-4a6d-8992-bfddaf389fbb" edge="1">
          <mxGeometry width="50" height="50" relative="1" as="geometry" />
        </mxCell>
        <mxCell id="ac4f691c-874e-4941-aa38-abff03578730" value="" style="ellipse;fillColor=#000000;" parent="1" vertex="1">
          <mxGeometry x="-266.25" y="990" width="7.5" height="7.5" as="geometry" />
        </mxCell>
        <mxCell id="a57d741b-181a-4b9d-9f2c-bccb6ec4bae6" value="" style="ellipse;fillColor=#000000;" parent="1" vertex="1">
          <mxGeometry x="-247.5" y="971.25" width="7.5" height="7.5" as="geometry" />
        </mxCell>
        <mxCell id="553be1d6-d83f-4a6d-8992-bfddaf389fbb" value="" style="ellipse;fillColor=#000000;" parent="1" vertex="1">
          <mxGeometry x="-247.5" y="877.5" width="7.5" height="7.5" as="geometry" />
        </mxCell>
        <mxCell id="72fc5a03-4637-4212-af03-08a143177f9e" value="" style="ellipse;fillColor=#000000;" parent="1" vertex="1">
          <mxGeometry x="-247.5" y="783.75" width="7.5" height="7.5" as="geometry" />
        </mxCell>
        <mxCell id="f3fb7dd2-bbcd-4eb1-a827-b5738c59164f" value="" style="ellipse;fillColor=#000000;" parent="1" vertex="1">
          <mxGeometry x="-266.25" y="765" width="7.5" height="7.5" as="geometry" />
        </mxCell>
        <mxCell id="a972ec16-d6a3-4dab-ba44-97128442b79d" value="" style="ellipse;fillColor=#000000;" parent="1" vertex="1">
          <mxGeometry x="540" y="296.25" width="7.5" height="7.5" as="geometry" />
        </mxCell>
        <mxCell id="f28595e9-cd1f-4303-bdfb-e9b12d735a1a" value="" style="ellipse;fillColor=#000000;" parent="1" vertex="1">
          <mxGeometry x="540" y="390" width="7.5" height="7.5" as="geometry" />
        </mxCell>
        <mxCell id="0591a96b-9509-4459-a71c-cad703c39088" value="" style="ellipse;fillColor=#000000;" parent="1" vertex="1">
          <mxGeometry x="540" y="296.25" width="7.5" height="7.5" as="geometry" />
        </mxCell>
        <mxCell id="036f4e72-e0fd-46b0-8455-ed706efbbf61" value="" style="ellipse;fillColor=#000000;" parent="1" vertex="1">
          <mxGeometry x="296.25" y="483.75" width="7.5" height="7.5" as="geometry" />
        </mxCell>
        <mxCell id="e618fb58-d3e3-4c2b-a407-01de074bd185" value="" style="ellipse;fillColor=#000000;" parent="1" vertex="1">
          <mxGeometry x="296.25" y="427.5" width="7.5" height="7.5" as="geometry" />
        </mxCell>
        <mxCell id="44f2c53a-bc88-4b8b-8b7c-1351a79b7401" value="" style="ellipse;fillColor=#000000;" parent="1" vertex="1">
          <mxGeometry x="296.25" y="333.75" width="7.5" height="7.5" as="geometry" />
        </mxCell>
        <mxCell id="d67076ed-b381-484a-9875-a5a3fc4629da" value="" style="ellipse;fillColor=#000000;" parent="1" vertex="1">
          <mxGeometry x="333.75" y="296.25" width="7.5" height="7.5" as="geometry" />
        </mxCell>
        <mxCell id="fd13d210-fb3f-4c3a-b1f5-66cb0e7d0621" value="" style="ellipse;fillColor=#000000;" parent="1" vertex="1">
          <mxGeometry x="333.75" y="390" width="7.5" height="7.5" as="geometry" />
        </mxCell>
        <mxCell id="5f47d455-26cd-4688-a9fd-9a48d33108af" value="" style="ellipse;fillColor=#000000;" parent="1" vertex="1">
          <mxGeometry x="277.5" y="202.5" width="7.5" height="7.5" as="geometry" />
        </mxCell>
        <mxCell id="6730fcf0-0a41-415e-b668-4c6816f0362d" value="" style="ellipse;fillColor=#000000;" parent="1" vertex="1">
          <mxGeometry x="221.25" y="408.75" width="7.5" height="7.5" as="geometry" />
        </mxCell>
        <mxCell id="e49cff8f-3393-41e5-86c2-fd8a0697ac06" value="" style="ellipse;fillColor=#000000;" parent="1" vertex="1">
          <mxGeometry x="277.5" y="90" width="7.5" height="7.5" as="geometry" />
        </mxCell>
        <mxCell id="11ab225d-230f-4a67-854c-6bff276ff6b4" value="" style="ellipse;fillColor=#000000;" parent="1" vertex="1">
          <mxGeometry x="840" y="540" width="7.5" height="7.5" as="geometry" />
        </mxCell>
        <mxCell id="26dc95b1-ff76-4196-b645-839524faa067" value="" style="ellipse;fillColor=#000000;" parent="1" vertex="1">
          <mxGeometry x="671.25" y="1140" width="7.5" height="7.5" as="geometry" />
        </mxCell>
        <mxCell id="cd75bcec-23a3-4271-b407-f028cbcda366" value="" style="ellipse;fillColor=#000000;" parent="1" vertex="1">
          <mxGeometry x="858.75" y="1252.5" width="7.5" height="7.5" as="geometry" />
        </mxCell>
        <mxCell id="2d1f2722-4ed1-433f-9df8-76c46d87b174" value="" style="ellipse;fillColor=#000000;" parent="1" vertex="1">
          <mxGeometry x="277.5" y="202.5" width="7.5" height="7.5" as="geometry" />
        </mxCell>
        <mxCell id="59f5624e-3de2-4f82-a2de-18c59ae7ed37" value="" style="ellipse;fillColor=#000000;" parent="1" vertex="1">
          <mxGeometry x="277.5" y="90" width="7.5" height="7.5" as="geometry" />
        </mxCell>
        <mxCell id="2d532daa-51af-4f2a-9467-d3f254149677" value="" style="ellipse;fillColor=#000000;" parent="1" vertex="1">
          <mxGeometry x="840" y="540" width="7.5" height="7.5" as="geometry" />
        </mxCell>
        <mxCell id="455336bd-613b-48e8-af2e-b76e6e541882" value="" style="ellipse;fillColor=#000000;" parent="1" vertex="1">
          <mxGeometry x="896.25" y="90" width="7.5" height="7.5" as="geometry" />
        </mxCell>
        <mxCell id="372d3ef8-0ded-4cd5-b70c-f77ca6a3307c" value="" style="fillColor=#607d8b;" parent="1" vertex="1">
          <mxGeometry x="-506.25" y="-168.75" width="412.5" height="750" as="geometry" />
        </mxCell>
        <mxCell id="23bd8eb1-45c5-4100-b3f3-3215c5174400" value="" style="shape=mxgraph.aws3.kinesis_streams;fillColor=#F58534;" parent="1" vertex="1">
          <mxGeometry x="570" y="-12.75" width="60" height="63" as="geometry" />
        </mxCell>
        <mxCell id="9fc7e252-67a0-4e08-b25c-63bb02db32b2" value="" style="shape=mxgraph.aws3.dynamo_db;fillColor=#2E73B8;" parent="1" vertex="1">
          <mxGeometry x="170.25" y="53.25" width="72" height="81" as="geometry" />
        </mxCell>
        <mxCell id="c9d0b30c-b976-4f5a-aae1-13705d3dc6b9" value="" style="shape=mxgraph.aws3.redshift;fillColor=#2E73B8;" parent="1" vertex="1">
          <mxGeometry x="566.25" y="75" width="67.5" height="75" as="geometry" />
        </mxCell>
        <mxCell id="afe5aa8a-cca2-4fc9-a502-912bada500a7" value="C4" style="shape=mxgraph.aws3.instance;fillColor=#F58534;fontColor=#FFFFFF;fontSize=15;" parent="1" vertex="1">
          <mxGeometry x="382.5" y="362.25" width="60" height="63" as="geometry" />
        </mxCell>
        <mxCell id="522c3df1-aed9-48dc-8969-1136ff1f4f07" value="C3" style="shape=mxgraph.aws3.instance;fillColor=#F58534;fontColor=#FFFFFF;fontSize=15;" parent="1" vertex="1">
          <mxGeometry x="382.5" y="456" width="60" height="63" as="geometry" />
        </mxCell>
        <mxCell id="7fa5aea5-7fec-4838-b9ab-a5826f4ba432" value="" style="shape=mxgraph.aws3.classic_load_balancer;fillColor=#F58534;" parent="1" vertex="1">
          <mxGeometry x="621.75" y="507.75" width="69" height="72" as="geometry" />
        </mxCell>
        <mxCell id="52f89be7-2816-41bf-8a41-c7331727c957" value="" style="shape=mxgraph.aws3.vpc;fillColor=#F58536;" parent="1" vertex="1">
          <mxGeometry y="637.5" width="75" height="75" as="geometry" />
        </mxCell>
        <mxCell id="28d11116-46ad-452e-9027-891c226ec087" value="" style="fillColor=#3c3c3c;" parent="1" vertex="1">
          <mxGeometry x="-393.75" y="731.25" width="75" height="75" as="geometry" />
        </mxCell>
        <mxCell id="cc800f1e-e68d-4fc8-a392-222b873e3ad1" value="" style="fillColor=#3c3c3c;" parent="1" vertex="1">
          <mxGeometry x="-393.75" y="843.75" width="75" height="75" as="geometry" />
        </mxCell>
        <mxCell id="2d4ae9a3-8942-42fc-ac29-ec490fcf4fab" value="" style="fillColor=#3c3c3c;" parent="1" vertex="1">
          <mxGeometry x="-225" y="843.75" width="75" height="75" as="geometry" />
        </mxCell>
        <mxCell id="2bc31535-875b-461f-a174-0e80da691cba" value="" style="fillColor=#3c3c3c;" parent="1" vertex="1">
          <mxGeometry x="-393.75" y="956.25" width="75" height="75" as="geometry" />
        </mxCell>
        <mxCell id="9203edbf-c225-49a4-b1a3-e9498b36554c" value="" style="shape=mxgraph.aws3.bucket;fillColor=#E05243;" parent="1" vertex="1">
          <mxGeometry x="393" y="947.25" width="76.5" height="93" as="geometry" />
        </mxCell>
        <mxCell id="de553fe4-096f-4a36-9c27-5464cb401e88" value="" style="shape=mxgraph.aws3.bucket;fillColor=#E05243;" parent="1" vertex="1">
          <mxGeometry x="393" y="1041" width="76.5" height="93" as="geometry" />
        </mxCell>
        <mxCell id="7dec005f-1a57-43d5-bf7b-d89209e9c304" value="" style="shape=mxgraph.aws3.route_53;fillColor=#F58536;" parent="1" vertex="1">
          <mxGeometry x="396" y="1213.5" width="70.5" height="85.49999999999999" as="geometry" />
        </mxCell>
        <mxCell id="f541aab8-339d-45d1-86a5-a208281319b4" value="" style="shape=mxgraph.aws3.cloudfront;fillColor=#F58536;" parent="1" vertex="1">
          <mxGeometry x="636.75" y="1209.75" width="76.5" height="93" as="geometry" />
        </mxCell>
        <mxCell id="5ae73d4c-da2a-488a-baf1-a9c5b0949603" value="" style="shape=mxgraph.aws3.api_gateway;fillColor=#D9A741;" parent="1" vertex="1">
          <mxGeometry x="805.5" y="1209.75" width="76.5" height="93" as="geometry" />
        </mxCell>
        <mxCell id="c2732965-1907-4ad2-b1e1-1a7512fe5826" value="" style="shape=image;imageAspect=0;aspect=fixed;image=data:image/svg+xml,PHN2ZyB4bWxucz0iaHR0cDovL3d3dy53My5vcmcvMjAwMC9zdmciIHdpZHRoPSI0NiIgaGVpZ2h0PSI0NiIgc3R5bGU9ImZpbGw6ICNmZmZmZmY7Ij48Y2lyY2xlIGN4PSIyMyIgY3k9IjIzIiByPSIyMyIgc3R5bGU9ImZpbGw6IHJnYmEoMCwgMCwgMCwgMCk7Ii8+PGcgdHJhbnNmb3JtPSJ0cmFuc2xhdGUoMTAuNSw3KSI+PHN2ZyB4bWxucz0iaHR0cDovL3d3dy53My5vcmcvMjAwMC9zdmciIHdpZHRoPSIyNSIgaGVpZ2h0PSIzMiIgdmlld0JveD0iMCAwIDI1IDMyIj48cGF0aCBkPSJNNi44NTcgMjMuNDI5djEuMTQzYS41ODcuNTg3IDAgMCAxLS41NzEuNTcxSDUuMTQzYS41ODcuNTg3IDAgMCAxLS41NzEtLjU3MXYtMS4xNDNjMC0uMzA0LjI2OC0uNTcxLjU3MS0uNTcxaDEuMTQzYy4zMDQgMCAuNTcxLjI2OC41NzEuNTcxem0wLTQuNTcyVjIwYS41ODcuNTg3IDAgMCAxLS41NzEuNTcxSDUuMTQzQS41ODcuNTg3IDAgMCAxIDQuNTcyIDIwdi0xLjE0M2MwLS4zMDQuMjY4LS41NzEuNTcxLS41NzFoMS4xNDNjLjMwNCAwIC41NzEuMjY4LjU3MS41NzF6bTQuNTcyIDBWMjBhLjU4Ny41ODcgMCAwIDEtLjU3MS41NzFIOS43MTVBLjU4Ny41ODcgMCAwIDEgOS4xNDQgMjB2LTEuMTQzYzAtLjMwNC4yNjgtLjU3MS41NzEtLjU3MWgxLjE0M2MuMzA0IDAgLjU3MS4yNjguNTcxLjU3MXptLTQuNTcyLTQuNTcxdjEuMTQzYS41ODcuNTg3IDAgMCAxLS41NzEuNTcxSDUuMTQzYS41ODcuNTg3IDAgMCAxLS41NzEtLjU3MXYtMS4xNDNjMC0uMzA0LjI2OC0uNTcxLjU3MS0uNTcxaDEuMTQzYy4zMDQgMCAuNTcxLjI2OC41NzEuNTcxem0xMy43MTQgOS4xNDN2MS4xNDNhLjU4Ny41ODcgMCAwIDEtLjU3MS41NzFoLTEuMTQzYS41ODcuNTg3IDAgMCAxLS41NzEtLjU3MXYtMS4xNDNjMC0uMzA0LjI2OC0uNTcxLjU3MS0uNTcxSDIwYy4zMDQgMCAuNTcxLjI2OC41NzEuNTcxek0xNiAxOC44NTdWMjBhLjU4Ny41ODcgMCAwIDEtLjU3MS41NzFoLTEuMTQzYS41ODcuNTg3IDAgMCAxLS41NzEtLjU3MXYtMS4xNDNjMC0uMzA0LjI2OC0uNTcxLjU3MS0uNTcxaDEuMTQzYy4zMDQgMCAuNTcxLjI2OC41NzEuNTcxem0tNC41NzEtNC41NzF2MS4xNDNhLjU4Ny41ODcgMCAwIDEtLjU3MS41NzFIOS43MTVhLjU4Ny41ODcgMCAwIDEtLjU3MS0uNTcxdi0xLjE0M2MwLS4zMDQuMjY4LS41NzEuNTcxLS41NzFoMS4xNDNjLjMwNCAwIC41NzEuMjY4LjU3MS41NzF6TTYuODU3IDkuNzE0djEuMTQzYS41ODcuNTg3IDAgMCAxLS41NzEuNTcxSDUuMTQzYS41ODcuNTg3IDAgMCAxLS41NzEtLjU3MVY5LjcxNGMwLS4zMDQuMjY4LS41NzEuNTcxLS41NzFoMS4xNDNjLjMwNCAwIC41NzEuMjY4LjU3MS41NzF6bTEzLjcxNCA5LjE0M1YyMGEuNTg3LjU4NyAwIDAgMS0uNTcxLjU3MWgtMS4xNDNhLjU4Ny41ODcgMCAwIDEtLjU3MS0uNTcxdi0xLjE0M2MwLS4zMDQuMjY4LS41NzEuNTcxLS41NzFIMjBjLjMwNCAwIC41NzEuMjY4LjU3MS41NzF6TTE2IDE0LjI4NnYxLjE0M2EuNTg3LjU4NyAwIDAgMS0uNTcxLjU3MWgtMS4xNDNhLjU4Ny41ODcgMCAwIDEtLjU3MS0uNTcxdi0xLjE0M2MwLS4zMDQuMjY4LS41NzEuNTcxLS41NzFoMS4xNDNjLjMwNCAwIC41NzEuMjY4LjU3MS41NzF6bS00LjU3MS00LjU3MnYxLjE0M2EuNTg3LjU4NyAwIDAgMS0uNTcxLjU3MUg5LjcxNWEuNTg3LjU4NyAwIDAgMS0uNTcxLS41NzFWOS43MTRjMC0uMzA0LjI2OC0uNTcxLjU3MS0uNTcxaDEuMTQzYy4zMDQgMCAuNTcxLjI2OC41NzEuNTcxek02Ljg1NyA1LjE0M3YxLjE0M2EuNTg3LjU4NyAwIDAgMS0uNTcxLjU3MUg1LjE0M2EuNTg3LjU4NyAwIDAgMS0uNTcxLS41NzFWNS4xNDNjMC0uMzA0LjI2OC0uNTcxLjU3MS0uNTcxaDEuMTQzYy4zMDQgMCAuNTcxLjI2OC41NzEuNTcxem0xMy43MTQgOS4xNDN2MS4xNDNBLjU4Ny41ODcgMCAwIDEgMjAgMTZoLTEuMTQzYS41ODcuNTg3IDAgMCAxLS41NzEtLjU3MXYtMS4xNDNjMC0uMzA0LjI2OC0uNTcxLjU3MS0uNTcxSDIwYy4zMDQgMCAuNTcxLjI2OC41NzEuNTcxek0xNiA5LjcxNHYxLjE0M2EuNTg3LjU4NyAwIDAgMS0uNTcxLjU3MWgtMS4xNDNhLjU4Ny41ODcgMCAwIDEtLjU3MS0uNTcxVjkuNzE0YzAtLjMwNC4yNjgtLjU3MS41NzEtLjU3MWgxLjE0M2MuMzA0IDAgLjU3MS4yNjguNTcxLjU3MXptLTQuNTcxLTQuNTcxdjEuMTQzYS41ODcuNTg3IDAgMCAxLS41NzEuNTcxSDkuNzE1YS41ODcuNTg3IDAgMCAxLS41NzEtLjU3MVY1LjE0M2MwLS4zMDQuMjY4LS41NzEuNTcxLS41NzFoMS4xNDNjLjMwNCAwIC41NzEuMjY4LjU3MS41NzF6bTkuMTQyIDQuNTcxdjEuMTQzYS41ODcuNTg3IDAgMCAxLS41NzEuNTcxaC0xLjE0M2EuNTg3LjU4NyAwIDAgMS0uNTcxLS41NzFWOS43MTRjMC0uMzA0LjI2OC0uNTcxLjU3MS0uNTcxSDIwYy4zMDQgMCAuNTcxLjI2OC41NzEuNTcxek0xNiA1LjE0M3YxLjE0M2EuNTg3LjU4NyAwIDAgMS0uNTcxLjU3MWgtMS4xNDNhLjU4Ny41ODcgMCAwIDEtLjU3MS0uNTcxVjUuMTQzYzAtLjMwNC4yNjgtLjU3MS41NzEtLjU3MWgxLjE0M2MuMzA0IDAgLjU3MS4yNjguNTcxLjU3MXptNC41NzEgMHYxLjE0M2EuNTg3LjU4NyAwIDAgMS0uNTcxLjU3MWgtMS4xNDNhLjU4Ny41ODcgMCAwIDEtLjU3MS0uNTcxVjUuMTQzYzAtLjMwNC4yNjgtLjU3MS41NzEtLjU3MUgyMGMuMzA0IDAgLjU3MS4yNjguNTcxLjU3MXpNMTYgMjkuNzE0aDYuODU3VjIuMjg1SDIuMjg2djI3LjQyOWg2Ljg1N3YtNGMwLS4zMDQuMjY4LS41NzEuNTcxLS41NzFoNS43MTRjLjMwNCAwIC41NzEuMjY4LjU3MS41NzF2NHptOS4xNDMtMjguNTcxdjI5LjcxNGMwIC42MjUtLjUxOCAxLjE0My0xLjE0MyAxLjE0M0gxLjE0M0ExLjE1MSAxLjE1MSAwIDAgMSAwIDMwLjg1N1YxLjE0M0MwIC41MTguNTE4IDAgMS4xNDMgMEgyNGMuNjI1IDAgMS4xNDMuNTE4IDEuMTQzIDEuMTQzeiIvPjwvc3ZnPjwvZz48L3N2Zz4=;direction=east;" parent="1" vertex="1">
          <mxGeometry x="-443.97418308837416" y="1093.5258169116257" width="100.44836617674837" height="100.44836617674837" as="geometry" />
        </mxCell>
        <mxCell id="d9d777e2-6e9a-41a4-9afc-551fad4b068e" value="" style="shape=image;imageAspect=0;aspect=fixed;image=data:image/svg+xml,PHN2ZyB4bWxucz0iaHR0cDovL3d3dy53My5vcmcvMjAwMC9zdmciIHdpZHRoPSI0NiIgaGVpZ2h0PSI0NiIgc3R5bGU9ImZpbGw6ICNmZmZmZmY7Ij48Y2lyY2xlIGN4PSIyMyIgY3k9IjIzIiByPSIyMyIgc3R5bGU9ImZpbGw6ICMwMDAwMDA7Ii8+PGcgdHJhbnNmb3JtPSJ0cmFuc2xhdGUoMTIuNSw3KSI+PHN2ZyB4bWxucz0iaHR0cDovL3d3dy53My5vcmcvMjAwMC9zdmciIHdpZHRoPSIyMSIgaGVpZ2h0PSIzMiIgdmlld0JveD0iMCAwIDIxIDMyIj48cGF0aCBkPSJNNS43MTQgMTMuNzE0aDkuMTQzdi0zLjQyOWMwLTIuNTE4LTIuMDU0LTQuNTcxLTQuNTcxLTQuNTcxcy00LjU3MSAyLjA1NC00LjU3MSA0LjU3MXYzLjQyOXptMTQuODU3IDEuNzE1djEwLjI4NmMwIC45NDYtLjc2OCAxLjcxNC0xLjcxNCAxLjcxNEgxLjcxNEExLjcxNSAxLjcxNSAwIDAgMSAwIDI1LjcxNVYxNS40MjljMC0uOTQ2Ljc2OC0xLjcxNCAxLjcxNC0xLjcxNGguNTcxdi0zLjQyOWMwLTQuMzkzIDMuNjA3LTggOC04czggMy42MDcgOCA4djMuNDI5aC41NzFjLjk0NiAwIDEuNzE0Ljc2OCAxLjcxNCAxLjcxNHoiLz48L3N2Zz48L2c+PC9zdmc+;direction=east;" parent="1" vertex="1">
          <mxGeometry x="11.785218258752415" y="949.2852182587524" width="51.42956348249517" height="51.42956348249517" as="geometry" />
        </mxCell>
        <mxCell id="ec49b139-7010-4497-8e53-0c42e0edb731" value="" style="shape=image;imageAspect=0;aspect=fixed;image=data:image/svg+xml,PHN2ZyB4bWxucz0iaHR0cDovL3d3dy53My5vcmcvMjAwMC9zdmciIHdpZHRoPSI0OCIgaGVpZ2h0PSI0OCIgc3R5bGU9ImZpbGw6ICNmZmZmZmY7Ij48Y2lyY2xlIGN4PSIyNCIgY3k9IjI0IiByPSIyNCIgc3R5bGU9ImZpbGw6IHJnYmEoMCwgMCwgMCwgMCk7Ii8+PGcgdHJhbnNmb3JtPSJ0cmFuc2xhdGUoNyw4KSI+PHN2ZyB4bWxucz0iaHR0cDovL3d3dy53My5vcmcvMjAwMC9zdmciIHdpZHRoPSIzNCIgaGVpZ2h0PSIzMiIgdmlld0JveD0iMCAwIDM0IDMyIj48cGF0aCBkPSJNMzQuMjg2IDIwLjU3MWE2Ljg1OCA2Ljg1OCAwIDAgMS02Ljg1NyA2Ljg1N0g4Yy00LjQxMSAwLTgtMy41ODktOC04YTcuOTkzIDcuOTkzIDAgMCAxIDQuNjA3LTcuMjMyYy0uMDE4LS4yNS0uMDM2LS41MTgtLjAzNi0uNzY4YTkuMTM3IDkuMTM3IDAgMCAxIDkuMTQzLTkuMTQzYzMuODIxIDAgNy4wODkgMi4zMzkgOC40NjQgNS42NzlhNC40MzkgNC40MzkgMCAwIDEgMi45NjQtMS4xMDcgNC41OCA0LjU4IDAgMCAxIDQuNTcxIDQuNTcxIDQuNDkgNC40OSAwIDAgMS0uNzMyIDIuNDY0YzMuMDM2LjcxNCA1LjMwNCAzLjQyOSA1LjMwNCA2LjY3OXoiLz48L3N2Zz48L2c+PC9zdmc+;direction=east;" parent="1" vertex="1">
          <mxGeometry x="-14.907843222651323" y="847.5921567773487" width="104.81568644530265" height="104.81568644530265" as="geometry" />
        </mxCell>
        <mxCell id="6801ecc8-e0dd-43fb-8752-919733d0b228" value="" style="shape=image;imageAspect=0;aspect=fixed;image=data:image/svg+xml,PHN2ZyB4bWxucz0iaHR0cDovL3d3dy53My5vcmcvMjAwMC9zdmciIHdpZHRoPSI0NiIgaGVpZ2h0PSI0NiIgc3R5bGU9ImZpbGw6ICNmZmZmZmY7Ij48Y2lyY2xlIGN4PSIyMyIgY3k9IjIzIiByPSIyMyIgc3R5bGU9ImZpbGw6IHJnYmEoMCwgMCwgMCwgMCk7Ii8+PGcgdHJhbnNmb3JtPSJ0cmFuc2xhdGUoOS41LDcpIj48c3ZnIHhtbG5zPSJodHRwOi8vd3d3LnczLm9yZy8yMDAwL3N2ZyIgd2lkdGg9IjI3IiBoZWlnaHQ9IjMyIiB2aWV3Qm94PSIwIDAgMjcgMzIiPjxwYXRoIGQ9Ik0xMy43MTQgMTMuNzE0YzUuMzc1IDAgMTAuNzY4LS45NjQgMTMuNzE0LTMuMDM2djMuMDM2YzAgMi41MTgtNi4xNDMgNC41NzEtMTMuNzE0IDQuNTcxUzAgMTYuMjMxIDAgMTMuNzE0di0zLjAzNmMyLjk0NiAyLjA3MSA4LjMzOSAzLjAzNiAxMy43MTQgMy4wMzZ6bTAgMTMuNzE1YzUuMzc1IDAgMTAuNzY4LS45NjQgMTMuNzE0LTMuMDM2djMuMDM2YzAgMi41MTgtNi4xNDMgNC41NzEtMTMuNzE0IDQuNTcxUzAgMjkuOTQ2IDAgMjcuNDI5di0zLjAzNmMyLjk0NiAyLjA3MSA4LjMzOSAzLjAzNiAxMy43MTQgMy4wMzZ6bTAtNi44NThjNS4zNzUgMCAxMC43NjgtLjk2NCAxMy43MTQtMy4wMzZ2My4wMzZjMCAyLjUxOC02LjE0MyA0LjU3MS0xMy43MTQgNC41NzFTMCAyMy4wODggMCAyMC41NzF2LTMuMDM2YzIuOTQ2IDIuMDcxIDguMzM5IDMuMDM2IDEzLjcxNCAzLjAzNnptMC0yMC41NzFjNy41NzEgMCAxMy43MTQgMi4wNTQgMTMuNzE0IDQuNTcxdjIuMjg2YzAgMi41MTgtNi4xNDMgNC41NzEtMTMuNzE0IDQuNTcxUzAgOS4zNzQgMCA2Ljg1N1Y0LjU3MUMwIDIuMDUzIDYuMTQzIDAgMTMuNzE0IDB6Ii8+PC9zdmc+PC9nPjwvc3ZnPg==;direction=east;" parent="1" vertex="1">
          <mxGeometry x="-419.4647817412476" y="930.5352182587524" width="51.42956348249517" height="51.42956348249517" as="geometry" />
        </mxCell>
        <mxCell id="1a6e68a9-00e5-41b1-841a-da3fbe547592" value="" style="shape=image;imageAspect=0;aspect=fixed;image=data:image/svg+xml,PHN2ZyB4bWxucz0iaHR0cDovL3d3dy53My5vcmcvMjAwMC9zdmciIHdpZHRoPSI0NiIgaGVpZ2h0PSI0NiIgc3R5bGU9ImZpbGw6ICNmZmZmZmY7Ij48Y2lyY2xlIGN4PSIyMyIgY3k9IjIzIiByPSIyMyIgc3R5bGU9ImZpbGw6IHJnYmEoMCwgMCwgMCwgMCk7Ii8+PGcgdHJhbnNmb3JtPSJ0cmFuc2xhdGUoOS41LDcpIj48c3ZnIHhtbG5zPSJodHRwOi8vd3d3LnczLm9yZy8yMDAwL3N2ZyIgd2lkdGg9IjI3IiBoZWlnaHQ9IjMyIiB2aWV3Qm94PSIwIDAgMjcgMzIiPjxwYXRoIGQ9Ik0xMy43MTQgMTMuNzE0YzUuMzc1IDAgMTAuNzY4LS45NjQgMTMuNzE0LTMuMDM2djMuMDM2YzAgMi41MTgtNi4xNDMgNC41NzEtMTMuNzE0IDQuNTcxUzAgMTYuMjMxIDAgMTMuNzE0di0zLjAzNmMyLjk0NiAyLjA3MSA4LjMzOSAzLjAzNiAxMy43MTQgMy4wMzZ6bTAgMTMuNzE1YzUuMzc1IDAgMTAuNzY4LS45NjQgMTMuNzE0LTMuMDM2djMuMDM2YzAgMi41MTgtNi4xNDMgNC41NzEtMTMuNzE0IDQuNTcxUzAgMjkuOTQ2IDAgMjcuNDI5di0zLjAzNmMyLjk0NiAyLjA3MSA4LjMzOSAzLjAzNiAxMy43MTQgMy4wMzZ6bTAtNi44NThjNS4zNzUgMCAxMC43NjgtLjk2NCAxMy43MTQtMy4wMzZ2My4wMzZjMCAyLjUxOC02LjE0MyA0LjU3MS0xMy43MTQgNC41NzFTMCAyMy4wODggMCAyMC41NzF2LTMuMDM2YzIuOTQ2IDIuMDcxIDguMzM5IDMuMDM2IDEzLjcxNCAzLjAzNnptMC0yMC41NzFjNy41NzEgMCAxMy43MTQgMi4wNTQgMTMuNzE0IDQuNTcxdjIuMjg2YzAgMi41MTgtNi4xNDMgNC41NzEtMTMuNzE0IDQuNTcxUzAgOS4zNzQgMCA2Ljg1N1Y0LjU3MUMwIDIuMDUzIDYuMTQzIDAgMTMuNzE0IDB6Ii8+PC9zdmc+PC9nPjwvc3ZnPg==;direction=east;" parent="1" vertex="1">
          <mxGeometry x="-419.4647817412476" y="818.0352182587524" width="51.42956348249517" height="51.42956348249517" as="geometry" />
        </mxCell>
        <mxCell id="2027929f-f9b1-4f7f-afb8-50a201d82257" value="" style="shape=image;imageAspect=0;aspect=fixed;image=data:image/svg+xml,PHN2ZyB4bWxucz0iaHR0cDovL3d3dy53My5vcmcvMjAwMC9zdmciIHdpZHRoPSI0NiIgaGVpZ2h0PSI0NiIgc3R5bGU9ImZpbGw6ICNmZmZmZmY7Ij48Y2lyY2xlIGN4PSIyMyIgY3k9IjIzIiByPSIyMyIgc3R5bGU9ImZpbGw6IHJnYmEoMCwgMCwgMCwgMCk7Ii8+PGcgdHJhbnNmb3JtPSJ0cmFuc2xhdGUoOS41LDcpIj48c3ZnIHhtbG5zPSJodHRwOi8vd3d3LnczLm9yZy8yMDAwL3N2ZyIgd2lkdGg9IjI3IiBoZWlnaHQ9IjMyIiB2aWV3Qm94PSIwIDAgMjcgMzIiPjxwYXRoIGQ9Ik0xMy43MTQgMTMuNzE0YzUuMzc1IDAgMTAuNzY4LS45NjQgMTMuNzE0LTMuMDM2djMuMDM2YzAgMi41MTgtNi4xNDMgNC41NzEtMTMuNzE0IDQuNTcxUzAgMTYuMjMxIDAgMTMuNzE0di0zLjAzNmMyLjk0NiAyLjA3MSA4LjMzOSAzLjAzNiAxMy43MTQgMy4wMzZ6bTAgMTMuNzE1YzUuMzc1IDAgMTAuNzY4LS45NjQgMTMuNzE0LTMuMDM2djMuMDM2YzAgMi41MTgtNi4xNDMgNC41NzEtMTMuNzE0IDQuNTcxUzAgMjkuOTQ2IDAgMjcuNDI5di0zLjAzNmMyLjk0NiAyLjA3MSA4LjMzOSAzLjAzNiAxMy43MTQgMy4wMzZ6bTAtNi44NThjNS4zNzUgMCAxMC43NjgtLjk2NCAxMy43MTQtMy4wMzZ2My4wMzZjMCAyLjUxOC02LjE0MyA0LjU3MS0xMy43MTQgNC41NzFTMCAyMy4wODggMCAyMC41NzF2LTMuMDM2YzIuOTQ2IDIuMDcxIDguMzM5IDMuMDM2IDEzLjcxNCAzLjAzNnptMC0yMC41NzFjNy41NzEgMCAxMy43MTQgMi4wNTQgMTMuNzE0IDQuNTcxdjIuMjg2YzAgMi41MTgtNi4xNDMgNC41NzEtMTMuNzE0IDQuNTcxUzAgOS4zNzQgMCA2Ljg1N1Y0LjU3MUMwIDIuMDUzIDYuMTQzIDAgMTMuNzE0IDB6Ii8+PC9zdmc+PC9nPjwvc3ZnPg==;direction=east;" parent="1" vertex="1">
          <mxGeometry x="-419.4647817412476" y="705.5352182587524" width="51.42956348249517" height="51.42956348249517" as="geometry" />
        </mxCell>
        <mxCell id="90f67adc-1222-42ee-a82f-16b2bf259404" value="" style="shape=image;imageAspect=0;aspect=fixed;image=data:image/svg+xml,PHN2ZyB4bWxucz0iaHR0cDovL3d3dy53My5vcmcvMjAwMC9zdmciIHdpZHRoPSI0NiIgaGVpZ2h0PSI0NiIgc3R5bGU9ImZpbGw6ICNmZmZmZmY7Ij48Y2lyY2xlIGN4PSIyMyIgY3k9IjIzIiByPSIyMyIgc3R5bGU9ImZpbGw6IHJnYmEoMCwgMCwgMCwgMCk7Ii8+PGcgdHJhbnNmb3JtPSJ0cmFuc2xhdGUoNyw3KSI+PHN2ZyB4bWxucz0iaHR0cDovL3d3dy53My5vcmcvMjAwMC9zdmciIHdpZHRoPSIzMiIgaGVpZ2h0PSIzMiIgdmlld0JveD0iMCAwIDMyIDMyIj48cGF0aCBkPSJNMzIgMjEuMTQzdjMuNDI5YS41ODcuNTg3IDAgMCAxLS41NzEuNTcxSDYuODU4djMuNDI5YzAgLjMwNC0uMjUuNTcxLS41NzEuNTcxYS42NTYuNjU2IDAgMCAxLS40MjktLjE3OUwuMTYyIDIzLjI1YS41NTUuNTU1IDAgMCAxLS4xNjEtLjM5M2MwLS4xNjEuMDU0LS4zMDQuMTYxLS40MTFsNS43MTQtNS43MTRhLjU5Ny41OTcgMCAwIDEgLjQxMS0uMTYxYy4zMDQgMCAuNTcxLjI1LjU3MS41NzF2My40MjloMjQuNTcxYy4zMDQgMCAuNTcxLjI1LjU3MS41NzF6bTAtOS43MTRhLjU5Ny41OTcgMCAwIDEtLjE2MS40MTFsLTUuNzE0IDUuNzE0YS41OTcuNTk3IDAgMCAxLS40MTEuMTYxLjU4Ny41ODcgMCAwIDEtLjU3MS0uNTcxdi0zLjQyOUguNTcyYS41ODcuNTg3IDAgMCAxLS41NzEtLjU3MVY5LjcxNWMwLS4zMDQuMjY4LS41NzEuNTcxLS41NzFoMjQuNTcxVjUuNzE1YzAtLjMyMS4yNS0uNTcxLjU3MS0uNTcxLjE2MSAwIC4zMDQuMDcxLjQyOS4xNzlsNS42OTYgNS42OTZhLjU5Ny41OTcgMCAwIDEgLjE2MS40MTF6Ii8+PC9zdmc+PC9nPjwvc3ZnPg==;direction=east;" parent="1" vertex="1">
          <mxGeometry x="-256.4172498198974" y="808.9024847933157" width="64.28695435311896" height="64.28695435311896" as="geometry" />
        </mxCell>
        <mxCell id="f829fc9c-20a4-4cf5-b1c6-e187cec0c66c" value="" style="shape=image;imageAspect=0;aspect=fixed;image=data:image/svg+xml,PHN2ZyB4bWxucz0iaHR0cDovL3d3dy53My5vcmcvMjAwMC9zdmciIHdpZHRoPSI2MiIgaGVpZ2h0PSI2MiIgc3R5bGU9ImZpbGw6IG51bGw7Ij48Y2lyY2xlIGN4PSIzMSIgY3k9IjMxIiByPSIzMSIgc3R5bGU9ImZpbGw6IHJnYmEoMCwgMCwgMCwgMCk7Ii8+PGcgdHJhbnNmb3JtPSJ0cmFuc2xhdGUoNyw3KSI+PHN2ZyB4bWxucz0iaHR0cDovL3d3dy53My5vcmcvMjAwMC9zdmciIHdpZHRoPSI0OCIgaGVpZ2h0PSI0OCIgdmlld0JveD0iMCAwIDQ4IDQ4Ij48ZyBmaWxsPSJub25lIiBmaWxsLXJ1bGU9ImV2ZW5vZGQiPjxwYXRoIGZpbGw9IiMwNjdGNjgiIGQ9Ik0zMC4yNzggMzkuODMyYzAtLjQ4Mi0uMDg4LS44NDgtLjI2NS0xLjA5OC0uMTc2LS4yNDktLjQzMi0uMzc0LS43NjctLjM3NGgtLjgzOXYyLjk0NGguODRjLjMzNCAwIC41OS0uMTI1Ljc2Ni0uMzc1LjE3Ny0uMjQ5LjI2NS0uNjE2LjI2NS0xLjA5N1ptMS4wNzgtMi4wNTljLjQ3LjUwMy43MDMgMS4xOS43MDMgMi4wNTkgMCAuODY5LS4yMzQgMS41NTUtLjcwMyAyLjA1OS0uNDcuNTAzLTEuMDk5Ljc1NC0xLjg5Ljc1NGgtMS4wNTl2My4zMThoLTEuNzY5di04Ljk0NWgyLjgyN2MuNzkyIDAgMS40MjEuMjUxIDEuODkxLjc1NVptLTExLjgzLjY3N2gyLjE0MnY3LjUxM2gxLjgwN1YzOC40NWgyLjE0M3YtMS40MzJoLTYuMDkzdjEuNDMyWm0tNS40MDggNy41MTNoMS44MDZ2LTMuNzY5aDIuMjM0di0xLjM4MmgtMi4yMzR2LTIuNDEzaDIuODUzdi0xLjM4MWgtNC42NTl2OC45NDVabTMxLjQ2NC0zNS4wNjUtOC42MDYtOC42MDVhLjk5OS45OTkgMCAwIDAtMS40MTQgMGwtOC42MDUgOC42MDVhMSAxIDAgMCAwIC43MDcgMS43MDdoNC4zOFYyNC41MTNhMSAxIDAgMCAwIDEgMWgyLjk2M2wtNi4xOTIgNi4xOTEtNi4xOS02LjE5MWgyLjk2NGExIDEgMCAwIDAgMS0xdi03LjUzaC0ydjYuNTNoLTQuMzc4YS45OTguOTk4IDAgMCAwLS43MDcgMS43MDdsOC42MDQgOC42MDVhLjk5Ny45OTcgMCAwIDAgMS40MTQgMGw4LjYwNi04LjYwNWEuOTk4Ljk5OCAwIDAgMCAuMjE2LTEuMDkuOTk4Ljk5OCAwIDAgMC0uOTIzLS42MTdoLTQuMzc4VjExLjYwNWExIDEgMCAwIDAtMS0xaC0yLjk2NWw2LjE5MS02LjE5MSA2LjE5MiA2LjE5MWgtMi45NjVhMSAxIDAgMCAwLTEgMXY3LjYwNUgzNi4yN3YyaDUuNDU0djIyLjc0aC04LjM3NnYyaDkuMzc2YTEgMSAwIDAgMCAxLTFWMjAuMjFhMSAxIDAgMCAwLTEtMWgtMi4yMjd2LTYuNjA1aDQuMzhhMSAxIDAgMCAwIC43MDYtMS43MDdaTTkuMDc3IDQzLjk1aDIuNDUzdjJINi4xNTFhMy4xNTUgMy4xNTUgMCAwIDEtMy4xNS0zLjE1MVYxMi42ODFhMSAxIDAgMCAxIDEtMWgxMS45MTNjLjMxIDAgLjYwMi4xNDMuNzkyLjM4OGwyLjE5IDIuODM5aDQuNDY1djJoLTQuOTU2YTEgMSAwIDAgMS0uNzkyLS4zODhsLTIuMTktMi44MzlINXYyOS4xMThhMS4xNTIgMS4xNTIgMCAwIDAgMi4zMDIgMFYyMC4yMWExIDEgMCAwIDEgMS0xaDE1LjA2djJIOS4zMDF2MjEuNTg5YzAgLjQwNy0uMDg0Ljc5NC0uMjI1IDEuMTUxWiIvPjwvZz48L3N2Zz48L2c+PC9zdmc+;direction=east;" parent="1" vertex="1">
          <mxGeometry x="144.17618293594157" y="950.4261829359416" width="86.64763412811685" height="86.64763412811685" as="geometry" />
        </mxCell>
        <mxCell id="8eef2f81-aee4-4044-885f-f6fe672c5682" value="" style="shape=image;imageAspect=0;aspect=fixed;image=data:image/svg+xml,PHN2ZyB4bWxucz0iaHR0cDovL3d3dy53My5vcmcvMjAwMC9zdmciIHdpZHRoPSI3OCIgaGVpZ2h0PSI3OCIgc3R5bGU9ImZpbGw6IG51bGw7Ij48Y2lyY2xlIGN4PSIzOSIgY3k9IjM5IiByPSIzOSIgc3R5bGU9ImZpbGw6IHJnYmEoMCwgMCwgMCwgMCk7Ii8+PGcgdHJhbnNmb3JtPSJ0cmFuc2xhdGUoNyw3KSI+PHN2ZyB4bWxucz0iaHR0cDovL3d3dy53My5vcmcvMjAwMC9zdmciIHdpZHRoPSI2NCIgaGVpZ2h0PSI2NCIgdmlld0JveD0iMCAwIDY0IDY0Ij48ZGVmcz48bGluZWFyR3JhZGllbnQgaWQ9Ik1hbmFnZWQtU3RyZWFtaW5nLWZvci1BcGFjaGUtS2Fma2Ffc3ZnX19hIiB4MT0iMCUiIHgyPSIxMDAlIiB5MT0iMTAwJSIgeTI9IjAlIj48c3RvcCBvZmZzZXQ9IjAlIiBzdG9wLWNvbG9yPSIjNEQyN0E4Ii8+PHN0b3Agb2Zmc2V0PSIxMDAlIiBzdG9wLWNvbG9yPSIjQTE2NkZGIi8+PC9saW5lYXJHcmFkaWVudD48L2RlZnM+PGcgZmlsbD0ibm9uZSIgZmlsbC1ydWxlPSJldmVub2RkIj48ZyBmaWxsPSJ1cmwoI01hbmFnZWQtU3RyZWFtaW5nLWZvci1BcGFjaGUtS2Fma2Ffc3ZnX19hKSI+PHBhdGggZD0iTTAgMGg2NHY2NEgweiIvPjwvZz48cGF0aCBmaWxsPSIjRkZGIiBkPSJNMjkuMzczIDI5LjYwOFYyMi40OWgxLjU2M3YzLjE2M2wyLjExLTMuMTYzaDEuNzMxbC0yLjQ0NSAzLjMyOCAyLjY0NyAzLjc5aC0xLjg1NGwtMi4xODktMy40NHYzLjQ0aC0xLjU2M1pNNTMgMzkuMzc4bC0uNTI0LjQ1OWMtMi4xODQgMS45MzQtNS44NzggMS45MzMtOC4wNjctLjAwNGwtMS4wNDMtLjkxNGMtMS40MzUtMS4yNy00LjA0Mi0xLjI3MS01LjQ3My0uMDA0bC0xLjA1LjkyYy0yLjE4MyAxLjkzNS01Ljg4IDEuOTM0LTguMDY3LS4wMDJsLTEuMDQ0LS45MTRjLTEuNDM2LTEuMjcxLTQuMDQxLTEuMjctNS40NzEtLjAwNGwtMS4wNTMuOTIyYy0xLjA5Ljk2NS0yLjU2IDEuNDQ5LTQuMDI4IDEuNDQ5LTEuNDcgMC0yLjk0Mi0uNDg0LTQuMDM3LTEuNDUzbC0uNTItLjQ1NSAxLjI5Mi0xLjUxMy41MjUuNDU5YzEuNDM0IDEuMjY5IDQuMDQgMS4yNyA1LjQ3Mi4wMDRsMS4wNTEtLjkyMmMyLjE4Mi0xLjkzMiA1Ljg4LTEuOTMyIDguMDY2LjAwNGwxLjA0NS45MTRjMS40MzYgMS4yNyA0LjA0IDEuMjY5IDUuNDcxLjAwNGwxLjA1Mi0uOTIxYzIuMTgyLTEuOTM0IDUuODc4LTEuOTMzIDguMDY2LjAwM2wxLjA0My45MTRjMS40MzUgMS4yNjkgNC4wNCAxLjI3IDUuNDczLjAwNGwuNTI4LS40NjNMNTMgMzkuMzc4Wm0tMS45MTUgOS4yMDEgMS4yOTIgMS41MTItLjUyMy40NmMtMS4wOTIuOTY1LTIuNTYxIDEuNDQ5LTQuMDMgMS40NDktMS40NyAwLTIuOTQzLS40ODUtNC4wMzYtMS40NTRsLTEuMDQ1LS45MTNjLTEuNDM2LTEuMjcyLTQuMDQxLTEuMjctNS40NzEtLjAwNGwtMS4wNTIuOTIxYy0yLjE4MSAxLjkzMi01Ljg4IDEuOTMzLTguMDY2LS4wMDRsLTEuMDQzLS45MTRjLTEuNDM1LTEuMjctNC4wNDItMS4yNy01LjQ3My0uMDAzbC0xLjA1MS45MjFjLTIuMTgzIDEuOTMzLTUuODc5IDEuOTMzLTguMDY3LS4wMDRsLS41Mi0uNDU1IDEuMjkzLTEuNTEyLjUyNS40NmMxLjQzNCAxLjI2OCA0LjA0IDEuMjcgNS40NzIuMDAzbDEuMDUtLjkyYzIuMTgzLTEuOTM0IDUuODgtMS45MzUgOC4wNjcuMDAybDEuMDQ0LjkxNGMxLjQzNCAxLjI3IDQuMDQgMS4yNyA1LjQ3MS4wMDRsMS4wNTMtLjkyMmMyLjE4Mi0xLjkzMiA1Ljg4LTEuOTMzIDguMDY2LjAwNGwxLjA0My45MTRjMS40MzYgMS4yNyA0LjA0IDEuMjcgNS40NzMuMDA0bC41MjgtLjQ2M1ptMC01LjAxNCAxLjI5MiAxLjUxMi0uNTIzLjQ2Yy0xLjA5Mi45NjUtMi41NjEgMS40NDgtNC4wMyAxLjQ0OC0xLjQ3IDAtMi45NDMtLjQ4NC00LjAzNi0xLjQ1M2wtMS4wNDUtLjkxM2MtMS40MzYtMS4yNy00LjA0MS0xLjI3LTUuNDcxLS4wMDRsLTEuMDUyLjkyMWMtMi4xODEgMS45MzMtNS44OCAxLjkzMy04LjA2Ni0uMDA0bC0xLjA0My0uOTE0Yy0xLjQzNS0xLjI3LTQuMDQyLTEuMjcyLTUuNDczLS4wMDNsLTEuMDUxLjkyMWMtMi4xODMgMS45MzMtNS44NzkgMS45MzMtOC4wNjctLjAwNGwtLjUyLS40NTUgMS4yOTMtMS41MTIuNTI1LjQ2YzEuNDM0IDEuMjcgNC4wNCAxLjI3IDUuNDcyLjAwMmwxLjA1LS45MmMyLjE4NC0xLjkzNCA1Ljg4Mi0xLjkzMiA4LjA2Ny4wMDNsMS4wNDQuOTE0YzEuNDM0IDEuMjcgNC4wNCAxLjI3IDUuNDcxLjAwM2wxLjA1My0uOTJjMi4xODItMS45MzMgNS44OC0xLjkzNCA4LjA2Ni4wMDNsMS4wNDMuOTE0YzEuNDM2IDEuMjcgNC4wNCAxLjI3IDUuNDczLjAwM2wuNTI4LS40NjJaTTIwLjE0NSAzMGMuODE4IDAgMS40ODMuNjczIDEuNDgzIDEuNXMtLjY2NSAxLjUtMS40ODIgMS41YTEuNDkzIDEuNDkzIDAgMCAxLTEuNDgzLTEuNWMwLS44MjcuNjY1LTEuNSAxLjQ4My0xLjVabTExLjg2LTE2Yy44MTggMCAxLjQ4My42NzQgMS40ODMgMS41IDAgLjgyOC0uNjY1IDEuNS0xLjQ4MiAxLjVhMS40OTMgMS40OTMgMCAwIDEtMS40ODMtMS41YzAtLjgyNi42NjUtMS41IDEuNDgzLTEuNVptMTMuMzQzIDE3LjVjMCAuODI3LS42NjUgMS41LTEuNDgyIDEuNWExLjQ5MyAxLjQ5MyAwIDAgMS0xLjQ4My0xLjVjMC0uODI3LjY2NS0xLjUgMS40ODMtMS41LjgxNyAwIDEuNDgyLjY3MyAxLjQ4MiAxLjVabS0xMy4zNDItMTIuNWMuNTM3IDAgMS4wNC0uMTM1IDEuNDk1LS4zNTdsNy43ODggMTAuNTQ2QTMuNDY3IDMuNDY3IDAgMCAwIDQwLjQ1NyAzMUgyMy41NTVhMy40NjcgMy40NjcgMCAwIDAtLjgzMy0xLjgxbDcuNzg4LTEwLjU0N2MuNDU1LjIyMi45NTguMzU4IDEuNDk2LjM1OFptLTExLjg2IDE2YzEuMzc1IDAgMi41NTUtLjgyMiAzLjExMi0yaDE3LjQ5N2MuNTU2IDEuMTc4IDEuNzM2IDIgMy4xMSAyIDEuOTA4IDAgMy40Ni0xLjU3IDMuNDYtMy41cy0xLjU1Mi0zLjUtMy40Ni0zLjVjLS4zMDkgMC0uNjAzLjA1NS0uODg5LjEzMmwtOC4wMTEtMTAuODQ3Yy4zMTEtLjUyNC41LTEuMTMuNS0xLjc4NCAwLTEuOTMtMS41NTItMy41LTMuNDYtMy41LTEuOTA3IDAtMy40NTggMS41Ny0zLjQ1OCAzLjUgMCAuNjU0LjE4OCAxLjI2LjUgMS43ODRMMjEuMDM1IDI4LjEzYTMuMzkzIDMuMzkzIDAgMCAwLS44OS0uMTMyYy0xLjkwNyAwLTMuNDU4IDEuNTctMy40NTggMy41czEuNTUxIDMuNSAzLjQ1OSAzLjVaIi8+PC9nPjwvc3ZnPjwvZz48L3N2Zz4=;direction=east;" parent="1" vertex="1">
          <mxGeometry x="152.61733955100328" y="658.8673395510033" width="69.76532089799343" height="69.76532089799343" as="geometry" />
        </mxCell>
        <mxCell id="5f835ef7-7a98-4629-aeac-bce1dca9d24b" value="" style="shape=image;imageAspect=0;aspect=fixed;image=data:image/svg+xml,PHN2ZyB4bWxucz0iaHR0cDovL3d3dy53My5vcmcvMjAwMC9zdmciIHdpZHRoPSI3OCIgaGVpZ2h0PSI3OCIgc3R5bGU9ImZpbGw6IG51bGw7Ij48Y2lyY2xlIGN4PSIzOSIgY3k9IjM5IiByPSIzOSIgc3R5bGU9ImZpbGw6IHJnYmEoMCwgMCwgMCwgMCk7Ii8+PGcgdHJhbnNmb3JtPSJ0cmFuc2xhdGUoNyw3KSI+PHN2ZyB4bWxucz0iaHR0cDovL3d3dy53My5vcmcvMjAwMC9zdmciIHdpZHRoPSI2NCIgaGVpZ2h0PSI2NCIgdmlld0JveD0iMCAwIDY0IDY0Ij48ZGVmcz48bGluZWFyR3JhZGllbnQgaWQ9IkxhbWJkYV9zdmdfX2EiIHgxPSIwJSIgeDI9IjEwMCUiIHkxPSIxMDAlIiB5Mj0iMCUiPjxzdG9wIG9mZnNldD0iMCUiIHN0b3AtY29sb3I9IiNDODUxMUIiLz48c3RvcCBvZmZzZXQ9IjEwMCUiIHN0b3AtY29sb3I9IiNGOTAiLz48L2xpbmVhckdyYWRpZW50PjwvZGVmcz48ZyBmaWxsPSJub25lIiBmaWxsLXJ1bGU9ImV2ZW5vZGQiPjxnIGZpbGw9InVybCgjTGFtYmRhX3N2Z19fYSkiPjxwYXRoIGQ9Ik0wIDBoNjR2NjRIMHoiLz48L2c+PHBhdGggZmlsbD0iI0ZGRiIgZD0iTTIyLjY4IDUyaC05LjEwNmwxMC4yNjQtMjEuNTkgNC41NjIgOS40NTFMMjIuNjggNTJabTIuMDQ3LTI0LjMzM2EuOTk0Ljk5NCAwIDAgMC0uODk2LS41NjRoLS4wMDNhLjk5NC45OTQgMCAwIDAtLjg5Ni41NjlMMTEuMDk3IDUyLjU2OWMtLjE0Ny4zMS0uMTI2LjY3NC4wNTcuOTY1LjE4MS4yOS41LjQ2Ni44NDIuNDY2SDIzLjMxYS45OTYuOTk2IDAgMCAwIC45LS41NzJsNi4xOTQtMTMuMTQ0YTEuMDAzIDEuMDAzIDAgMCAwLS4wMDUtLjg2NGwtNS42NzItMTEuNzUzWk01MS4wMDggNTJoLTkuMDIyTDI2Ljk1NSAxOS41NzhhLjk5Ny45OTcgMCAwIDAtLjkwMy0uNTc4aC01LjkyNGwuMDA3LTdoMTEuNjhsMTQuOTYgMzIuNDJjLjE2My4zNTQuNTE2LjU4LjkwNC41OGgzLjMzdjdabS45OTYtOWgtMy42OWwtMTQuOTYtMzIuNDJhLjk5NS45OTUgMCAwIDAtLjkwMy0uNThIMTkuMTRhLjk5OS45OTkgMCAwIDAtLjk5Ni45OTlsLS4wMDggOUEuOTkzLjk5MyAwIDAgMCAxOS4xMzEgMjFoNi4yODZsMTUuMDMgMzIuNDIyYS45OTUuOTk1IDAgMCAwIC45MDMuNTc4aDEwLjY1NGMuNTUgMCAuOTk2LS40NDguOTk2LTF2LTljMC0uNTUyLS40NDUtMS0uOTk2LTFaIi8+PC9nPjwvc3ZnPjwvZz48L3N2Zz4=;direction=east;" parent="1" vertex="1">
          <mxGeometry x="621.3673395510033" y="658.8673395510033" width="69.76532089799343" height="69.76532089799343" as="geometry" />
        </mxCell>
        <mxCell id="b81e9596-8ef7-4865-bf2b-7b4ae5db9c5a" value="" style="shape=image;imageAspect=0;aspect=fixed;image=data:image/svg+xml,PHN2ZyB4bWxucz0iaHR0cDovL3d3dy53My5vcmcvMjAwMC9zdmciIHdpZHRoPSI3OCIgaGVpZ2h0PSI3OCIgc3R5bGU9ImZpbGw6IG51bGw7Ij48Y2lyY2xlIGN4PSIzOSIgY3k9IjM5IiByPSIzOSIgc3R5bGU9ImZpbGw6IHJnYmEoMCwgMCwgMCwgMCk7Ii8+PGcgdHJhbnNmb3JtPSJ0cmFuc2xhdGUoNyw3KSI+PHN2ZyB4bWxucz0iaHR0cDovL3d3dy53My5vcmcvMjAwMC9zdmciIHdpZHRoPSI2NCIgaGVpZ2h0PSI2NCIgdmlld0JveD0iMCAwIDY0IDY0Ij48ZGVmcz48bGluZWFyR3JhZGllbnQgaWQ9IkxhbWJkYV9zdmdfX2EiIHgxPSIwJSIgeDI9IjEwMCUiIHkxPSIxMDAlIiB5Mj0iMCUiPjxzdG9wIG9mZnNldD0iMCUiIHN0b3AtY29sb3I9IiNDODUxMUIiLz48c3RvcCBvZmZzZXQ9IjEwMCUiIHN0b3AtY29sb3I9IiNGOTAiLz48L2xpbmVhckdyYWRpZW50PjwvZGVmcz48ZyBmaWxsPSJub25lIiBmaWxsLXJ1bGU9ImV2ZW5vZGQiPjxnIGZpbGw9InVybCgjTGFtYmRhX3N2Z19fYSkiPjxwYXRoIGQ9Ik0wIDBoNjR2NjRIMHoiLz48L2c+PHBhdGggZmlsbD0iI0ZGRiIgZD0iTTIyLjY4IDUyaC05LjEwNmwxMC4yNjQtMjEuNTkgNC41NjIgOS40NTFMMjIuNjggNTJabTIuMDQ3LTI0LjMzM2EuOTk0Ljk5NCAwIDAgMC0uODk2LS41NjRoLS4wMDNhLjk5NC45OTQgMCAwIDAtLjg5Ni41NjlMMTEuMDk3IDUyLjU2OWMtLjE0Ny4zMS0uMTI2LjY3NC4wNTcuOTY1LjE4MS4yOS41LjQ2Ni44NDIuNDY2SDIzLjMxYS45OTYuOTk2IDAgMCAwIC45LS41NzJsNi4xOTQtMTMuMTQ0YTEuMDAzIDEuMDAzIDAgMCAwLS4wMDUtLjg2NGwtNS42NzItMTEuNzUzWk01MS4wMDggNTJoLTkuMDIyTDI2Ljk1NSAxOS41NzhhLjk5Ny45OTcgMCAwIDAtLjkwMy0uNTc4aC01LjkyNGwuMDA3LTdoMTEuNjhsMTQuOTYgMzIuNDJjLjE2My4zNTQuNTE2LjU4LjkwNC41OGgzLjMzdjdabS45OTYtOWgtMy42OWwtMTQuOTYtMzIuNDJhLjk5NS45OTUgMCAwIDAtLjkwMy0uNThIMTkuMTRhLjk5OS45OTkgMCAwIDAtLjk5Ni45OTlsLS4wMDggOUEuOTkzLjk5MyAwIDAgMCAxOS4xMzEgMjFoNi4yODZsMTUuMDMgMzIuNDIyYS45OTUuOTk1IDAgMCAwIC45MDMuNTc4aDEwLjY1NGMuNTUgMCAuOTk2LS40NDguOTk2LTF2LTljMC0uNTUyLS40NDUtMS0uOTk2LTFaIi8+PC9nPjwvc3ZnPjwvZz48L3N2Zz4=;direction=east;" parent="1" vertex="1">
          <mxGeometry x="621.3673395510033" y="958.8673395510033" width="69.76532089799343" height="69.76532089799343" as="geometry" />
        </mxCell>
        <mxCell id="f1bb5c6f-cfec-47ae-b5e8-b2ccf5db73e1" value="" style="shape=image;imageAspect=0;aspect=fixed;image=data:image/svg+xml,PHN2ZyB4bWxucz0iaHR0cDovL3d3dy53My5vcmcvMjAwMC9zdmciIHdpZHRoPSI3OCIgaGVpZ2h0PSI3OCIgc3R5bGU9ImZpbGw6IG51bGw7Ij48Y2lyY2xlIGN4PSIzOSIgY3k9IjM5IiByPSIzOSIgc3R5bGU9ImZpbGw6IHJnYmEoMCwgMCwgMCwgMCk7Ii8+PGcgdHJhbnNmb3JtPSJ0cmFuc2xhdGUoNyw3KSI+PHN2ZyB4bWxucz0iaHR0cDovL3d3dy53My5vcmcvMjAwMC9zdmciIHdpZHRoPSI2NCIgaGVpZ2h0PSI2NCIgdmlld0JveD0iMCAwIDY0IDY0Ij48ZGVmcz48bGluZWFyR3JhZGllbnQgaWQ9IlNpbXBsZS1RdWV1ZS1TZXJ2aWNlX3N2Z19fYSIgeDE9IjAlIiB4Mj0iMTAwJSIgeTE9IjEwMCUiIHkyPSIwJSI+PHN0b3Agb2Zmc2V0PSIwJSIgc3RvcC1jb2xvcj0iI0IwMDg0RCIvPjxzdG9wIG9mZnNldD0iMTAwJSIgc3RvcC1jb2xvcj0iI0ZGNEY4QiIvPjwvbGluZWFyR3JhZGllbnQ+PC9kZWZzPjxnIGZpbGw9Im5vbmUiIGZpbGwtcnVsZT0iZXZlbm9kZCI+PGcgZmlsbD0idXJsKCNTaW1wbGUtUXVldWUtU2VydmljZV9zdmdfX2EpIj48cGF0aCBkPSJNMCAwaDY0djY0SDB6Ii8+PC9nPjxwYXRoIGZpbGw9IiNGRkYiIGQ9Im0yMy44NDcgMzUuNTE0IDEuOTk5LTIuOTVhLjk3Ny45NzcgMCAwIDAgLjAwMi0xLjA5NmwtMi0yLjk3Ni0xLjY2NSAxLjA5Mi45NiAxLjQyOWgtMy4xMjd2MS45NzVoMy4xMzZsLS45NjcgMS40MjcgMS42NjIgMS4wOTlabTE3Ljk5Ni0uMDAyIDItMi45NjRhLjk3Ny45NzcgMCAwIDAgMC0xLjA5NmwtMi0yLjk2Mi0xLjY2NCAxLjA5NS45NjQgMS40MjloLTMuMTMxdjEuOTc1aDMuMTNsLS45NjMgMS40MjcgMS42NjQgMS4wOTZaTTI4LjQ5NCAzMmMwIDEuNDg1LS4yMzIgMi44OTYtLjY2NyA0LjE1NGExMy4zOSAxMy4zOSAwIDAgMSA0LjE4OC0uNjU0YzEuNDQgMCAyLjg3OS4yMTggNC4xODguNjU0LS40MzQtMS4yNTgtLjY2Ny0yLjY2OS0uNjY3LTQuMTU0IDAtMS40ODMuMjMzLTIuODk0LjY2Ny00LjE1Mi0yLjYyLjg3Mi01Ljc1NS44NzItOC4zNzYgMCAuNDM1IDEuMjU4LjY2NyAyLjY2OS42NjcgNC4xNTJabS00LjE5IDcuNjJhLjk3OS45NzkgMCAwIDEgMC0xLjM5N2MxLjM3Mi0xLjM1NiAyLjE5LTMuNjgyIDIuMTktNi4yMjMgMC0yLjUzOS0uODE4LTQuODY1LTIuMTktNi4yMjFhLjk3OS45NzkgMCAwIDEgMC0xLjM5NyAxLjAwNyAxLjAwNyAwIDAgMSAxLjQxMyAwYzIuOTQyIDIuOTA3IDkuNjU0IDIuOTA3IDEyLjU5NyAwYTEuMDA3IDEuMDA3IDAgMCAxIDEuNDE0IDAgLjk3OS45NzkgMCAwIDEgMCAxLjM5N2MtMS4zNzMgMS4zNTYtMi4xOTMgMy42ODItMi4xOTMgNi4yMjEgMCAyLjU0LjgyIDQuODY3IDIuMTkzIDYuMjIzYS45NzkuOTc5IDAgMCAxIDAgMS4zOTcgMSAxIDAgMCAxLS43MDcuMjkuOTk5Ljk5OSAwIDAgMS0uNzA3LS4yOWMtMi45NDMtMi45MDctOS42NTUtMi45MDctMTIuNTk3IDBhMS4wMDcgMS4wMDcgMCAwIDEtMS40MTQgMFptMjYuOTY5LTkuMzU3YTIuNDkgMi40OSAwIDAgMC0xLjc2NC0uNzIyIDIuNDkgMi40OSAwIDAgMC0xLjc2My43MjIgMi40MzIgMi40MzIgMCAwIDAtLjczMSAxLjc0MWMwIC42Ni4yNiAxLjI3OC43MyAxLjc0M2EyLjUxOCAyLjUxOCAwIDAgMCAzLjUyOCAwIDIuNDQ2IDIuNDQ2IDAgMCAwIDAtMy40ODRabTEuNDEzIDQuODhhNC41MSA0LjUxIDAgMCAxLTMuMTc3IDEuMyA0LjUxIDQuNTEgMCAwIDEtMy4xNzctMS4zIDQuMzgxIDQuMzgxIDAgMCAxLTEuMzE3LTMuMTM5YzAtMS4xODUuNDY4LTIuMyAxLjMxNy0zLjEzOWE0LjQ5MiA0LjQ5MiAwIDAgMSAzLjE3Ny0xLjNjMS4yIDAgMi4zMjkuNDYyIDMuMTc3IDEuMzAxYTQuNDA2IDQuNDA2IDAgMCAxIDAgNi4yNzdaTTE2LjI1NCAzMC4yOGEyLjQ5IDIuNDkgMCAwIDAtMS43NjItLjcyMWMtLjY2NyAwLTEuMjkzLjI1Ni0xLjc2NS43MmEyLjQ0NyAyLjQ0NyAwIDAgMCAwIDMuNDg2Yy45NDIuOTI5IDIuNTg2LjkzIDMuNTI3IDBhMi40NDcgMi40NDcgMCAwIDAgMC0zLjQ4NVptMS40MTQgNC44ODFhNC40ODggNC40ODggMCAwIDEtMy4xNzYgMS4zIDQuNDkgNC40OSAwIDAgMS0zLjE3OC0xLjMgNC40MDcgNC40MDcgMCAwIDEgMC02LjI3OCA0LjQ5IDQuNDkgMCAwIDEgMy4xNzgtMS4zYzEuMiAwIDIuMzI4LjQ2MiAzLjE3NiAxLjNhNC40MDcgNC40MDcgMCAwIDEgMCA2LjI3OFptMjUuNzYzIDguMTc1Yy02LjMyOSA2LjI1My0xNi42MjcgNi4yNTMtMjIuOTU2IDAtMS42MzQtMS42MTQtMi42NTEtMy4yNzUtMy41MTMtNS43MzJsLTEuODkuNjQ3Yy45NjggMi43NjIgMi4xMjUgNC42NCAzLjk5IDYuNDgxQzIyLjYxNiA0OC4yNDUgMjcuMjg0IDUwIDMxLjk1MiA1MGM0LjY3IDAgOS4zMzgtMS43NTUgMTIuODkyLTUuMjY4IDEuOTg5LTEuOTY0IDMuMjItMy45MDQgNC4xMTEtNi40ODVsLTEuODkxLS42NGMtLjc4OCAyLjI3OS0xLjg3NCAzLjk5MS0zLjYzMyA1LjcyOVpNMTYuOTYgMjYuMzk5bC0xLjg4Ny0uNjQ5Yy45Ni0yLjcyOCAyLjE1My00LjY2NyAzLjk5My02LjQ4NCA3LjEwNS03LjAyMSAxOC42NjctNy4wMjEgMjUuNzcyIDAgMS45NDMgMS45MTkgMy4yMTEgMy45MTkgNC4xMTQgNi40ODRsLTEuODg3LjY0OWMtLjgxLTIuMy0xLjg5OS00LjAxNi0zLjY0LTUuNzM3LTYuMzI3LTYuMjUtMTYuNjItNi4yNS0yMi45NDYgMC0xLjYzMyAxLjYxNC0yLjY1MyAzLjI3Ny0zLjUxOSA1LjczN1oiLz48L2c+PC9zdmc+PC9nPjwvc3ZnPg==;direction=east;" parent="1" vertex="1">
          <mxGeometry x="621.3673395510033" y="808.8673395510033" width="69.76532089799343" height="69.76532089799343" as="geometry" />
        </mxCell>
        <mxCell id="0d48b839-14fb-4a5a-9386-56fa81948ff0" value="" style="shape=image;imageAspect=0;aspect=fixed;image=data:image/svg+xml,PHN2ZyB4bWxucz0iaHR0cDovL3d3dy53My5vcmcvMjAwMC9zdmciIHdpZHRoPSI3OCIgaGVpZ2h0PSI3OCIgc3R5bGU9ImZpbGw6IG51bGw7Ij48Y2lyY2xlIGN4PSIzOSIgY3k9IjM5IiByPSIzOSIgc3R5bGU9ImZpbGw6IHJnYmEoMCwgMCwgMCwgMCk7Ii8+PGcgdHJhbnNmb3JtPSJ0cmFuc2xhdGUoNyw3KSI+PHN2ZyB4bWxucz0iaHR0cDovL3d3dy53My5vcmcvMjAwMC9zdmciIHdpZHRoPSI2NCIgaGVpZ2h0PSI2NCIgdmlld0JveD0iMCAwIDY0IDY0Ij48ZGVmcz48bGluZWFyR3JhZGllbnQgaWQ9IkF1cm9yYV9zdmdfX2EiIHgxPSIwJSIgeDI9IjEwMCUiIHkxPSIxMDAlIiB5Mj0iMCUiPjxzdG9wIG9mZnNldD0iMCUiIHN0b3AtY29sb3I9IiMyRTI3QUQiLz48c3RvcCBvZmZzZXQ9IjEwMCUiIHN0b3AtY29sb3I9IiM1MjdGRkYiLz48L2xpbmVhckdyYWRpZW50PjwvZGVmcz48ZyBmaWxsPSJub25lIiBmaWxsLXJ1bGU9ImV2ZW5vZGQiPjxnIGZpbGw9InVybCgjQXVyb3JhX3N2Z19fYSkiPjxwYXRoIGQ9Ik0wIDBoNjR2NjRIMHoiLz48L2c+PHBhdGggZmlsbD0iI0ZGRiIgZD0iTTM2LjIxMyAxNi4wMTFoLTIuMDE2di0yLjAwNWgyLjAxNlYxMmgyLjAxN3YyLjAwNmgyLjAxNnYyLjAwNUgzOC4yM3YyLjAwNmgtMi4wMTd2LTIuMDA2Wm05LjA3NCA4LjAyM2gtMi4wMTZ2LTIuMDA2aDIuMDE2di0yLjAwNWgyLjAxNnYyLjAwNWgyLjAxN3YyLjAwNmgtMi4wMTd2Mi4wMDZoLTIuMDE2di0yLjAwNlptLTMuNDM0IDIyLjY0Yy0xLjQ5NS0zLjI5Mi00LjQ4Mi02LjI2My03Ljc5Mi03Ljc1IDMuMzEtMS40ODcgNi4yOTctNC40NTkgNy43OTItNy43NSAxLjQ5NCAzLjI5MSA0LjQ4MiA2LjI2MyA3Ljc5MSA3Ljc1LTMuMzEgMS40ODctNi4yOTcgNC40NTgtNy43OSA3Ljc1Wm0xMi4xMzktOC43NTNjLTUuMjAyIDAtMTEuMTMtNS44OTgtMTEuMTMtMTEuMDcxIDAtLjU1NS0uNDUyLTEuMDAzLTEuMDA5LTEuMDAzLS41NTcgMC0xLjAwOC40NDgtMS4wMDggMS4wMDMgMCA1LjE3My01LjkzIDExLjA3MS0xMS4xMyAxMS4wNzEtLjU1OCAwLTEuMDA5LjQ0OC0xLjAwOSAxLjAwMyAwIC41NTQuNDUgMS4wMDMgMS4wMDggMS4wMDMgNS4yMDIgMCAxMS4xMyA1Ljg5OCAxMS4xMyAxMS4wNyAwIC41NTQuNDUyIDEuMDAzIDEuMDEgMS4wMDMuNTU2IDAgMS4wMDctLjQ1IDEuMDA3LTEuMDAzIDAtNS4xNzIgNS45My0xMS4wNyAxMS4xMy0xMS4wNy41NTggMCAxLjAwOS0uNDUgMS4wMDktMS4wMDMgMC0uNTU1LS40NS0xLjAwMy0xLjAwOC0xLjAwM1ptLTMxLjM5LTE5LjkwNGM2Ljg1IDAgMTAuNTg3IDEuOTg4IDEwLjU4NyAzLjAwOCAwIDEuMDIxLTMuNzM3IDMuMDA5LTEwLjU4NiAzLjAwOS02Ljg1IDAtMTAuNTg3LTEuOTg4LTEwLjU4Ny0zLjAwOSAwLTEuMDIgMy43MzctMy4wMDggMTAuNTg3LTMuMDA4Wm0tLjM1IDE1LjE1Yy01LjAxMiAwLTguNjItMS4wNjMtMTAuMjM2LTIuMTl2LTcuMTEzYzIuMzY3IDEuNDMzIDYuNDg3IDIuMTc2IDEwLjU4NyAyLjE3NiA0LjA5OSAwIDguMjItLjc0MyAxMC41ODYtMi4xNzZ2Ni40ODRjLTEuMDE2IDEuNDA2LTUuMjQ3IDIuODE5LTEwLjkzNiAyLjgxOVpNMzMuMTkgNDUuOTc1YzAgMS40MzUtNC4xMjYgMy41Mi0xMC41OSAzLjUyLTYuNDYgMC0xMC41ODMtMi4wODUtMTAuNTgzLTMuNTJ2LTQuNDA3YzIuMjU4IDEuMzU0IDYuMDE0IDIuMTkyIDEwLjI3NiAyLjE5MiAyLjk0MiAwIDUuNzg2LS40MTMgOC4wMS0xLjE2NmwtLjY1MS0xLjg5OGMtMi4wMTkuNjgyLTQuNjMzIDEuMDU4LTcuMzU5IDEuMDU4LTUuMzkgMC05LjI1Mi0xLjQwMi0xMC4yNzYtMi43NnYtNS43MDdjMi40MTEgMS4xNzYgNi4xMTMgMS44ODUgMTAuMjM3IDEuODg1IDMuOTIgMCA4LjM0LS43MjUgMTAuOTM2LTIuMjY5djIuMTYyaDIuMDE2di0xNC4wNGMwLTMuMjkyLTYuMzQtNS4wMTQtMTIuNjAyLTUuMDE0QzE2LjM0IDE2LjAxMSAxMCAxNy43MzMgMTAgMjEuMDI1djI0Ljk1YzAgMy41OSA2LjQ5IDUuNTI2IDEyLjU5OCA1LjUyNiA2LjExMiAwIDEyLjYwNy0xLjkzNyAxMi42MDctNS41MjZ2LTIuODg3aC0yLjAxNnYyLjg4N1oiLz48L2c+PC9zdmc+PC9nPjwvc3ZnPg==;direction=east;" parent="1" vertex="1">
          <mxGeometry x="171.36733955100328" y="358.8673395510033" width="69.76532089799343" height="69.76532089799343" as="geometry" />
        </mxCell>
        <mxCell id="82e5fa73-27a4-494d-80f5-fc52cc6a56b0" value="" style="shape=image;imageAspect=0;aspect=fixed;image=data:image/svg+xml,PHN2ZyB4bWxucz0iaHR0cDovL3d3dy53My5vcmcvMjAwMC9zdmciIHdpZHRoPSI2MiIgaGVpZ2h0PSI2MiIgc3R5bGU9ImZpbGw6IG51bGw7Ij48Y2lyY2xlIGN4PSIzMSIgY3k9IjMxIiByPSIzMSIgc3R5bGU9ImZpbGw6IHJnYmEoMCwgMCwgMCwgMCk7Ii8+PGcgdHJhbnNmb3JtPSJ0cmFuc2xhdGUoNyw3KSI+PHN2ZyB4bWxucz0iaHR0cDovL3d3dy53My5vcmcvMjAwMC9zdmciIHdpZHRoPSI0OCIgaGVpZ2h0PSI0OCIgdmlld0JveD0iMCAwIDQ4IDQ4Ij48ZyBmaWxsPSJub25lIiBmaWxsLXJ1bGU9ImV2ZW5vZGQiPjxwYXRoIGZpbGw9IiMyRTI3QUQiIGQ9Ik0zNy4wMDYgMzIuMDgyYy00LjU5MSAwLTYuOTU4LTEuNDczLTYuOTU4LTIuMTAxdi0zLjUzYzEuNzI5Ljk0MyA0LjM1IDEuNDMgNi45NTggMS40MyAyLjYwOSAwIDUuMjI5LS40ODcgNi45NTgtMS40M3YzLjUzYzAgLjYyOC0yLjM2NyAyLjEwMS02Ljk1OCAyLjEwMVptMCA2LjA5MmMtNC41OTEgMC02Ljk1OC0xLjQ3My02Ljk1OC0yLjEwMXYtMy40MjFjMS43MjkuOTQzIDQuMzUgMS40MyA2Ljk1OCAxLjQzIDIuNjA5IDAgNS4yMjktLjQ4NyA2Ljk1OC0xLjQzdjMuNDIxYzAgLjYyOC0yLjM2NyAyLjEwMS02Ljk1OCAyLjEwMVptMCA1LjQzOWMtNC41OTEgMC02Ljk1OC0xLjQ3Mi02Ljk1OC0yLjF2LTIuNzY5YzEuNzI5Ljk0MiA0LjM1IDEuNDMgNi45NTggMS40MyAyLjYwOSAwIDUuMjI5LS40ODggNi45NTgtMS40M3YyLjc2OWMwIC42MjgtMi4zNjcgMi4xLTYuOTU4IDIuMVptMC0yMS45MzNjNC41OSAwIDYuOTU4IDEuNDcyIDYuOTU4IDIuMSAwIC42MjgtMi4zNjcgMi4xMDEtNi45NTggMi4xMDFzLTYuOTU4LTEuNDczLTYuOTU4LTIuMTAxYzAtLjYyOCAyLjM2Ny0yLjEgNi45NTgtMi4xWm0wLTJjLTQuNDUxIDAtOC45NTggMS40MDgtOC45NTggNC4xdjE3LjczM2MwIDIuNjkyIDQuNTA3IDQuMSA4Ljk1OCA0LjEgNC40NSAwIDguOTU4LTEuNDA4IDguOTU4LTQuMVYyMy43OGMwLTIuNjkyLTQuNTA3LTQuMS04Ljk1OC00LjFaTTcuNzUgNDMuODUzaDE5LjY2NHYySDcuNzVBNS43NTYgNS43NTYgMCAwIDEgMiA0MC4xMDNWNy43NTFBNS43NTcgNS43NTcgMCAwIDEgNy43NSAyaDMyLjM1NGMzLjE3IDAgNS43NSAyLjU4IDUuNzUgNS43NTF2MTIuNjg4aC0yVjcuNzUxQTMuNzU1IDMuNzU1IDAgMCAwIDQwLjEwNCA0SDcuNzVBMy43NTUgMy43NTUgMCAwIDAgNCA3Ljc1MXYzMi4zNTJhMy43NTUgMy43NTUgMCAwIDAgMy43NSAzLjc1Wk00MC42MjkgNy44MDV2NS4zMzZoMi4xOTd2LjcwN2gtMy4wNDNWNy44MDVoLjg0NlptLTQuMyA1LjQ1OGMtLjQ3IDAtLjgyNC0uMjA0LTEuMDYyLS42MTUtLjI0LS40MS0uMzU4LTEuMDE1LS4zNTgtMS44MTggMC0uODAyLjExOS0xLjQwNi4zNTgtMS44MTMuMjM4LS40MDcuNTkzLS42MTEgMS4wNjMtLjYxMXMuODI1LjIwNCAxLjA2NS42MTFjLjIzNy40MDcuMzU2IDEuMDExLjM1NiAxLjgxMyAwIC44MDMtLjEyIDEuNDA4LS4zNTYgMS44MTgtLjI0LjQxMS0uNTk0LjYxNS0xLjA2NS42MTVabTEuODY3LS40MDZjLjI3OS0uNTI2LjQxOC0xLjIwMS40MTgtMi4wMjcgMC0uOTk0LS4yLTEuNzY2LS42MDEtMi4zMTUtLjQwMS0uNTQ5LS45NjItLjgyNC0xLjY4My0uODI0LS43MiAwLTEuMjgxLjI3NS0xLjY4Mi44MjQtLjQwMi41NDktLjYwMiAxLjMyMS0uNjAyIDIuMzE1IDAgLjYzNC4wODMgMS4xODMuMjQ4IDEuNjQ4LjE2Ni40NjUuNDEuODI2LjczNyAxLjA4Mi4zMjYuMjU1LjcxOC4zOTQgMS4xNzcuNDE4LjMzMi4zNjEuNjk0LjY0OCAxLjA5Ljg2NGEzLjU4IDMuNTggMCAwIDAgMS4yNTYuNDA5di0uNzQxYTMuMjUgMy4yNSAwIDAgMS0uODI4LS4yYy0uMjUtLjEtLjQ5MS0uMjQyLS43MjQtLjQyOC41MTctLjE1Ny45MTUtLjQ5OCAxLjE5NC0xLjAyNVptLTYuMS4xMzZjLjE3OS0uMTc1LjI2Ny0uNDE2LjI2Ny0uNzI0IDAtLjQxOC0uMjMyLS43NDctLjY5Ny0uOTg1bC0uNjItLjMxNGMtLjM5LS4xOTgtLjY3MS0uNDI0LS44NDYtLjY4LS4xNzMtLjI1Ni0uMjYxLS41Ny0uMjYxLS45NDIgMC0uNDk0LjE1NC0uODk0LjQ2My0xLjE5OS4zMDctLjMwNS43MS0uNDU4IDEuMjEtLjQ1OC4zOSAwIC44MjcuMTA1IDEuMzA5LjMxNHYuNjgxYTIuOTYgMi45NiAwIDAgMC0xLjI0Ny0uMjcxYy0uMjczIDAtLjQ5LjA4LS42NS4yMzktLjE2LjE2LS4yNC4zNzctLjI0LjY1MSAwIC4yMTUuMDU2LjM5Ny4xNjYuNTQ4LjExLjE1Mi4yOTQuMjk0LjU1LjQyOGwuNjE4LjMxNGMuMzc5LjE5Mi42NTcuNDE5LjgzMy42NzkuMTc4LjI2My4yNjcuNTc3LjI2Ny45NDMgMCAuNTI5LS4xNjYuOTU1LS40OTcgMS4yNzctLjMzMi4zMjItLjc3NC40ODQtMS4zMjUuNDg0YTMuMjYgMy4yNiAwIDAgMS0uNzczLS4wOTEgMi4xMjkgMi4xMjkgMCAwIDEtLjY0LS4yNjZ2LS42NzJjLjQ3Ni4yMDQuOTM4LjMwNSAxLjM4Ni4zMDUuMzA4IDAgLjU1LS4wODcuNzI4LS4yNjFabS01LjAyMi0yLjcyNWEuNzA5LjcwOSAwIDAgMSAuNjI0LS4zMzZjLjIzOSAwIC40MTUuMDg4LjUzMi4yNjYuMTE2LjE3OC4xNzQuNDUyLjE3NC44MjMgMCAuMDQxLS4wMDIuMDgyLS4wMDQuMTI0YTEuNTEgMS41MSAwIDAgMC0uMDA0LjExM2gtMS41N2MuMDE4LS40MzcuMS0uNzY2LjI0OC0uOTlabTEuOTc2IDIuNzU5Yy0uNDAxLjE4MS0uNzY4LjI3MS0xLjEuMjcxLS4zODggMC0uNjczLS4xMTYtLjg1LS4zNDktLjE3Ny0uMjMyLS4yNjgtLjYxLS4yNzQtMS4xMzRoMi4yMzNjLjA0Ni0uMjIuMDY5LS40NjIuMDY5LS43MjMgMC0uNTg3LS4xMTgtMS4wMzEtLjM1My0xLjMzNC0uMjM2LS4zMDItLjU4My0uNDUzLTEuMDQyLS40NTMtLjU0IDAtLjk1Ni4yLTEuMjQ3LjYwMS0uMjkxLjQwMS0uNDM2Ljk3Ny0uNDM2IDEuNzI3IDAgLjc4NC4xNDUgMS4zNjguNDM2IDEuNzUzLjI5LjM4My43MzIuNTc1IDEuMzI2LjU3NS40NyAwIC44ODItLjExIDEuMjM4LS4zMzJ2LS42MDJabS00LjI1MS0zLjUwMWMuMTctLjA5LjM2Ny0uMTM0LjU4OC0uMTM0LjA5NCAwIC4xODYuMDA4LjI3OS4wMjZ2Ljc1OWEyLjgwNiAyLjgwNiAwIDAgMC0uMzkyLS4wMzVjLS4zMzEgMC0uNjMzLjEwNy0uOTA3LjMyMnYzLjM4NGgtLjgyVjkuNDI3aC42OGwuMDc5LjUzMWMuMTU3LS4xOTcuMzItLjM0MS40OTMtLjQzMlptLTMuOTkgMy41NjNhLjY4OC42ODggMCAwIDEtLjY0NC0uMzhjLS4xNC0uMjUzLS4yMS0uNjQxLS4yMS0xLjE2NCAwLS41MzQuMDY2LS45MjkuMTk3LTEuMTgyYS42NDcuNjQ3IDAgMCAxIC42MTUtLjM3OWMuMjYgMCAuNTI4LjEwNS44LjMxNXYyLjQ1OGMtLjI2Ni4yMjEtLjUyLjMzMi0uNzU3LjMzMlptLjUzMyAxLjY0N2MtLjE1MS4yMjItLjQwNy4zMzEtLjc2OC4zMzEtLjMzMSAwLS43MTQtLjA4OS0xLjE1LS4yNjl2LjYyOGMuMzcyLjIxNS43NzguMzIyIDEuMjIuMzIyIDEuMTU3IDAgMS43MzYtLjcxOCAxLjczNi0yLjE1M1Y5LjQyN2gtLjY4MWwtLjA2LjM1N2MtLjMzOC0uMzE0LS42OS0uNDcxLTEuMDU2LS40NzEtLjQ0MSAwLS43OTMuMjA0LTEuMDU1LjYxMS0uMjYxLjQwNi0uMzkyLjk1Ni0uMzkyIDEuNjQ3IDAgLjQzNy4wNTcuODE5LjE3IDEuMTQ3LjExMy4zMjguMjc3LjU4NS40OTMuNzY3LjIxNS4xODMuNDcuMjc1Ljc2Ny4yNzUuMzQ4IDAgLjY4My0uMTQ4IDEuMDAyLS40NDV2LjMyM2MwIC41MTEtLjA3Ni44NzgtLjIyNiAxLjA5OFptLTQuNjQ4LTIuMDQ5di0yLjU5OGgtLjYydi0uNTRsLjY1Ni0uMTA1LjEyLTEuMjU2aC42NjR2MS4yMzloMS4wMTJ2LjY2MmgtMS4wMTJ2Mi41MzhjMCAuMjIxLjAzNi4zNzYuMTA5LjQ2Ni4wNzIuMDkuMjAyLjEzNS4zODguMTM1LjE4IDAgLjM1Ny0uMDI5LjUzMi0uMDg3di42MDFjLS4yNS4xMDYtLjUxNS4xNTctLjc5NC4xNTctLjM2IDAtLjYyNi0uMDk4LS43OTgtLjI5Ni0uMTcxLS4xOTgtLjI1Ny0uNTAyLS4yNTctLjkxNlptLTEuODM0LjQ1OGMuMTE4LS4xMTMuMTc4LS4yNzUuMTc4LS40ODQgMC0uMjUtLjE2LS40NTMtLjQ4LS42MWwtLjU2Ny0uMjc5Yy0uNTIzLS4yNTUtLjc4NC0uNjU3LS43ODQtMS4yMDMgMC0uMzcyLjEyMi0uNjc0LjM2NS0uOTA3LjI0NS0uMjMyLjU2Mi0uMzQ5Ljk1Mi0uMzQ5LjM2NiAwIC43MTcuMDkzIDEuMDU0LjI4di41OTJhMi4yODQgMi4yODQgMCAwIDAtLjk4NS0uMjI3Yy0uMTk3IDAtLjM1NS4wNTMtLjQ3MS4xNTdhLjU0Ny41NDcgMCAwIDAtLjE3NC40MjhjMCAuMTQ1LjAzOS4yNjcuMTE4LjM2Ni4wNzguMDk5LjIxLjE5NC4zOTYuMjg3bC41MzIuMjYyYy4yNzQuMTM0LjQ3Mi4yOTQuNTk3LjQ3OS4xMjYuMTg3LjE4Ny40MTYuMTg3LjY5IDAgLjQtLjEyNC43MjQtLjM3NC45NjhzLS41ODUuMzY2LTEuMDAyLjM2NmMtLjQ1IDAtLjg1NS0uMTA4LTEuMjIxLS4zMjN2LS41OTNjLjQ1My4xODEuODQ2LjI3IDEuMTc3LjI3LjIxNCAwIC4zOC0uMDU2LjUwMi0uMTdabS0zLjM4LS4yNTJhLjcxNy43MTcgMCAwIDEtLjY3MS40MDUuNzEzLjcxMyAwIDAgMS0uNjcxLS40MDVjLS4xNDYtLjI3MS0uMjItLjY5MS0uMjItMS4yNiAwLS41NzEuMDc0LS45ODguMjItMS4yNTZhLjcxMy43MTMgMCAwIDEgLjY3LS40MDFjLjMwMyAwIC41MjcuMTMzLjY3My40MDEuMTQ0LjI2OC4yMTcuNjg1LjIxNyAxLjI1NiAwIC41NjktLjA3My45ODktLjIxNyAxLjI2Wm0tLjY3MS0zLjU4Yy0uNTUyIDAtLjk3NS4yMDEtMS4yNy42MDItLjI5Mi40MDEtLjQ0Ljk3NC0uNDQgMS43MTggMCAuNzQ5LjE0OCAxLjMyNS40NCAxLjcyNS4yOTUuNDAyLjcxOC42MDMgMS4yNy42MDNzLjk3NS0uMjAxIDEuMjY4LS42MDNjLjI5NC0uNC40NC0uOTc2LjQ0LTEuNzI1IDAtLjc0NC0uMTQ2LTEuMzE3LS40NC0xLjcxOC0uMjkzLS40MDEtLjcxNi0uNjAyLTEuMjY4LS42MDJabS0zLjQ1NyAxLjIwNGEuNzUzLjc1MyAwIDAgMS0uNjQxLjMxM2gtLjg2M1Y4LjQ3NmguODYzYy4yNzMgMCAuNDg2LjEwMy42NC4zMDkuMTU1LjIwNy4yMzIuNDk2LjIzMi44NjggMCAuMzY3LS4wNzcuNjU0LS4yMzEuODY0Wm0uMzA1LTIuNDc3YTEuNTc5IDEuNTc5IDAgMCAwLS44Ni0uMjM1aC0xLjc3djYuMDQzaC44MnYtMi4zNDZoLjk1Yy40ODMgMCAuODc0LS4xNjkgMS4xNzQtLjUwNi4yOTktLjMzNy40NDktLjc4NS40NDktMS4zNDMgMC0uMzYtLjA2NS0uNjc5LS4xOTYtLjk1OWExLjUyMiAxLjUyMiAwIDAgMC0uNTY3LS42NTRaIi8+PC9nPjwvc3ZnPjwvZz48L3N2Zz4=;direction=east;" parent="1" vertex="1">
          <mxGeometry x="162.92618293594157" y="256.6761829359416" width="86.64763412811685" height="86.64763412811685" as="geometry" />
        </mxCell>
        <mxCell id="3e924eef-a7ad-4160-9776-5583db7a7eab" value="" style="shape=image;imageAspect=0;aspect=fixed;image=data:image/svg+xml,PHN2ZyB4bWxucz0iaHR0cDovL3d3dy53My5vcmcvMjAwMC9zdmciIHdpZHRoPSI3OCIgaGVpZ2h0PSI3OCIgc3R5bGU9ImZpbGw6IG51bGw7Ij48Y2lyY2xlIGN4PSIzOSIgY3k9IjM5IiByPSIzOSIgc3R5bGU9ImZpbGw6IHJnYmEoMCwgMCwgMCwgMCk7Ii8+PGcgdHJhbnNmb3JtPSJ0cmFuc2xhdGUoNyw3KSI+PHN2ZyB4bWxucz0iaHR0cDovL3d3dy53My5vcmcvMjAwMC9zdmciIHdpZHRoPSI2NCIgaGVpZ2h0PSI2NCIgdmlld0JveD0iMCAwIDY0IDY0Ij48ZGVmcz48bGluZWFyR3JhZGllbnQgaWQ9IkVNUl9zdmdfX2EiIHgxPSIwJSIgeDI9IjEwMCUiIHkxPSIxMDAlIiB5Mj0iMCUiPjxzdG9wIG9mZnNldD0iMCUiIHN0b3AtY29sb3I9IiM0RDI3QTgiLz48c3RvcCBvZmZzZXQ9IjEwMCUiIHN0b3AtY29sb3I9IiNBMTY2RkYiLz48L2xpbmVhckdyYWRpZW50PjwvZGVmcz48ZyBmaWxsPSJub25lIiBmaWxsLXJ1bGU9ImV2ZW5vZGQiPjxnIGZpbGw9InVybCgjRU1SX3N2Z19fYSkiPjxwYXRoIGQ9Ik0wIDBoNjR2NjRIMHoiLz48L2c+PHBhdGggZmlsbD0iI0ZGRiIgZD0iTTUwLjE1MiAzOC4xNGMtMS4wOTctMS4xMDYtMy4wMS0xLjEwNy00LjEwNyAwYTIuOTQ5IDIuOTQ5IDAgMCAwIDAgNC4xNGMxLjA5OCAxLjEwNyAzLjAxIDEuMTA2IDQuMTA3IDBhMi45NDkgMi45NDkgMCAwIDAgMC00LjE0Wm0tOC44MDctLjYwMSAyLjI1Ni43MThjLjIxLS40ODkuNTA2LS45NDQuODc4LTEuMzU4bC0xLjM5My0yLjY3NS0xLjc0IDMuMzE1Wm0tMi44ODkgMS4xOTQtOC4zNDgtMi42NThhMTAuMTA1IDEwLjEwNSAwIDAgMS0yLjY3OSAzLjU3bDMuNzAyIDUuMTgxYTQuODMgNC44MyAwIDAgMSAyLjUxLS43MTUgNC44NiA0Ljg2IDAgMCAxIDEuODA2LjM1MmwzLjAwOS01LjczWm0tMi43NjEgOC4yNTNhMi44NzcgMi44NzcgMCAwIDAtMi4wNTQtLjg1OCAyLjg3IDIuODcgMCAwIDAtMi4wNTQuODU4IDIuOTQ5IDIuOTQ5IDAgMCAwIDAgNC4xNGMxLjA5OCAxLjEwNyAzLjAxIDEuMTA4IDQuMTA4IDBhMi45NDkgMi45NDkgMCAwIDAgMC00LjE0Wk0yMSA0MGM0LjQxMSAwIDgtMy42MTkgOC04LjA2NiAwLTQuNDQ4LTMuNTg5LTguMDY2LTgtOC4wNjYtNC40MTMgMC04IDMuNjE4LTggOC4wNjZDMTMgMzYuMzgyIDE2LjU4NyA0MCAyMSA0MFptNi40MzgtMTUuNzdjMS4xMy45NjIgMi4wNCAyLjE3IDIuNjYgMy41NGw4LjI4MS0yLjU3Ny0yLjk0OC01LjY1NWE0Ljg2IDQuODYgMCAwIDEtMS43OTEuMzQ3Yy0uOTA3IDAtMS43Ny0uMjYtMi41MjYtLjcyM2wtMy42NzYgNS4wNjlabTQuMTQ4LTcuMjJjMS4wOTggMS4xMDggMy4wMSAxLjEwOCA0LjEwOCAwYTIuOTQ5IDIuOTQ5IDAgMCAwIDAtNC4xNCAyLjg5IDIuODkgMCAwIDAtNC4xMDggMCAyLjk0OSAyLjk0OSAwIDAgMCAwIDQuMTRabS0uNTg2IDE0LjkyNGMwIC43NjYtLjA5MyAxLjUxLS4yNTQgMi4yMjhsOC42NiAyLjc1OSAyLjU1Mi00Ljg2LTIuNjMzLTUuMDUyLTguNTg2IDIuNjcyYy4xNjUuNzI2LjI2MSAxLjQ3Ny4yNjEgMi4yNTNabTEwLjI3LTUuNTMgMS44MjEgMy40OTYgMS43NDQtMy4zMjFjLS4wNjctLjA2LS4xNDItLjEwNS0uMjA2LS4xN2E0LjkwNSA0LjkwNSAwIDAgMS0uNjY0LS44NDVsLTIuNjk2Ljg0Wm00Ljc3NC0xLjQyMWEyLjg5MiAyLjg5MiAwIDAgMCA0LjEwNyAwIDIuOTUgMi45NSAwIDAgMCAwLTQuMTQyIDIuODkgMi44OSAwIDAgMC00LjEwNy4wMDEgMi45NDkgMi45NDkgMCAwIDAgMCA0LjE0MVptNS41MiAxMS43M2E0Ljk3OCA0Ljk3OCAwIDAgMSAwIDYuOTkyIDQuODUzIDQuODUzIDAgMCAxLTMuNDY3IDEuNDQ5IDQuODU0IDQuODU0IDAgMCAxLTMuNDY4LTEuNDUgNC45NCA0Ljk0IDAgMCAxLTEuNDMtMy40NjFsLTIuODA2LS44OTQtMy4yNyA2LjIzYzEuODk1IDEuOTI4IDEuODkxIDUuMDUtLjAxNSA2Ljk3MkE0Ljg1NSA0Ljg1NSAwIDAgMSAzMy42NCA1NGE0Ljg1MyA0Ljg1MyAwIDAgMS0zLjQ2OS0xLjQ0OGMtMS43MTMtMS43MjctMS44NzgtNC40MTktLjUyLTYuMzQ4bC0zLjg3Mi01LjQxNmE5Ljg4IDkuODggMCAwIDEtNC43OCAxLjIzYy01LjUxNCAwLTEwLTQuNTI0LTEwLTEwLjA4MyAwLTUuNTYgNC40ODYtMTAuMDgzIDEwLTEwLjA4MyAxLjczNSAwIDMuMzY3LjQ1IDQuNzkxIDEuMjM2bDMuODQ4LTUuMzA4Yy0xLjM0NS0xLjkyOS0xLjE3Ni00LjYxMS41MzMtNi4zMzVhNC44ODQgNC44ODQgMCAwIDEgNi45MzcgMCA0Ljk4IDQuOTggMCAwIDEgLjAwNiA2Ljk4NmwzLjIxIDYuMTU4IDIuOTQyLS45MTdjLS4yMy0xLjUwNi4yMTUtMy4wOTggMS4zNjMtNC4yNTVhNC44ODIgNC44ODIgMCAwIDEgNi45MzYgMCA0Ljk4IDQuOTggMCAwIDEgMCA2Ljk5MyA0Ljg3MyA0Ljg3MyAwIDAgMS0zLjQ2OCAxLjQ0NCA0Ljg3IDQuODcgMCAwIDEtMS41MjctLjI2NmwtMi4zNTIgNC40NzcgMS44OTUgMy42MzNhNC44MzUgNC44MzUgMCAwIDEgNS40NTIgMS4wMTZabS0yOS41NjQtNS43ODdoM3YyLjAxNmgtM3YzLjAyNWgtMnYtMy4wMjVoLTN2LTIuMDE2aDN2LTMuMDI1aDJ2My4wMjVaIi8+PC9nPjwvc3ZnPjwvZz48L3N2Zz4=;direction=east;" parent="1" vertex="1">
          <mxGeometry x="358.8673395510033" y="58.86733955100328" width="69.76532089799343" height="69.76532089799343" as="geometry" />
        </mxCell>
        <mxCell id="2d97ce8f-4521-427d-9c42-7faa94e33578" value="" style="shape=image;imageAspect=0;aspect=fixed;image=data:image/svg+xml,PHN2ZyB4bWxucz0iaHR0cDovL3d3dy53My5vcmcvMjAwMC9zdmciIHdpZHRoPSI3OCIgaGVpZ2h0PSI3OCIgc3R5bGU9ImZpbGw6IG51bGw7Ij48Y2lyY2xlIGN4PSIzOSIgY3k9IjM5IiByPSIzOSIgc3R5bGU9ImZpbGw6IHJnYmEoMCwgMCwgMCwgMCk7Ii8+PGcgdHJhbnNmb3JtPSJ0cmFuc2xhdGUoNyw3KSI+PHN2ZyB4bWxucz0iaHR0cDovL3d3dy53My5vcmcvMjAwMC9zdmciIHdpZHRoPSI2NCIgaGVpZ2h0PSI2NCIgdmlld0JveD0iMCAwIDY0IDY0Ij48ZGVmcz48bGluZWFyR3JhZGllbnQgaWQ9IlF1aWNrU2lnaHRfc3ZnX19hIiB4MT0iMCUiIHgyPSIxMDAlIiB5MT0iMTAwJSIgeTI9IjAlIj48c3RvcCBvZmZzZXQ9IjAlIiBzdG9wLWNvbG9yPSIjNEQyN0E4Ii8+PHN0b3Agb2Zmc2V0PSIxMDAlIiBzdG9wLWNvbG9yPSIjQTE2NkZGIi8+PC9saW5lYXJHcmFkaWVudD48L2RlZnM+PGcgZmlsbD0ibm9uZSIgZmlsbC1ydWxlPSJldmVub2RkIj48ZyBmaWxsPSJ1cmwoI1F1aWNrU2lnaHRfc3ZnX19hKSI+PHBhdGggZD0iTTAgMGg2NHY2NEgweiIvPjwvZz48cGF0aCBmaWxsPSIjRkZGIiBkPSJNNTIgMjFjMC0xLjEwMy0uODk3LTItMi0ycy0yIC44OTctMiAyIC44OTcgMiAyIDIgMi0uODk3IDItMlpNMzQgNDBjMC0xLjEwMy0uODk3LTItMi0ycy0yIC44OTctMiAyIC44OTcgMiAyIDIgMi0uODk3IDItMlptLTE4IDJjMC0xLjEwMy0uODk3LTItMi0ycy0yIC44OTctMiAyIC44OTcgMiAyIDIgMi0uODk3IDItMlptMTQtMTZjMCAxLjEwMy44OTcgMiAyIDJzMi0uODk3IDItMi0uODk3LTItMi0yLTIgLjg5Ny0yIDJabTI0LTVjMCAyLjIwNi0xLjc5NCA0LTQgNGEzLjk0NyAzLjk0NyAwIDAgMS0xLjk4Ni0uNTQ5TDM1LjQxNiAzNy45NDljLjM2Mi42MDIuNTg0IDEuMjk5LjU4NCAyLjA1MSAwIDIuMjA2LTEuNzk0IDQtNCA0cy00LTEuNzk0LTQtNGMwLTEuODU4IDEuMjc5LTMuNDExIDMtMy44NTh2LTYuMjg0YTMuOTM2IDMuOTM2IDAgMCAxLTEuMDktLjQ2M2wtMTIuNDI2IDEwLjY4Yy4zMTkuNTc0LjUxNiAxLjIyNC41MTYgMS45MjUgMCAyLjIwNi0xLjc5NCA0LTQgNHMtNC0xLjc5NC00LTQgMS43OTQtNCA0LTRjLjc3NyAwIDEuNDk4LjIzMiAyLjExMy42MThsMTIuNDE0LTEwLjY3MUEzLjk1MiAzLjk1MiAwIDAgMSAyOCAyNmMwLTIuMjA2IDEuNzk0LTQgNC00czQgMS43OTQgNCA0YzAgMS44NTgtMS4yNzkgMy40MTEtMyAzLjg1OHY2LjI4NGMuMzUxLjA5MS42OC4yMy45ODYuNDA3bDEyLjU5OC0xMy40OThBMy45NjcgMy45NjcgMCAwIDEgNDYgMjFjMC0yLjIwNiAxLjc5NC00IDQtNHM0IDEuNzk0IDQgNFptLTM5LTdoMzR2Mmgydi0zYTEgMSAwIDAgMC0xLTFIMTRhMSAxIDAgMCAwLTEgMXYyNGgyVjE0Wm0zNCAxMmgydjI1YTEgMSAwIDAgMS0xIDFIMTRhMSAxIDAgMCAxLTEtMXYtNGgydjNoMzRWMjZaIi8+PC9nPjwvc3ZnPjwvZz48L3N2Zz4=;direction=east;" parent="1" vertex="1">
          <mxGeometry x="733.8673395510033" y="58.86733955100328" width="69.76532089799343" height="69.76532089799343" as="geometry" />
        </mxCell>
        <mxCell id="a861ee2a-7a72-4ef2-aec4-b64f2548f49c" value="" style="shape=image;imageAspect=0;aspect=fixed;image=data:image/svg+xml,PHN2ZyB4bWxucz0iaHR0cDovL3d3dy53My5vcmcvMjAwMC9zdmciIHdpZHRoPSI3OCIgaGVpZ2h0PSI3OCIgc3R5bGU9ImZpbGw6IG51bGw7Ij48Y2lyY2xlIGN4PSIzOSIgY3k9IjM5IiByPSIzOSIgc3R5bGU9ImZpbGw6IHJnYmEoMCwgMCwgMCwgMCk7Ii8+PGcgdHJhbnNmb3JtPSJ0cmFuc2xhdGUoNyw3KSI+PHN2ZyB4bWxucz0iaHR0cDovL3d3dy53My5vcmcvMjAwMC9zdmciIHdpZHRoPSI2NCIgaGVpZ2h0PSI2NCIgdmlld0JveD0iMCAwIDY0IDY0Ij48ZGVmcz48bGluZWFyR3JhZGllbnQgaWQ9IkZhcmdhdGVfc3ZnX19hIiB4MT0iMCUiIHgyPSIxMDAlIiB5MT0iMTAwJSIgeTI9IjAlIj48c3RvcCBvZmZzZXQ9IjAlIiBzdG9wLWNvbG9yPSIjQzg1MTFCIi8+PHN0b3Agb2Zmc2V0PSIxMDAlIiBzdG9wLWNvbG9yPSIjRjkwIi8+PC9saW5lYXJHcmFkaWVudD48L2RlZnM+PGcgZmlsbD0ibm9uZSIgZmlsbC1ydWxlPSJldmVub2RkIj48ZyBmaWxsPSJ1cmwoI0ZhcmdhdGVfc3ZnX19hKSI+PHBhdGggZD0iTTAgMGg2NHY2NEgweiIvPjwvZz48cGF0aCBmaWxsPSIjRkZGIiBkPSJNNDIuNDY3IDQ2LjM4MnYtMy43NjRsMS45OTQtMXYzLjc2NGwtMS45OTQgMVptLTMuOTg3LTQuNzY0IDEuOTk0IDF2My43NjRsLTEuOTk0LTF2LTMuNzY0Wm0tNC45ODMgOS43NjR2LTMuNzY0bDEuOTkzLTF2My43NjRsLTEuOTkzIDFabS0zLjk4Ny00Ljc2NCAxLjk5MyAxdjMuNzY0bC0xLjk5My0xdi0zLjc2NFptLTQuOTg0LS4yMzZ2LTMuNzY0bDEuOTk0LTF2My43NjRsLTEuOTk0IDFabS0zLjk4Ny00Ljc2NCAxLjk5NCAxdjMuNzY0bC0xLjk5NC0xdi0zLjc2NFptMi45OS0yLjUgMS43NTkuODgyLTEuNzU4Ljg4MkwyMS43NyA0MGwxLjc1OS0uODgyWm04Ljk3MSA1IDEuNzU4Ljg4Mi0xLjc1OC44ODJMMzAuNzQyIDQ1bDEuNzU4LS44ODJabTguOTctNUw0My4yMyA0MGwtMS43NTkuODgyTDM5LjcxMiA0MGwxLjc1OC0uODgyWm00LjQzMy0uMDEyLTMuOTg3LTJhLjk5MS45OTEgMCAwIDAtLjg5MSAwbC0zLjk4NyAyYS45OTkuOTk5IDAgMCAwLS41NTEuODk0djMuODgybC0zLjU0MS0xLjc3NmEuOTkxLjk5MSAwIDAgMC0uODkyIDBsLTMuNTQgMS43NzZWNDBhLjk5OS45OTkgMCAwIDAtLjU1Mi0uODk0bC0zLjk4Ny0yYS45OTEuOTkxIDAgMCAwLS44OSAwbC0zLjk4OCAyYS45OTkuOTk5IDAgMCAwLS41NS44OTR2NmMwIC4zNzkuMjEyLjcyNS41NS44OTVsMy45ODcgMmEuOTk2Ljk5NiAwIDAgMCAuODkxIDBsMy41NDEtMS43NzdWNTFjMCAuMzc5LjIxNC43MjUuNTUyLjg5NWwzLjk4NiAyYS45OTYuOTk2IDAgMCAwIC44OTIgMGwzLjk4Ni0yYy4zMzgtLjE3LjU1Mi0uNTE2LjU1Mi0uODk1di0zLjg4MmwzLjU0IDEuNzc3YS45OTYuOTk2IDAgMCAwIC44OTIgMGwzLjk4Ny0yYy4zMzgtLjE3LjU1LS41MTYuNTUtLjg5NXYtNmEuOTk5Ljk5OSAwIDAgMC0uNTUtLjg5NFpNNTQgMjguMDljMCA1LjEwMy0xMS4wNzcgNy44NTYtMjEuNSA3Ljg1NlMxMSAzMy4xOTMgMTEgMjguMDljMC0yLjQ2MSAyLjY4LTQuNjE2IDcuNTQ3LTYuMDY3bC41NjggMS45MTdjLTMuNzc2IDEuMTI2LTYuMTIyIDIuNzE2LTYuMTIyIDQuMTUgMCAyLjc2NCA4LjM0MyA1Ljg1NiAxOS41MDcgNS44NTYgMTEuMTY0IDAgMTkuNTA3LTMuMDkyIDE5LjUwNy01Ljg1NiAwLTEuNDM0LTIuMzQ2LTMuMDI0LTYuMTIyLTQuMTVsLjU2OC0xLjkxN0M1MS4zMiAyMy40NzQgNTQgMjUuNjI5IDU0IDI4LjA5Wk0zMi41IDEyLjA2NCA0MC41NDcgMTUgMzIuNSAxNy45MzYgMjQuNDUzIDE1bDguMDQ3LTIuOTM2Wm04Ljg2OCAxNi41ODRjLTEuNTU2LjctNC4xNTUgMS41MTYtNy44NzEgMS42NDVWMTkuNzAxbDguOTctMy4yNzN2MTAuNDg1YzAgLjc1NC0uNDMxIDEuNDM1LTEuMSAxLjczNVptLTE4LjgzNS0xLjczNVYxNi40MjhsOC45NyAzLjI3M3YxMC41OTJjLTMuNzE2LS4xMjktNi4zMTUtLjk0NS03Ljg3LTEuNjQ1LS42NjktLjMtMS4xLS45ODEtMS4xLTEuNzM1Wm0uMjgzIDMuNTZjMS44Ny44NDIgNS4wNyAxLjg0NiA5LjY4NCAxLjg0NiA0LjYxNSAwIDcuODEzLTEuMDA0IDkuNjg0LTEuODQ2IDEuMzgzLS42MjIgMi4yNzctMi4wMTkgMi4yNzctMy41NlYxNWExIDEgMCAwIDAtLjY1Ni0uOTRsLTEwLjk2NC00YS45OTguOTk4IDAgMCAwLS42ODIgMGwtMTAuOTY0IDRhMSAxIDAgMCAwLS42NTYuOTR2MTEuOTEzYzAgMS41NDEuODk0IDIuOTM4IDIuMjc3IDMuNTZaIi8+PC9nPjwvc3ZnPjwvZz48L3N2Zz4=;direction=east;" parent="1" vertex="1">
          <mxGeometry x="377.6173395510033" y="265.1173395510033" width="69.76532089799343" height="69.76532089799343" as="geometry" />
        </mxCell>
        <mxCell id="17ef34b0-17ea-479e-a46c-80ab428c0ab6" value="" style="shape=image;imageAspect=0;aspect=fixed;image=data:image/svg+xml,PHN2ZyB4bWxucz0iaHR0cDovL3d3dy53My5vcmcvMjAwMC9zdmciIHdpZHRoPSI3OCIgaGVpZ2h0PSI3OCIgc3R5bGU9ImZpbGw6IG51bGw7Ij48Y2lyY2xlIGN4PSIzOSIgY3k9IjM5IiByPSIzOSIgc3R5bGU9ImZpbGw6IHJnYmEoMCwgMCwgMCwgMCk7Ii8+PGcgdHJhbnNmb3JtPSJ0cmFuc2xhdGUoNyw3KSI+PHN2ZyB4bWxucz0iaHR0cDovL3d3dy53My5vcmcvMjAwMC9zdmciIHdpZHRoPSI2NCIgaGVpZ2h0PSI2NCIgdmlld0JveD0iMCAwIDY0IDY0Ij48ZGVmcz48bGluZWFyR3JhZGllbnQgaWQ9IkVsYXN0aWMtQ29udGFpbmVyLUt1YmVybmV0ZXNfc3ZnX19hIiB4MT0iMCUiIHgyPSIxMDAlIiB5MT0iMTAwJSIgeTI9IjAlIj48c3RvcCBvZmZzZXQ9IjAlIiBzdG9wLWNvbG9yPSIjQzg1MTFCIi8+PHN0b3Agb2Zmc2V0PSIxMDAlIiBzdG9wLWNvbG9yPSIjRjkwIi8+PC9saW5lYXJHcmFkaWVudD48L2RlZnM+PGcgZmlsbD0ibm9uZSIgZmlsbC1ydWxlPSJldmVub2RkIj48ZyBmaWxsPSJ1cmwoI0VsYXN0aWMtQ29udGFpbmVyLUt1YmVybmV0ZXNfc3ZnX19hKSI+PHBhdGggZD0iTTAgMGg2NHY2NEgweiIvPjwvZz48ZyBmaWxsPSIjRkZGIj48cGF0aCBkPSJtMzcuNzA4IDI1LTUuMDU4IDYuMzQgNS4zMTcgNi42ODFoLTIuMjE1TDMxIDMyLjAwMXY2aC0yVjI1aDJ2NS4yNGw0LjQ2My01LjI0aDIuMjQ1Wk01MCAzNi4zODJsLTYtM1YyNWEuOTk5Ljk5OSAwIDAgMC0uNTE1LS44NzRMMzUgMTkuNDEyVjEyLjc1bDE1IDguODIydjE0LjgxWm0xLjUwNy0xNi4yNDQtMTctMTBhMS4wMDEgMS4wMDEgMCAwIDAtMS41MDcuODYzdjljMCAuMzYyLjE5Ny42OTcuNTE1Ljg3M0w0MiAyNS41ODhWMzRjMCAuMzguMjE0LjcyNS41NTMuODk1bDggNGExLjAwNSAxLjAwNSAwIDAgMCAuOTcyLS4wNDRjLjI5NS0uMTgzLjQ3NS0uNTA0LjQ3NS0uODVWMjFjMC0uMzU1LS4xODgtLjY4My0uNDkzLS44NjNaTTMyIDUxLjgyOCAxNSA0MS40MzlWMjEuNTU0bDE0LTguNzV2Ni42NDJsLTcuNTMgNC43MDZBMSAxIDAgMCAwIDIxIDI1djEzYTEgMSAwIDAgMCAuNDg1Ljg1N2wxMCA2YTEgMSAwIDAgMCAuOTk0LjAyMWwxMC41MDktNS43MzIgNS4wNDcgMi44ODNMMzIgNTEuODI4Wm0xOC40OTYtMTAuNjk2LTctNGEuOTk4Ljk5OCAwIDAgMC0uOTc1LS4wMWwtMTAuNDk4IDUuNzI2TDIzIDM3LjQzNHYtMTEuODhsNy41My00LjcwNkExIDEgMCAwIDAgMzEgMjB2LTlhMSAxIDAgMCAwLTEuNTMtLjg0N2wtMTYgMTBBMSAxIDAgMCAwIDEzIDIxdjIxYzAgLjM0OC4xODIuNjcxLjQ3OS44NTRsMTggMTFhMS4wMDQgMS4wMDQgMCAwIDAgMS4wNDIgMGwxOC0xMWExIDEgMCAwIDAtLjAyNS0xLjcyMloiLz48L2c+PC9nPjwvc3ZnPjwvZz48L3N2Zz4=;direction=east;" parent="1" vertex="1">
          <mxGeometry x="621.3673395510033" y="265.1173395510033" width="69.76532089799343" height="69.76532089799343" as="geometry" />
        </mxCell>
        <mxCell id="32e9c093-6d01-4d1c-885b-f01ba7e4769a" value="" style="shape=image;imageAspect=0;aspect=fixed;image=data:image/svg+xml,PHN2ZyB4bWxucz0iaHR0cDovL3d3dy53My5vcmcvMjAwMC9zdmciIHdpZHRoPSI4MCIgaGVpZ2h0PSI4MCIgc3R5bGU9ImZpbGw6IG51bGw7Ij48Y2lyY2xlIGN4PSI0MCIgY3k9IjQwIiByPSI0MCIgc3R5bGU9ImZpbGw6IHJnYmEoMCwgMCwgMCwgMCk7Ii8+PGcgdHJhbnNmb3JtPSJ0cmFuc2xhdGUoLTEwLC0xMCkiPjxzdmcgeG1sbnM9Imh0dHA6Ly93d3cudzMub3JnLzIwMDAvc3ZnIiB3aWR0aD0iMTAwIiBoZWlnaHQ9IjEwMCIgZGF0YS1uYW1lPSJMYXllciAxIiB2aWV3Qm94PSIwIDAgMTAwIDEwMCI+PHBhdGggZmlsbD0iIzdkN2M3YyIgZD0iTTcwLjE5IDQ1YzUuNDQgMCA5LjIzIDMuNDIgOS4yMyA4LjI5djEwLjU3aC00Ljc4di03LjE4aC0xLjMxdjcuMThINjZjLS40OC01LjM2LTQuODItOS0xMC45MS05aC00LjIxdi0yLjkyYzQuNjYtLjQyIDguMzgtMi4yMSA4Ljc5LTYuOTVoLjQ0Wk0zOS45IDQ1aC40NWMuNDEgNC43NCA0LjEzIDYuNTMgOC43OCA2Ljk1djIuOTFINDVjLTYuMDggMC0xMC40NCAzLjY1LTEwLjkxIDlIMjYuOXYtNy4xN2gtMS4zdjcuMTdoLTVWNTMuMjdjMC00Ljg5IDMuNzktOC4yOSA5LjIzLTguMjlaIi8+PHBhdGggZmlsbD0iIzdkN2M3YyIgZD0iTTU1LjA1IDU5LjMxYzUuNDQgMCA5LjIzIDMuNDIgOS4yMyA4LjI5djEwLjU5aC00Ljc5VjcxaC0xLjN2Ny4xN0g0MlY3MWgtMS4yNnY3LjE3aC01VjY3LjZjMC00Ljg3IDMuNzktOC4yOSA5LjIzLTguMjlaTTM0Ljg1IDI0LjM3bDggNS42N3YyLjQ3YTguMDcgOC4wNyAwIDAgMS04IDguMTZjLTQuMzkgMC04LTMuNjUtOC04LjUzVjMwWk02NS4xNCAyNC4zN2w4IDUuNjd2Mi40N2E4LjA3IDguMDcgMCAwIDEtOCA4LjE2Yy00LjM5IDAtOC0zLjY1LTgtOC41M1YzMFpNNTAgMzUuNTJsNy4wNyA1djIuMTlBNy4xNiA3LjE2IDAgMCAxIDUwIDUwYTcuMjMgNy4yMyAwIDAgMS03LjA1LTcuNTZ2LTEuOTdaIi8+PHBhdGggZmlsbD0iI2QyZDNkMyIgZD0iTTY1LjE1IDIxLjg5YTguMTUgOC4xNSAwIDEgMS04IDguMTQgOC4wNyA4LjA3IDAgMCAxIDgtOC4xNFpNNTAgMzNhNy4yMyA3LjIzIDAgMSAxLTcuMDYgNy4yM0E3LjE1IDcuMTUgMCAwIDEgNTAgMzNaTTcwLjE5IDQyLjQ5YzUuNDQgMCA5LjIzIDMuNDIgOS4yMyA4LjN2MTAuNTloLTQuNzhWNTQuMmgtMS4zMXY3LjE4SDY2Yy0uNDgtNS4zNi00LjgyLTktMTAuOTEtOWgtNC4yMXYtLjkxYTkuNzkgOS43OSAwIDAgMCA4Ljc5LTguOTVoLjQ0Wk0zOS45IDQyLjVoLjQ1YTkuNzkgOS43OSAwIDAgMCA4Ljc4IDguOTV2LjkxSDQ1Yy02LjA4IDAtMTAuNDQgMy42NS0xMC45MSA5SDI2Ljl2LTcuMTVoLTEuM3Y3LjE3aC01VjUwLjc5YzAtNC44OSAzLjc5LTguMjkgOS4yMy04LjI5WiIvPjxwYXRoIGZpbGw9IiNkMmQzZDMiIGQ9Ik01NS4wNSA1Ni44M2M1LjQ0IDAgOS4yMyAzLjQyIDkuMjMgOC4yOXYxMC41OWgtNC43OXYtNy4xN2gtMS4zdjcuMTdINDJ2LTcuMTdoLTEuMjZ2Ny4xN2gtNVY2NS4xMmMwLTQuODggMy43OS04LjI5IDkuMjMtOC4yOVpNMzQuODUgMjEuODlhOC4xNSA4LjE1IDAgMSAxLTggOC4xNCA4LjA4IDguMDggMCAwIDEgOC04LjE0WiIvPjwvc3ZnPjwvZz48L3N2Zz4=;direction=east;" parent="1" vertex="1">
          <mxGeometry x="860" y="-227.5" width="80" height="80" as="geometry" />
        </mxCell>
        <mxCell id="9cae68ce-1762-43fd-ba42-0c33a08b969f" value="" style="shape=image;imageAspect=0;aspect=fixed;image=data:image/svg+xml,PHN2ZyB4bWxucz0iaHR0cDovL3d3dy53My5vcmcvMjAwMC9zdmciIHdpZHRoPSI2MiIgaGVpZ2h0PSI2MiIgc3R5bGU9ImZpbGw6IG51bGw7Ij48Y2lyY2xlIGN4PSIzMSIgY3k9IjMxIiByPSIzMSIgc3R5bGU9ImZpbGw6IHJnYmEoMCwgMCwgMCwgMCk7Ii8+PGcgdHJhbnNmb3JtPSJ0cmFuc2xhdGUoNyw3KSI+PHN2ZyB4bWxucz0iaHR0cDovL3d3dy53My5vcmcvMjAwMC9zdmciIHdpZHRoPSI0OCIgaGVpZ2h0PSI0OCIgdmlld0JveD0iMCAwIDQ4IDQ4Ij48ZyBmaWxsPSJub25lIiBmaWxsLXJ1bGU9ImV2ZW5vZGQiPjxwYXRoIGZpbGw9IiMyNDJGM0UiIGQ9Ik0yOC42MzkgOS4yODZjMC0yLjkxNSAyLjQxMy01LjI4NiA1LjM4LTUuMjg2IDIuOTY2IDAgNS4zNzggMi4zNzEgNS4zNzggNS4yODYgMCAyLjkxNS0yLjQxMiA1LjI4Ni01LjM3OCA1LjI4Ni0yLjk2NyAwLTUuMzgtMi4zNzEtNS4zOC01LjI4NlptMTEuNTI0IDcuMDQ4YTExLjcxIDExLjcxIDAgMCAwLTIuMDM1LTEuMDAxYzEuOTctMS4zMSAzLjI2OS0zLjUzMSAzLjI2OS02LjA0NyAwLTQuMDE3LTMuMzEtNy4yODYtNy4zNzgtNy4yODYtNC4wNjkgMC03LjM4IDMuMjY5LTcuMzggNy4yODYgMCAyLjUxIDEuMjkzIDQuNzI4IDMuMjU2IDYuMDM5YTExLjg5NiAxMS44OTYgMCAwIDAtMy41NDYgMi4xbDEuMzAzIDEuNTE4QTkuNzY2IDkuNzY2IDAgMCAxIDM0IDE2LjU3MmMxLjgwMiAwIDMuNTY5LjUwNSA1LjEwOSAxLjQ2MSAyLjc0IDEuNzAyIDQuNTM4IDQuNjkyIDQuODQ0IDcuOTY3SDM0djJoMTFhMSAxIDAgMCAwIDEtMWMwLTQuMzQzLTIuMjM2LTguNDMtNS44MzctMTAuNjY2Wk04LjYzOSA5LjI4NkM4LjYzOSA2LjM3MSAxMS4wNTIgNCAxNC4wMTkgNGMyLjk2NiAwIDUuMzc4IDIuMzcxIDUuMzc4IDUuMjg2IDAgMi45MTUtMi40MTIgNS4yODYtNS4zNzggNS4yODYtMi45NjcgMC01LjM4LTIuMzcxLTUuMzgtNS4yODZaTTE0IDI2SDQuMDQ2QzQuNTMgMjAuNzE3IDguODEgMTYuNTcyIDE0IDE2LjU3MmMxLjgwMiAwIDMuNTY5LjUwNSA1LjEwOSAxLjQ2MS40MzIuMjY5Ljg0OS41NzUgMS4yNC45MWwxLjMwMy0xLjUxN2ExMS43MSAxMS43MSAwIDAgMC0zLjUyNC0yLjA5M2MxLjk3LTEuMzEgMy4yNjktMy41MzEgMy4yNjktNi4wNDcgMC00LjAxNy0zLjMxLTcuMjg2LTcuMzc4LTcuMjg2LTQuMDY5IDAtNy4zOCAzLjI2OS03LjM4IDcuMjg2IDAgMi41MTUgMS4yOTggNC43MzcgMy4yNjggNi4wNDZDNS4zMDIgMTcuMDcxIDIgMjEuNjM4IDIgMjdhMSAxIDAgMCAwIDEgMWgxMXYtMlptLjA0NiAxOGMuNDg0LTUuMjgzIDQuNzY0LTkuNDI4IDkuOTU0LTkuNDI4IDEuODAyIDAgMy41NjkuNTA1IDUuMTA5IDEuNDYxIDIuNzQgMS43MDIgNC41MzggNC42OTIgNC44NDQgNy45NjdIMTQuMDQ2Wm00LjU5My0xNi43MTRjMC0yLjkxNSAyLjQxMy01LjI4NiA1LjM4LTUuMjg2IDIuOTY2IDAgNS4zNzggMi4zNzEgNS4zNzggNS4yODYgMCAyLjkxNS0yLjQxMiA1LjI4Ni01LjM3OCA1LjI4Ni0yLjk2NyAwLTUuMzgtMi4zNzEtNS4zOC01LjI4NlptMTEuNTI0IDcuMDQ4YTExLjcxIDExLjcxIDAgMCAwLTIuMDM1LTEuMDAxYzEuOTctMS4zMSAzLjI2OS0zLjUzMSAzLjI2OS02LjA0NyAwLTQuMDE3LTMuMzEtNy4yODYtNy4zNzgtNy4yODYtNC4wNjkgMC03LjM4IDMuMjY5LTcuMzggNy4yODYgMCAyLjUxNSAxLjI5OCA0LjczNyAzLjI2OCA2LjA0NkMxNS4zMDIgMzUuMDcxIDEyIDM5LjYzOCAxMiA0NWExIDEgMCAwIDAgMSAxaDIyYTEgMSAwIDAgMCAxLTFjMC00LjM0My0yLjIzNi04LjQzLTUuODM3LTEwLjY2NloiLz48L2c+PC9zdmc+PC9nPjwvc3ZnPg==;direction=east;" parent="1" vertex="1">
          <mxGeometry x="-140.22724292099738" y="1228.5227570790025" width="55.45448584199478" height="55.45448584199478" as="geometry" />
        </mxCell>
        <mxCell id="62f72b6f-405c-41fa-8732-8b9252648df7" value="" style="shape=image;imageAspect=0;aspect=fixed;image=data:image/svg+xml,PHN2ZyB4bWxucz0iaHR0cDovL3d3dy53My5vcmcvMjAwMC9zdmciIHdpZHRoPSI3OCIgaGVpZ2h0PSI3OCIgc3R5bGU9ImZpbGw6IG51bGw7Ij48Y2lyY2xlIGN4PSIzOSIgY3k9IjM5IiByPSIzOSIgc3R5bGU9ImZpbGw6IHJnYmEoMCwgMCwgMCwgMCk7Ii8+PGcgdHJhbnNmb3JtPSJ0cmFuc2xhdGUoNyw3KSI+PHN2ZyB4bWxucz0iaHR0cDovL3d3dy53My5vcmcvMjAwMC9zdmciIHdpZHRoPSI2NCIgaGVpZ2h0PSI2NCIgdmlld0JveD0iMCAwIDY0IDY0Ij48ZGVmcz48bGluZWFyR3JhZGllbnQgaWQ9IkVsYXN0aUNhY2hlX3N2Z19fYSIgeDE9IjAlIiB4Mj0iMTAwJSIgeTE9IjEwMCUiIHkyPSIwJSI+PHN0b3Agb2Zmc2V0PSIwJSIgc3RvcC1jb2xvcj0iIzJFMjdBRCIvPjxzdG9wIG9mZnNldD0iMTAwJSIgc3RvcC1jb2xvcj0iIzUyN0ZGRiIvPjwvbGluZWFyR3JhZGllbnQ+PC9kZWZzPjxnIGZpbGw9Im5vbmUiIGZpbGwtcnVsZT0iZXZlbm9kZCI+PGcgZmlsbD0idXJsKCNFbGFzdGlDYWNoZV9zdmdfX2EpIj48cGF0aCBkPSJNMCAwaDY0djY0SDB6Ii8+PC9nPjxwYXRoIGZpbGw9IiNGRkYiIGQ9Ik00MC4wNSAzNS4yNzlWMzAuNjJjLTEuOTg4IDEuMTAzLTUuMTk0IDEuNjItOC4zODYgMS42Mi0zLjM1IDAtNi4wMjUtLjU1NC03LjcxNC0xLjUxN3Y0LjU1NWMwIC45NTMgMi40NTIgMi4zNjQgNy43MTQgMi4zNjQgNS41MDYgMCA4LjM4Ni0xLjU0IDguMzg2LTIuMzY0Wm0wIDYuNzN2LTMuOTg0Yy0xLjk4OCAxLjEwMy01LjE5NCAxLjYyLTguMzg2IDEuNjItMy4zNSAwLTYuMDI1LS41NTQtNy43MTQtMS41MTh2My44ODJjMCAuOTUzIDIuNDUyIDIuMzYzIDcuNzE0IDIuMzYzIDUuNTA2IDAgOC4zODYtMS41NCA4LjM4Ni0yLjM2NFptMCA2LjY1NXYtMy45MWMtMS45ODggMS4xMDMtNS4xOTQgMS42Mi04LjM4NiAxLjYyLTMuMzUgMC02LjAyNS0uNTU0LTcuNzE0LTEuNTE3djMuODA3YzAgLjk3OCAyLjY4MiAyLjMzNCA3LjcxNyAyLjMzNCA1LjUwNCAwIDguMzgzLTEuNTIgOC4zODMtMi4zMzRabS0xNi4xLTIwLjc5YzAgLjk5MiAyLjY4MSAyLjM2NSA3LjcxNCAyLjM2NSA1LjUwNiAwIDguMzg2LTEuNTQgOC4zODYtMi4zNjQgMC0uODI1LTIuODgtMi4zNjQtOC4zODYtMi4zNjQtNS4wMzMgMC03LjcxNCAxLjM3My03LjcxNCAyLjM2NFptMTguMSAwYzAgLjA1LS4wMTMuMDk3LS4wMTYuMTQ2aC4wMTZ2MjAuNjQ0YzAgMi45OTUtNS4yMTUgNC4zMzYtMTAuMzgzIDQuMzM2LTUuOTAyIDAtOS43MTctMS43MDItOS43MTctNC4zMzZWMjguMDE5aC4wMTNjLS4wMDItLjA0OC0uMDEzLS4wOTUtLjAxMy0uMTQ0IDAtMi42NTIgMy44MTMtNC4zNjYgOS43MTQtNC4zNjYgNS4xNyAwIDEwLjM4NiAxLjM1IDEwLjM4NiA0LjM2NlpNNTMgMTguMDA1YTEgMSAwIDAgMCAxLTF2LTQuMDAzQTEgMSAwIDAgMCA1MyAxMkgxMWExIDEgMCAwIDAtMSAxdjQuMDA0YTEgMSAwIDAgMCAxIDEgMS41MDIgMS41MDIgMCAwIDEgMCAzLjAwMyAxIDEgMCAwIDAtMSAxLjAwMXYxNi4wMTNhMSAxIDAgMCAwIDEgMWg4di0yaC00di0yLjAwMmg0di0yLjAwMmgtNWExIDEgMCAwIDAtMSAxdjMuMDAzaC0xVjIyLjg2M2EzLjUwNyAzLjUwNyAwIDAgMCAyLjUtMy4zNTcgMy41MDggMy41MDggMCAwIDAtMi41LTMuMzU4di0yLjE0Nmg0MHYyLjE0NmEzLjUwOSAzLjUwOSAwIDAgMC0yLjUgMy4zNTggMy41MDkgMy41MDkgMCAwIDAgMi41IDMuMzU3VjM3LjAyaC0xdi0zLjAwMmExIDEgMCAwIDAtMS0xLjAwMWgtNXYyLjAwMmg0djIuMDAxaC00djIuMDAyaDhhMSAxIDAgMCAwIDEtMS4wMDFWMjIuMDA4YTEgMSAwIDAgMC0xLTEgMS41MDIgMS41MDIgMCAwIDEgMC0zLjAwM1pNMjIgMjMuMDF2LTYuMDA1YTEgMSAwIDAgMC0xLTFoLTRhMSAxIDAgMCAwLTEgMXYxMy4wMWExIDEgMCAwIDAgMSAxLjAwMWgydi0yLjAwMWgtMXYtMTEuMDFoMnY1LjAwNWgyWm0yNCA2LjAwNWgtMXYyLjAwMWgyYTEgMSAwIDAgMCAxLTFWMTcuMDAzYTEgMSAwIDAgMC0xLTFoLTRhMSAxIDAgMCAwLTEgMXY2LjAwNWgydi01LjAwNGgydjExLjAwOVptLTYtNy4wMDZ2LTUuMDA0YTEgMSAwIDAgMC0xLTFoLTVhMSAxIDAgMCAwLTEgMXY0LjAwM2gydi0zLjAwMmgzdjQuMDAzaDJabS0xMS0xdi0zLjAwM2gtM3Y0LjAwM2gtMnYtNS4wMDRhMSAxIDAgMCAxIDEtMWg1YTEgMSAwIDAgMSAxIDF2NC4wMDNoLTJaIi8+PC9nPjwvc3ZnPjwvZz48L3N2Zz4=;direction=east;" parent="1" vertex="1">
          <mxGeometry x="171.36733955100328" y="171.36733955100328" width="69.76532089799343" height="69.76532089799343" as="geometry" />
        </mxCell>
        <mxCell id="d49cd891-6811-4966-a4d6-660d9d0a1ad1" value="" style="shape=image;imageAspect=0;aspect=fixed;image=data:image/svg+xml,PHN2ZyB4bWxucz0iaHR0cDovL3d3dy53My5vcmcvMjAwMC9zdmciIHdpZHRoPSI3OCIgaGVpZ2h0PSI3OCIgc3R5bGU9ImZpbGw6IG51bGw7Ij48Y2lyY2xlIGN4PSIzOSIgY3k9IjM5IiByPSIzOSIgc3R5bGU9ImZpbGw6IHJnYmEoMCwgMCwgMCwgMCk7Ii8+PGcgdHJhbnNmb3JtPSJ0cmFuc2xhdGUoNyw3KSI+PHN2ZyB4bWxucz0iaHR0cDovL3d3dy53My5vcmcvMjAwMC9zdmciIHdpZHRoPSI2NCIgaGVpZ2h0PSI2NCIgdmlld0JveD0iMCAwIDY0IDY0Ij48ZGVmcz48bGluZWFyR3JhZGllbnQgaWQ9IkZhcmdhdGVfc3ZnX19hIiB4MT0iMCUiIHgyPSIxMDAlIiB5MT0iMTAwJSIgeTI9IjAlIj48c3RvcCBvZmZzZXQ9IjAlIiBzdG9wLWNvbG9yPSIjQzg1MTFCIi8+PHN0b3Agb2Zmc2V0PSIxMDAlIiBzdG9wLWNvbG9yPSIjRjkwIi8+PC9saW5lYXJHcmFkaWVudD48L2RlZnM+PGcgZmlsbD0ibm9uZSIgZmlsbC1ydWxlPSJldmVub2RkIj48ZyBmaWxsPSJ1cmwoI0ZhcmdhdGVfc3ZnX19hKSI+PHBhdGggZD0iTTAgMGg2NHY2NEgweiIvPjwvZz48ZyBmaWxsPSIjRkZGIj48cGF0aCBkPSJNNDIuNDY3IDQ2LjM4MnYtMy43NjRsMS45OTQtMXYzLjc2NGwtMS45OTQgMVptLTMuOTg3LTQuNzY0IDEuOTk0IDF2My43NjRsLTEuOTk0LTF2LTMuNzY0Wm0tNC45ODMgOS43NjR2LTMuNzY0bDEuOTkzLTF2My43NjRsLTEuOTkzIDFabS0zLjk4Ny00Ljc2NCAxLjk5MyAxdjMuNzY0bC0xLjk5My0xdi0zLjc2NFptLTQuOTg0LS4yMzZ2LTMuNzY0bDEuOTk0LTF2My43NjRsLTEuOTk0IDFabS0zLjk4Ny00Ljc2NCAxLjk5NCAxdjMuNzY0bC0xLjk5NC0xdi0zLjc2NFptMi45OS0yLjUgMS43NTkuODgyLTEuNzU4Ljg4MkwyMS43NyA0MGwxLjc1OS0uODgyWm04Ljk3MSA1IDEuNzU4Ljg4Mi0xLjc1OC44ODJMMzAuNzQyIDQ1bDEuNzU4LS44ODJabTguOTctNUw0My4yMyA0MGwtMS43NTkuODgyTDM5LjcxMiA0MGwxLjc1OC0uODgyWm00LjQzMy0uMDEyLTMuOTg3LTJhLjk5MS45OTEgMCAwIDAtLjg5MSAwbC0zLjk4NyAyYS45OTkuOTk5IDAgMCAwLS41NTEuODk0djMuODgybC0zLjU0MS0xLjc3NmEuOTkxLjk5MSAwIDAgMC0uODkyIDBsLTMuNTQgMS43NzZWNDBhLjk5OS45OTkgMCAwIDAtLjU1Mi0uODk0bC0zLjk4Ny0yYS45OTEuOTkxIDAgMCAwLS44OSAwbC0zLjk4OCAyYS45OTkuOTk5IDAgMCAwLS41NS44OTR2NmMwIC4zNzkuMjEyLjcyNS41NS44OTVsMy45ODcgMmEuOTk2Ljk5NiAwIDAgMCAuODkxIDBsMy41NDEtMS43NzdWNTFjMCAuMzc5LjIxNC43MjUuNTUyLjg5NWwzLjk4NiAyYS45OTYuOTk2IDAgMCAwIC44OTIgMGwzLjk4Ni0yYy4zMzgtLjE3LjU1Mi0uNTE2LjU1Mi0uODk1di0zLjg4MmwzLjU0IDEuNzc3YS45OTYuOTk2IDAgMCAwIC44OTIgMGwzLjk4Ny0yYy4zMzgtLjE3LjU1LS41MTYuNTUtLjg5NXYtNmEuOTk5Ljk5OSAwIDAgMC0uNTUtLjg5NFpNNTQgMjguMDljMCA1LjEwMy0xMS4wNzcgNy44NTYtMjEuNSA3Ljg1NlMxMSAzMy4xOTMgMTEgMjguMDljMC0yLjQ2MSAyLjY4LTQuNjE2IDcuNTQ3LTYuMDY3bC41NjggMS45MTdjLTMuNzc2IDEuMTI2LTYuMTIyIDIuNzE2LTYuMTIyIDQuMTUgMCAyLjc2NCA4LjM0MyA1Ljg1NiAxOS41MDcgNS44NTYgMTEuMTY0IDAgMTkuNTA3LTMuMDkyIDE5LjUwNy01Ljg1NiAwLTEuNDM0LTIuMzQ2LTMuMDI0LTYuMTIyLTQuMTVsLjU2OC0xLjkxN0M1MS4zMiAyMy40NzQgNTQgMjUuNjI5IDU0IDI4LjA5Wk0zMi41IDEyLjA2NCA0MC41NDcgMTUgMzIuNSAxNy45MzYgMjQuNDUzIDE1bDguMDQ3LTIuOTM2Wm04Ljg2OCAxNi41ODRjLTEuNTU2LjctNC4xNTUgMS41MTYtNy44NzEgMS42NDVWMTkuNzAxbDguOTctMy4yNzN2MTAuNDg1YzAgLjc1NC0uNDMxIDEuNDM1LTEuMSAxLjczNVptLTE4LjgzNS0xLjczNVYxNi40MjhsOC45NyAzLjI3M3YxMC41OTJjLTMuNzE2LS4xMjktNi4zMTUtLjk0NS03Ljg3LTEuNjQ1LS42NjktLjMtMS4xLS45ODEtMS4xLTEuNzM1Wm0uMjgzIDMuNTZjMS44Ny44NDIgNS4wNyAxLjg0NiA5LjY4NCAxLjg0NiA0LjYxNSAwIDcuODEzLTEuMDA0IDkuNjg0LTEuODQ2IDEuMzgzLS42MjIgMi4yNzctMi4wMTkgMi4yNzctMy41NlYxNWExIDEgMCAwIDAtLjY1Ni0uOTRsLTEwLjk2NC00YS45OTguOTk4IDAgMCAwLS42ODIgMGwtMTAuOTY0IDRhMSAxIDAgMCAwLS42NTYuOTR2MTEuOTEzYzAgMS41NDEuODk0IDIuOTM4IDIuMjc3IDMuNTZaIi8+PC9nPjwvZz48L3N2Zz48L2c+PC9zdmc+;direction=east;" parent="1" vertex="1">
          <mxGeometry x="733.8673395510033" y="265.1173395510033" width="69.76532089799343" height="69.76532089799343" as="geometry" />
        </mxCell>
        <mxCell id="47531450-52ae-43c5-9e82-7ac2d87ddb02" value="" style="shape=image;imageAspect=0;aspect=fixed;image=data:image/svg+xml,PHN2ZyB4bWxucz0iaHR0cDovL3d3dy53My5vcmcvMjAwMC9zdmciIHdpZHRoPSI3OCIgaGVpZ2h0PSI3OCIgc3R5bGU9ImZpbGw6IG51bGw7Ij48Y2lyY2xlIGN4PSIzOSIgY3k9IjM5IiByPSIzOSIgc3R5bGU9ImZpbGw6IHJnYmEoMCwgMCwgMCwgMCk7Ii8+PGcgdHJhbnNmb3JtPSJ0cmFuc2xhdGUoNyw3KSI+PHN2ZyB4bWxucz0iaHR0cDovL3d3dy53My5vcmcvMjAwMC9zdmciIHdpZHRoPSI2NCIgaGVpZ2h0PSI2NCIgdmlld0JveD0iMCAwIDY0IDY0Ij48ZGVmcz48bGluZWFyR3JhZGllbnQgaWQ9IkVsYXN0aUNhY2hlX3N2Z19fYSIgeDE9IjAlIiB4Mj0iMTAwJSIgeTE9IjEwMCUiIHkyPSIwJSI+PHN0b3Agb2Zmc2V0PSIwJSIgc3RvcC1jb2xvcj0iIzJFMjdBRCIvPjxzdG9wIG9mZnNldD0iMTAwJSIgc3RvcC1jb2xvcj0iIzUyN0ZGRiIvPjwvbGluZWFyR3JhZGllbnQ+PC9kZWZzPjxnIGZpbGw9Im5vbmUiIGZpbGwtcnVsZT0iZXZlbm9kZCI+PGcgZmlsbD0idXJsKCNFbGFzdGlDYWNoZV9zdmdfX2EpIj48cGF0aCBkPSJNMCAwaDY0djY0SDB6Ii8+PC9nPjxwYXRoIGZpbGw9IiNGRkYiIGQ9Ik00MC4wNSAzNS4yNzlWMzAuNjJjLTEuOTg4IDEuMTAzLTUuMTk0IDEuNjItOC4zODYgMS42Mi0zLjM1IDAtNi4wMjUtLjU1NC03LjcxNC0xLjUxN3Y0LjU1NWMwIC45NTMgMi40NTIgMi4zNjQgNy43MTQgMi4zNjQgNS41MDYgMCA4LjM4Ni0xLjU0IDguMzg2LTIuMzY0Wm0wIDYuNzN2LTMuOTg0Yy0xLjk4OCAxLjEwMy01LjE5NCAxLjYyLTguMzg2IDEuNjItMy4zNSAwLTYuMDI1LS41NTQtNy43MTQtMS41MTh2My44ODJjMCAuOTUzIDIuNDUyIDIuMzYzIDcuNzE0IDIuMzYzIDUuNTA2IDAgOC4zODYtMS41NCA4LjM4Ni0yLjM2NFptMCA2LjY1NXYtMy45MWMtMS45ODggMS4xMDMtNS4xOTQgMS42Mi04LjM4NiAxLjYyLTMuMzUgMC02LjAyNS0uNTU0LTcuNzE0LTEuNTE3djMuODA3YzAgLjk3OCAyLjY4MiAyLjMzNCA3LjcxNyAyLjMzNCA1LjUwNCAwIDguMzgzLTEuNTIgOC4zODMtMi4zMzRabS0xNi4xLTIwLjc5YzAgLjk5MiAyLjY4MSAyLjM2NSA3LjcxNCAyLjM2NSA1LjUwNiAwIDguMzg2LTEuNTQgOC4zODYtMi4zNjQgMC0uODI1LTIuODgtMi4zNjQtOC4zODYtMi4zNjQtNS4wMzMgMC03LjcxNCAxLjM3My03LjcxNCAyLjM2NFptMTguMSAwYzAgLjA1LS4wMTMuMDk3LS4wMTYuMTQ2aC4wMTZ2MjAuNjQ0YzAgMi45OTUtNS4yMTUgNC4zMzYtMTAuMzgzIDQuMzM2LTUuOTAyIDAtOS43MTctMS43MDItOS43MTctNC4zMzZWMjguMDE5aC4wMTNjLS4wMDItLjA0OC0uMDEzLS4wOTUtLjAxMy0uMTQ0IDAtMi42NTIgMy44MTMtNC4zNjYgOS43MTQtNC4zNjYgNS4xNyAwIDEwLjM4NiAxLjM1IDEwLjM4NiA0LjM2NlpNNTMgMTguMDA1YTEgMSAwIDAgMCAxLTF2LTQuMDAzQTEgMSAwIDAgMCA1MyAxMkgxMWExIDEgMCAwIDAtMSAxdjQuMDA0YTEgMSAwIDAgMCAxIDEgMS41MDIgMS41MDIgMCAwIDEgMCAzLjAwMyAxIDEgMCAwIDAtMSAxLjAwMXYxNi4wMTNhMSAxIDAgMCAwIDEgMWg4di0yaC00di0yLjAwMmg0di0yLjAwMmgtNWExIDEgMCAwIDAtMSAxdjMuMDAzaC0xVjIyLjg2M2EzLjUwNyAzLjUwNyAwIDAgMCAyLjUtMy4zNTcgMy41MDggMy41MDggMCAwIDAtMi41LTMuMzU4di0yLjE0Nmg0MHYyLjE0NmEzLjUwOSAzLjUwOSAwIDAgMC0yLjUgMy4zNTggMy41MDkgMy41MDkgMCAwIDAgMi41IDMuMzU3VjM3LjAyaC0xdi0zLjAwMmExIDEgMCAwIDAtMS0xLjAwMWgtNXYyLjAwMmg0djIuMDAxaC00djIuMDAyaDhhMSAxIDAgMCAwIDEtMS4wMDFWMjIuMDA4YTEgMSAwIDAgMC0xLTEgMS41MDIgMS41MDIgMCAwIDEgMC0zLjAwM1pNMjIgMjMuMDF2LTYuMDA1YTEgMSAwIDAgMC0xLTFoLTRhMSAxIDAgMCAwLTEgMXYxMy4wMWExIDEgMCAwIDAgMSAxLjAwMWgydi0yLjAwMWgtMXYtMTEuMDFoMnY1LjAwNWgyWm0yNCA2LjAwNWgtMXYyLjAwMWgyYTEgMSAwIDAgMCAxLTFWMTcuMDAzYTEgMSAwIDAgMC0xLTFoLTRhMSAxIDAgMCAwLTEgMXY2LjAwNWgydi01LjAwNGgydjExLjAwOVptLTYtNy4wMDZ2LTUuMDA0YTEgMSAwIDAgMC0xLTFoLTVhMSAxIDAgMCAwLTEgMXY0LjAwM2gydi0zLjAwMmgzdjQuMDAzaDJabS0xMS0xdi0zLjAwM2gtM3Y0LjAwM2gtMnYtNS4wMDRhMSAxIDAgMCAxIDEtMWg1YTEgMSAwIDAgMSAxIDF2NC4wMDNoLTJaIi8+PC9nPjwvc3ZnPjwvZz48L3N2Zz4=;direction=east;" parent="1" vertex="1">
          <mxGeometry x="-484.8826604489967" y="115.11733955100328" width="69.76532089799343" height="69.76532089799343" as="geometry" />
        </mxCell>
        <mxCell id="1add4c85-c986-4647-904a-f899f4e42579" value="" style="shape=image;imageAspect=0;aspect=fixed;image=data:image/svg+xml,PHN2ZyB4bWxucz0iaHR0cDovL3d3dy53My5vcmcvMjAwMC9zdmciIHdpZHRoPSI3OCIgaGVpZ2h0PSI3OCIgc3R5bGU9ImZpbGw6IG51bGw7Ij48Y2lyY2xlIGN4PSIzOSIgY3k9IjM5IiByPSIzOSIgc3R5bGU9ImZpbGw6IHJnYmEoMCwgMCwgMCwgMCk7Ii8+PGcgdHJhbnNmb3JtPSJ0cmFuc2xhdGUoNyw3KSI+PHN2ZyB4bWxucz0iaHR0cDovL3d3dy53My5vcmcvMjAwMC9zdmciIHdpZHRoPSI2NCIgaGVpZ2h0PSI2NCIgdmlld0JveD0iMCAwIDY0IDY0Ij48ZGVmcz48bGluZWFyR3JhZGllbnQgaWQ9IklkZW50aXR5LWFuZC1BY2Nlc3MtTWFuYWdlbWVudF9zdmdfX2EiIHgxPSIwJSIgeDI9IjEwMCUiIHkxPSIxMDAlIiB5Mj0iMCUiPjxzdG9wIG9mZnNldD0iMCUiIHN0b3AtY29sb3I9IiNCRDA4MTYiLz48c3RvcCBvZmZzZXQ9IjEwMCUiIHN0b3AtY29sb3I9IiNGRjUyNTIiLz48L2xpbmVhckdyYWRpZW50PjwvZGVmcz48ZyBmaWxsPSJub25lIiBmaWxsLXJ1bGU9ImV2ZW5vZGQiPjxnIGZpbGw9InVybCgjSWRlbnRpdHktYW5kLUFjY2Vzcy1NYW5hZ2VtZW50X3N2Z19fYSkiPjxwYXRoIGQ9Ik0wIDBoNjR2NjRIMHoiLz48L2c+PHBhdGggZmlsbD0iI0ZGRiIgZD0iTTEyIDQ3aDQwVjE4SDEydjI5Wm00Mi0zMHYzMWExIDEgMCAwIDEtMSAxSDExYTEgMSAwIDAgMS0xLTFWMTdhMSAxIDAgMCAxIDEtMWg0MmExIDEgMCAwIDEgMSAxWk0zNSAzOWgxMnYtMkgzNXYyWm0xMC00aDR2LTJoLTR2MlptLTEwIDBoNnYtMmgtNnYyWm0tMTIuNSAyLjVhLjUuNSAwIDEgMCAxLjAwMi0uMDAyLjUuNSAwIDAgMC0xLjAwMi4wMDJabTMgMGEyLjUwMSAyLjUwMSAwIDAgMS0xLjUgMi4yODhWNDJoLTJ2LTIuMjEyYTIuNTAxIDIuNTAxIDAgMCAxLTEuNS0yLjI4OGMwLTEuMzc4IDEuMTIxLTIuNSAyLjUtMi41czIuNSAxLjEyMiAyLjUgMi41Wk0xNiA0Mi45OTUgMjkuOTk1IDQzbC4wMDEtMkgyN3YtMmgyLjk5N2wuMDAxLTJIMjd2LTJoMi45OTlMMzAgMzMuMDA1IDE2LjAwNSAzMyAxNiA0Mi45OTVabTItMTEuOTk0IDEwLjAwMS4wMDMuMDAxLTUuMDA0YzAtMS4wMjQtLjgwMi0xLjcyNy0xLjI4LTIuMDU1LS44NzUtLjYtMi41NDgtLjk0NS0zLjcyLS45NDVIMjNjLTIuMTI3IDAtNC45OTcgMS4yMzItNC45OTggM0wxOCAzMS4wMDFabS0zLjcwNyAxMy43YTEgMSAwIDAgMS0uMjkzLS43MDdMMTQuMDA1IDMyYTEgMSAwIDAgMSAxLTFIMTZsLjAwMi01Yy4wMDEtMy4wODkgMy44NzQtNSA2Ljk5OC01aC4wMDJjMS41NjUgMCAzLjY1MS40NzMgNC44NTIgMS4yOTUgMS4zODUuOTUxIDIuMTQ5IDIuMjY3IDIuMTQ4IDMuNzA1bC0uMDAxIDUuMDA1Ljk5OS4wMDFhMSAxIDAgMCAxIDEgMUwzMS45OTUgNDRhMSAxIDAgMCAxLTEgMUwxNSA0NC45OTRhLjk5Ni45OTYgMCAwIDEtLjcwNy0uMjkzWk00NyAzMGgydi0yaC0ydjJabS0xMiAwaDl2LTJoLTl2MloiLz48L2c+PC9zdmc+PC9nPjwvc3ZnPg==;direction=east;" parent="1" vertex="1">
          <mxGeometry x="-484.8826604489967" y="21.367339551003283" width="69.76532089799343" height="69.76532089799343" as="geometry" />
        </mxCell>
        <mxCell id="231a886a-aab5-4f2e-9320-4df412d86b0e" value="" style="shape=image;imageAspect=0;aspect=fixed;image=data:image/svg+xml,PHN2ZyB4bWxucz0iaHR0cDovL3d3dy53My5vcmcvMjAwMC9zdmciIHdpZHRoPSI3OCIgaGVpZ2h0PSI3OCIgc3R5bGU9ImZpbGw6IG51bGw7Ij48Y2lyY2xlIGN4PSIzOSIgY3k9IjM5IiByPSIzOSIgc3R5bGU9ImZpbGw6IHJnYmEoMCwgMCwgMCwgMCk7Ii8+PGcgdHJhbnNmb3JtPSJ0cmFuc2xhdGUoNyw3KSI+PHN2ZyB4bWxucz0iaHR0cDovL3d3dy53My5vcmcvMjAwMC9zdmciIHdpZHRoPSI2NCIgaGVpZ2h0PSI2NCIgdmlld0JveD0iMCAwIDY0IDY0Ij48ZGVmcz48bGluZWFyR3JhZGllbnQgaWQ9IktleS1NYW5hZ2VtZW50LVNlcnZpY2Vfc3ZnX19hIiB4MT0iMCUiIHgyPSIxMDAlIiB5MT0iMTAwJSIgeTI9IjAlIj48c3RvcCBvZmZzZXQ9IjAlIiBzdG9wLWNvbG9yPSIjQkQwODE2Ii8+PHN0b3Agb2Zmc2V0PSIxMDAlIiBzdG9wLWNvbG9yPSIjRkY1MjUyIi8+PC9saW5lYXJHcmFkaWVudD48L2RlZnM+PGcgZmlsbD0ibm9uZSIgZmlsbC1ydWxlPSJldmVub2RkIj48ZyBmaWxsPSJ1cmwoI0tleS1NYW5hZ2VtZW50LVNlcnZpY2Vfc3ZnX19hKSI+PHBhdGggZD0iTTAgMGg2NHY2NEgweiIvPjwvZz48cGF0aCBmaWxsPSIjRkZGIiBkPSJNNDIuODQgNDEuOTk3aDZ2LTJoLTZ2MlptLTggMGg2di0yaC02djJabS04IDBoNnYtMmgtNnYyWm0xMC02LjVhMS41MDEgMS41MDEgMCAxIDEgMS41IDEuNWMtLjgyNiAwLTEuNS0uNjczLTEuNS0xLjVabTUgMGMwLTEuOTMtMS41Ny0zLjUtMy41LTMuNS0xLjkyOCAwLTMuNSAxLjU3LTMuNSAzLjVzMS41NzIgMy41IDMuNSAzLjVjMS45MyAwIDMuNS0xLjU3IDMuNS0zLjVabS0xMS41IDEuNWMtLjgyNiAwLTEuNS0uNjczLTEuNS0xLjVzLjY3NC0xLjUgMS41LTEuNWExLjUwMSAxLjUwMSAwIDAgMSAwIDNabTAtNWMtMS45MjggMC0zLjUgMS41Ny0zLjUgMy41czEuNTcyIDMuNSAzLjUgMy41YzEuOTMgMCAzLjUtMS41NyAzLjUtMy41cy0xLjU3LTMuNS0zLjUtMy41Wm0yMy41LTZ2MjBhMSAxIDAgMCAxLTEgMWgtMjZ2LTJoMjV2LTE4aC0xOXYtMmgyMGExIDEgMCAwIDEgMSAxWm0tMzIuOTM2LTIuMTA1YTEuOTgyIDEuOTgyIDAgMCAxLTEuOTgtMS45OGMwLTEuMDkuODg5LTEuOTc4IDEuOTgtMS45NzhhMS45OCAxLjk4IDAgMCAxIDEuOTc4IDEuOTc5IDEuOTggMS45OCAwIDAgMS0xLjk3OCAxLjk3OVptMC01Ljk1OGEzLjk4NCAzLjk4NCAwIDAgMC0zLjk4IDMuOTc5IDMuOTg0IDMuOTg0IDAgMCAwIDMuOTggMy45NzkgMy45ODMgMy45ODMgMCAwIDAgMy45NzgtMy45OCAzLjk4MyAzLjk4MyAwIDAgMC0zLjk3OC0zLjk3OFptMi42MyAxMi4xMTJhLjk5OS45OTkgMCAwIDAtLjY5My45NXYxOC41OGwtMS45NCAxLjktMi4wNi0yLjgwN3YtMi42M2ExIDEgMCAwIDAtLjM1MS0uNzYxbC0yLjEwNi0xLjc5MiAyLjEwNi0xLjc5MWMuMjIzLS4xOS4zNS0uNDcuMzUtLjc2MlYzOS4yM2MwLS4yOTMtLjEyNy0uNTcyLS4zNS0uNzYybC0yLjEwNi0xLjc5MSAyLjEwNi0xLjc5MmMuMjIzLS4xOS4zNS0uNDcuMzUtLjc2MnYtMy4xMjdhLjk5OC45OTggMCAwIDAtLjY5Ny0uOTUzYy00LjM4LTEuMzg4LTYuODg2LTUuNjUzLTUuOTU4LTEwLjE0Mi42Ny0zLjI0NiAzLjE2Ni01Ljg0OCA2LjM1OS02LjYzMSAyLjcxOC0uNjY4IDUuNTA5LS4wODUgNy42NTIgMS41OTZhOC43MzcgOC43MzcgMCAwIDEgMy4zNjkgNi45MTcgOC42NzIgOC42NzIgMCAwIDEtNi4wMzEgOC4yNjJabTguMDMtOC4yNjJhMTAuNzMgMTAuNzMgMCAwIDAtNC4xMzQtOC40OTFjLTIuNjI4LTIuMDYyLTYuMDQtMi43OC05LjM2My0xLjk2NC0zLjkzNy45NjUtNy4wMTUgNC4xNy03Ljg0MSA4LjE2OGExMC43NSAxMC43NSAwIDAgMCA2LjYxNSAxMi4yMDZ2MS45NmwtMi42NDggMi4yNTNhMS4wMDIgMS4wMDIgMCAwIDAgMCAxLjUyM2wyLjY0OCAyLjI1NHYuNzc4bC0yLjY0OCAyLjI1NGEuOTk5Ljk5OSAwIDAgMCAwIDEuNTIzTDE2Ljg0IDQ2LjV2Mi40OTZjMCAuMjEzLjA2OS40Mi4xOTUuNTkybDIuOTM2IDRhMS4wMDMgMS4wMDMgMCAwIDAgLjgwNi40MDguOTk2Ljk5NiAwIDAgMCAuNjk5LS4yODZsMy4wNjQtM2EuOTk5Ljk5OSAwIDAgMCAuMy0uNzE0di0xOC4zYTEwLjY1OCAxMC42NTggMCAwIDAgNi43MjQtOS45MTNaIi8+PC9nPjwvc3ZnPjwvZz48L3N2Zz4=;direction=east;" parent="1" vertex="1">
          <mxGeometry x="-484.8826604489967" y="-72.38266044899672" width="69.76532089799343" height="69.76532089799343" as="geometry" />
        </mxCell>
        <mxCell id="cdb6b4a6-876a-4a3a-9461-3d50dccc30d3" value="" style="shape=image;imageAspect=0;aspect=fixed;image=data:image/svg+xml,PHN2ZyB4bWxucz0iaHR0cDovL3d3dy53My5vcmcvMjAwMC9zdmciIHdpZHRoPSI3OCIgaGVpZ2h0PSI3OCIgc3R5bGU9ImZpbGw6IG51bGw7Ij48Y2lyY2xlIGN4PSIzOSIgY3k9IjM5IiByPSIzOSIgc3R5bGU9ImZpbGw6IHJnYmEoMCwgMCwgMCwgMCk7Ii8+PGcgdHJhbnNmb3JtPSJ0cmFuc2xhdGUoNyw3KSI+PHN2ZyB4bWxucz0iaHR0cDovL3d3dy53My5vcmcvMjAwMC9zdmciIHdpZHRoPSI2NCIgaGVpZ2h0PSI2NCIgdmlld0JveD0iMCAwIDY0IDY0Ij48ZGVmcz48bGluZWFyR3JhZGllbnQgaWQ9IkNsb3VkVHJhaWxfc3ZnX19hIiB4MT0iMCUiIHgyPSIxMDAlIiB5MT0iMTAwJSIgeTI9IjAlIj48c3RvcCBvZmZzZXQ9IjAlIiBzdG9wLWNvbG9yPSIjQjAwODREIi8+PHN0b3Agb2Zmc2V0PSIxMDAlIiBzdG9wLWNvbG9yPSIjRkY0RjhCIi8+PC9saW5lYXJHcmFkaWVudD48L2RlZnM+PGcgZmlsbD0ibm9uZSIgZmlsbC1ydWxlPSJldmVub2RkIj48ZyBmaWxsPSJ1cmwoI0Nsb3VkVHJhaWxfc3ZnX19hKSI+PHBhdGggZD0iTTAgMGg2NHY2NEgweiIvPjwvZz48cGF0aCBmaWxsPSIjRkZGIiBkPSJNMjAgNDEuOTc0aDNWMzkuOTZoLTN2Mi4wMTNabTItNC4wMjZoNnYtMi4wMTNoLTZ2Mi4wMTNabTI0Ljk2LTcuODg0Yy0uMjI2LTIuMzM1LTEuNDA0LTQuMDUtMy4yNDgtNC42NzItMS40NzQtLjQ5NS0zLjA4My0uMTkzLTQuMzYxLjc0NC0uNjg1LTEuNDQzLTEuNjYzLTMuMDI0LTIuNjQ5LTQuMDAzLTMuMjMtMy4yMDgtNi45NjEtMy45NTgtMTEuMDg2LTIuMjI1LTMuMzU3IDEuNDA0LTYuMjI3IDUuNTAyLTYuNTggOS4yMzItMS44NDYuNjU0LTQuMDI4IDIuMTAxLTQuOTYyIDQuNDAxbDEuODUyLjc2MWMuNzI3LTEuNzkgMi42OTQtMy4wMTMgNC4zMjEtMy40MzEuNDQzLS4xMTQuNzUzLS41MTYuNzUzLS45NzUgMC0zLjA3NiAyLjU2Ni02Ljk1IDUuMzg1LTguMTMgMy40MDQtMS40MyA2LjIzOC0uODU3IDguOTEzIDEuOCAxLjA2MSAxLjA1MyAyLjIzNyAzLjE5NSAyLjc2MiA0LjY1OGExIDEgMCAwIDAgLjc5Mi42NTQuOTguOTggMCAwIDAgLjk0Ny0uMzljLjgxNy0xLjA5NCAyLjEzLTEuNTcgMy4yNzktMS4xODYgMS4yMjIuNDEgMS45MjIgMS43MjMgMS45MjIgMy42IDAgLjQ5Mi4zNTQuOTEyLjgzNi45OTIgNC4wOS42ODUgNi4xNjQgMi43MjEgNi4xNjQgNi4wNTQgMCA1LjgzMy01LjM4OSA2LjAzNS02IDYuMDM5SDI5VjQ2aDE3YzIuNzY3IDAgOC0xLjY4MyA4LTguMDUyIDAtNC4xMDYtMi40OTEtNi44ODItNy4wNC03Ljg4NFpNMjIgNDZoNHYtMi4wMTNoLTRWNDZabTMtNC4wMjZoMTFWMzkuOTZIMjV2Mi4wMTNabS0xNCAwaDdWMzkuOTZoLTd2Mi4wMTNabTItNC4wMjZoNnYtMi4wMTNoLTZ2Mi4wMTNaTTE0IDQ2aDZ2LTIuMDEzaC02VjQ2Wm0tNCAwaDJ2LTIuMDEzaC0yVjQ2WiIvPjwvZz48L3N2Zz48L2c+PC9zdmc+;direction=east;" parent="1" vertex="1">
          <mxGeometry x="-484.8826604489967" y="208.86733955100328" width="69.76532089799343" height="69.76532089799343" as="geometry" />
        </mxCell>
        <mxCell id="e395bc69-36b2-441b-9956-ab8ca4b7c451" value="" style="shape=image;imageAspect=0;aspect=fixed;image=data:image/svg+xml,PHN2ZyB4bWxucz0iaHR0cDovL3d3dy53My5vcmcvMjAwMC9zdmciIHdpZHRoPSI3OCIgaGVpZ2h0PSI3OCIgc3R5bGU9ImZpbGw6IG51bGw7Ij48Y2lyY2xlIGN4PSIzOSIgY3k9IjM5IiByPSIzOSIgc3R5bGU9ImZpbGw6IHJnYmEoMCwgMCwgMCwgMCk7Ii8+PGcgdHJhbnNmb3JtPSJ0cmFuc2xhdGUoNyw3KSI+PHN2ZyB4bWxucz0iaHR0cDovL3d3dy53My5vcmcvMjAwMC9zdmciIHdpZHRoPSI2NCIgaGVpZ2h0PSI2NCIgdmlld0JveD0iMCAwIDY0IDY0Ij48ZGVmcz48bGluZWFyR3JhZGllbnQgaWQ9Ikxha2UtRm9ybWF0aW9uX3N2Z19fYSIgeDE9IjAlIiB4Mj0iMTAwJSIgeTE9IjEwMCUiIHkyPSIwJSI+PHN0b3Agb2Zmc2V0PSIwJSIgc3RvcC1jb2xvcj0iIzREMjdBOCIvPjxzdG9wIG9mZnNldD0iMTAwJSIgc3RvcC1jb2xvcj0iI0ExNjZGRiIvPjwvbGluZWFyR3JhZGllbnQ+PC9kZWZzPjxnIGZpbGw9Im5vbmUiIGZpbGwtcnVsZT0iZXZlbm9kZCI+PGcgZmlsbD0idXJsKCNMYWtlLUZvcm1hdGlvbl9zdmdfX2EpIj48cGF0aCBkPSJNMCAwaDY0djY0SDB6Ii8+PC9nPjxwYXRoIGZpbGw9IiNGRkYiIGQ9Ik00My42NDMgMzYuNTE3Yy42NzkuNjg0IDEuNjEyIDEuMTIxIDIuNjA3IDEuMTIxIDEuODg4IDAgMy4zMTMtMS41NjQgMy4zMTMtMy42MzhoLTJjMCAuODE0LS40NSAxLjYzOC0xLjMxMyAxLjYzOC0uODY2IDAtMS42ODUtLjc5Ni0xLjY4NS0xLjYzOGgtMmMwIC44MDYtLjUyMSAxLjYzOC0xLjM5MyAxLjYzOC0uODQgMC0xLjYwNS0uNzgxLTEuNjA1LTEuNjM4aC0yYzAgLjg4OC0uNjc0IDEuNjM4LTEuNDczIDEuNjM4LS44MjcgMC0xLjUyNS0uNzUtMS41MjUtMS42MzhoLTJjMCAuODczLS43MjYgMS42MzgtMS41NTQgMS42Mzh2MmMuOTg5IDAgMS45LS40MzkgMi41NS0xLjEzMi42NDYuNjkzIDEuNTUgMS4xMzIgMi41MyAxLjEzMi45ODMgMCAxLjg3LS40MyAyLjUwMy0xLjEyYTMuNTggMy41OCAwIDAgMCAyLjU3NCAxLjEyYy45ODQgMCAxLjg1Ny0uNDI3IDIuNDcxLTEuMTIxWk00My4yIDI1LjMyM2gtMS45OTljMCAuODQ5LS42OSAxLjU0LTEuNTQgMS41NC0uODQ5IDAtMS41MzktLjY5MS0xLjUzOS0xLjU0aC0xLjk5OWMwIC44NDktLjY5IDEuNTQtMS41NCAxLjU0LS44NDkgMC0xLjU0LS42OTEtMS41NC0xLjU0aC0xLjk5OWMwIC44NDktLjY5IDEuNTQtMS41NCAxLjU0djJjLjk5NiAwIDEuODk3LS40MTMgMi41NC0xLjA3NmEzLjUzMSAzLjUzMSAwIDAgMCA1LjA3OSAwIDMuNTMgMy41MyAwIDAgMCA1LjA3OCAwIDMuNTMgMy41MyAwIDAgMCAyLjUzOSAxLjA3NnYtMmMtLjg1IDAtMS41NC0uNjkxLTEuNTQtMS41NFpNMzAuMjUyIDQ3LjUwMmEzLjU1IDMuNTUgMCAwIDAgMi41NC0xLjA2NSAzLjU0NiAzLjU0NiAwIDAgMCAyLjUzOCAxLjA2NSAzLjU0OSAzLjU0OSAwIDAgMCAyLjU3My0xLjFjLjY4LjY3MyAxLjYzIDEuMSAyLjY2MyAxLjF2LTJjLS45MDMgMC0xLjY5Ny0uNzAyLTEuNjk3LTEuNTAyaC0yYzAgLjg0Mi0uNjc2IDEuNTAyLTEuNTM5IDEuNTAyLS44NjMgMC0xLjUzOS0uNjYtMS41MzktMS41MDJoLTJjMCAuODQyLS42NzYgMS41MDItMS41MzkgMS41MDItLjg2MyAwLTEuNTQtLjY2LTEuNTQtMS41MDJoLTJjMCAuNTYxLS4xNDcgMS41MDItMS4xNCAxLjUwMnYyYy45MTYgMCAxLjY5NS0uMzUzIDIuMjQ4LS45NjEuNjM1LjU5NiAxLjQ5Ljk2MSAyLjQzMi45NjFaTTE3LjU3NSAxNGgxdi0xaC0xdjFabS0xLjk5OSAxdi0zYTEgMSAwIDAgMSAxLTFoMi45OThhMSAxIDAgMCAxIDEgMXYzYzAgLjU1My0uNDQ3IDEtMSAxaC0yLjk5OGMtLjU1MyAwLTEtLjQ0Ny0xLTFabTguOTk3IDJoMXYtMWgtMXYxWm0tMiAxdi0zYTEgMSAwIDAgMSAxLTFoMi45OTlhMSAxIDAgMCAxIDEgMXYzYzAgLjU1My0uNDQ3IDEtMSAxaC0zYy0uNTUyIDAtLjk5OS0uNDQ3LS45OTktMVptLjQyNSA0LjY3OWMtLjcyMiAwLTMuMTY1LS4wMjctNS4zMjctLjMyNmw0LjcyMiA3LjA3NWMuMTE3LjE2OC4xOC4zNjguMTguNTcydjEuMjU3Yy4zNTUuMDc1LjY2Ny4wNzggMSAuMDExVjMwYzAtLjE5My4wNTYtLjM4Mi4xNi0uNTQ1bDQuNjE0LTcuMDk5Yy0xLjYzMy4yMjctMy41ODguMzIzLTUuMzQ5LjMyM1ptLTkuMTMyLTIuMTVhMS4zNiAxLjM2IDAgMCAxLS4wMjItLjIxMWMwLS42IDAtMi4xOTMgOC4xOC0yLjM1MmwuMDM5IDJjLTEuOTY1LjAzOC0zLjQ2LjE4NS00LjUxNi4zNTMgMS4yNTIuMTk2IDMuMDkuMzYgNS40NTEuMzYgMi4zMjcgMCA0LjE4Ni0uMTU5IDUuNDY0LS4zNi0uMjMtLjAzNi0uNDg4LS4wNzMtLjc3NC0uMTA4bC4yNDItMS45ODVjMyAuMzY2IDQuMjIzLjk3MiA0LjIyMyAyLjA5MiAwIC4yNS0uMDgyLjczLS42MzUgMS4xMjQtLjA5LjA2NC0uMTk1LjEyNC0uMzEuMTgybC01LjYzNiA4LjY3M1YzMmEuOTk5Ljk5OSAwIDAgMS0uNjI3LjkyOGMtLjY0LjI1Ny0xLjIzMS4zODYtMS44MzQuMzg2LS41OTYgMC0xLjIwMi0uMTI1LTEuODgzLS4zNzVhMS4wMDIgMS4wMDIgMCAwIDEtLjY1NC0uOTM5di0xLjY4NWwtNS43My04LjY3N2MtLjI0My0uMTE3LS40NTItLjI0NS0uNTk1LS4zOWEuOTcyLjk3MiAwIDAgMS0uMTY1LS4yMTdsLS4xMDgtLjE5MmEuOTk4Ljk5OCAwIDAgMS0uMTEtLjMxWk0yMi41NzMgMzd2LTNoLTEuOTk5djJoLTJhLjk5OC45OTggMCAwIDAtLjc0MiAxLjY2OWw0LjQ5OCA1YS45OTcuOTk3IDAgMCAwIDEuNDg2IDBsNC40OTgtNUExIDEgMCAwIDAgMjcuNTcxIDM2aC0xLjk5OXYtMmgtMnYzYzAgLjU1My40NDggMSAxIDFoLjc1NWwtMi4yNTQgMi41MDZMMjAuODIgMzhoLjc1NWMuNTUyIDAgMS0uNDQ3IDEtMVpNNTIgMzQuNDkzQzUyIDQ1LjI0OSA0My4yNTIgNTQgMzIuNSA1NFMxMyA0NS4yNDkgMTMgMzQuNDkzYzAtMi45NzIuNjUtNS44MjYgMS45MzUtOC40ODNsMS44Ljg3MUExNy4zNDMgMTcuMzQzIDAgMCAwIDE1IDM0LjQ5M0MxNSA0NC4xNDYgMjIuODUgNTIgMzIuNSA1MiA0Mi4xNSA1MiA1MCA0NC4xNDYgNTAgMzQuNDkzYzAtOS42NTQtNy44NS0xNy41MDgtMTcuNS0xNy41MDgtMS4wMjEgMC0yLjA0NS4wODktMy4wNDQuMjYzbC0uMzQ2LTEuOTY5YTE5LjYxMSAxOS42MTEgMCAwIDEgMy4zOS0uMjk0YzEwLjc1MiAwIDE5LjUgOC43NTEgMTkuNSAxOS41MDhaIi8+PC9nPjwvc3ZnPjwvZz48L3N2Zz4=;direction=east;" parent="1" vertex="1">
          <mxGeometry x="-484.8826604489967" y="396.3673395510033" width="69.76532089799343" height="69.76532089799343" as="geometry" />
        </mxCell>
        <mxCell id="7dd5fb51-5dc9-43af-9c18-edb3f9b8cc83" value="" style="shape=image;imageAspect=0;aspect=fixed;image=data:image/svg+xml,PHN2ZyB4bWxucz0iaHR0cDovL3d3dy53My5vcmcvMjAwMC9zdmciIHdpZHRoPSI3OCIgaGVpZ2h0PSI3OCIgc3R5bGU9ImZpbGw6IG51bGw7Ij48Y2lyY2xlIGN4PSIzOSIgY3k9IjM5IiByPSIzOSIgc3R5bGU9ImZpbGw6IHJnYmEoMCwgMCwgMCwgMCk7Ii8+PGcgdHJhbnNmb3JtPSJ0cmFuc2xhdGUoNyw3KSI+PHN2ZyB4bWxucz0iaHR0cDovL3d3dy53My5vcmcvMjAwMC9zdmciIHdpZHRoPSI2NCIgaGVpZ2h0PSI2NCIgdmlld0JveD0iMCAwIDY0IDY0Ij48ZGVmcz48bGluZWFyR3JhZGllbnQgaWQ9IlgtUmF5X3N2Z19fYSIgeDE9IjAlIiB4Mj0iMTAwJSIgeTE9IjEwMCUiIHkyPSIwJSI+PHN0b3Agb2Zmc2V0PSIwJSIgc3RvcC1jb2xvcj0iIzJFMjdBRCIvPjxzdG9wIG9mZnNldD0iMTAwJSIgc3RvcC1jb2xvcj0iIzUyN0ZGRiIvPjwvbGluZWFyR3JhZGllbnQ+PC9kZWZzPjxnIGZpbGw9Im5vbmUiIGZpbGwtcnVsZT0iZXZlbm9kZCI+PGcgZmlsbD0idXJsKCNYLVJheV9zdmdfX2EpIj48cGF0aCBkPSJNMCAwaDY0djY0SDB6Ii8+PC9nPjxwYXRoIGZpbGw9IiNGRkYiIGQ9Ik0zNy4wNTcgMzMuOTYzaC0yLjAyM3YxMC4wMmgtMi4wMjN2LTguMDE2SDMwLjk5djguMDE2aC0yLjAyM3YtNS4wMWgtMi4wMjN2NS4wMUgyNC45MnYyLjAwM2gxNC4xNnYtMi4wMDNoLTIuMDIzdi0xMC4wMlptNi4wNyA2LjAxMmMwLTYuMDc3LTQuOTkyLTExLjAyMS0xMS4xMjctMTEuMDIxLTYuMTM1IDAtMTEuMTI2IDQuOTQ0LTExLjEyNiAxMS4wMiAwIDYuMDc4IDQuOTkxIDExLjAyMiAxMS4xMjYgMTEuMDIyczExLjEyNi00Ljk0NCAxMS4xMjYtMTEuMDIxWm0yLjAyMiAwQzQ1LjE1IDQ3LjE1NyAzOS4yNSA1MyAzMiA1M2MtNy4yNSAwLTEzLjE1LTUuODQzLTEzLjE1LTEzLjAyNVMyNC43NSAyNi45NSAzMiAyNi45NXMxMy4xNSA1Ljg0MyAxMy4xNSAxMy4wMjVaTTU0IDMwLjc2YzAgNC41OTUtMi41NDkgNy41ODQtNi45OTIgOC4xOTlsLS4yOC0xLjk4NGMyLjM5NS0uMzMyIDUuMjQ5LTEuNjggNS4yNDktNi4yMTUgMC0zLjQxOS0yLjAyMi01LjU1NC02LjAxLTYuMzQ2YTEuMDA0IDEuMDA0IDAgMCAxLS44MS0uOTI3Yy0uMTg4LTMuMjkxLTIuMTAyLTQuNDYtMy42ODYtNC40Ni0xLjA2OSAwLTIuMDY3LjUtMi43MzYgMS4zNzMtLjIyNC4yOS0uNTg2LjQzOC0uOTU0LjM4NGExLjAxIDEuMDEgMCAwIDEtLjgtLjY0MmMtLjYzLTEuNjg4LTEuNTYyLTMuMTU1LTIuNjk1LTQuMjQ4LTEuNDMtMS4zODEtNS4zNDktNC4zNDYtMTAuODktMi4wODgtMy4xODUgMS4yOTUtNS42OCA1LjAyLTUuNjggOC40ODIgMCAuMzkyLjAyNC43OC4wNyAxLjE1LjA2NC41MDMtLjI2My45NzQtLjc2IDEuMDk2LTEuODY4LjQ1OC01LjAwMyAxLjg2OS01LjAwMyA2LjE2NSAwIC4xNTYuMDA4LjI5OS4wMTUuNDQ2LjE0IDIuNTMyIDIuMzQzIDQuODQyIDUuMzU2IDUuNjM3bC0uNTIyIDEuOTM2Yy0zLjg0OC0xLjAxNi02LjY2Ni00LjA3Ni02Ljg1Mi03LjQ0NC0uMDEtLjIxLS4wMi0uMzgzLS4wMi0uNTc1IDAtNS4xNDggMy41MTUtNy4xMzIgNS43MDctNy44NjgtLjAxLS4xOC0uMDEzLS4zNi0uMDEzLS41NDMgMC00LjI4NiAyLjk4LTguNzI4IDYuOTMxLTEwLjMzNSA0LjYxNC0xLjg4MiA5LjUwMi0uOTQ1IDEzLjA3MiAyLjUwNiAxLjAyLjk4MyAxLjg5OCAyLjIxIDIuNTgzIDMuNmE1LjQxIDUuNDEgMCAwIDEgMy4xOS0xLjAzNWMyLjQyIDAgNS4xMTMgMS43NTYgNS42MzUgNS41OSA0LjQ1NCAxLjEyIDYuODk1IDMuOTkgNi44OTUgOC4xNDZaIi8+PC9nPjwvc3ZnPjwvZz48L3N2Zz4=;direction=east;" parent="1" vertex="1">
          <mxGeometry x="-484.8826604489967" y="302.6173395510033" width="69.76532089799343" height="69.76532089799343" as="geometry" />
        </mxCell>
        <mxCell id="d199c927-4e5c-4f28-a6b3-25020d17f0b7" value="" style="shape=image;imageAspect=0;aspect=fixed;image=data:image/svg+xml,PHN2ZyB4bWxucz0iaHR0cDovL3d3dy53My5vcmcvMjAwMC9zdmciIHdpZHRoPSI3OCIgaGVpZ2h0PSI3OCIgc3R5bGU9ImZpbGw6IG51bGw7Ij48Y2lyY2xlIGN4PSIzOSIgY3k9IjM5IiByPSIzOSIgc3R5bGU9ImZpbGw6IHJnYmEoMCwgMCwgMCwgMCk7Ii8+PGcgdHJhbnNmb3JtPSJ0cmFuc2xhdGUoNyw3KSI+PHN2ZyB4bWxucz0iaHR0cDovL3d3dy53My5vcmcvMjAwMC9zdmciIHdpZHRoPSI2NCIgaGVpZ2h0PSI2NCIgdmlld0JveD0iMCAwIDY0IDY0Ij48ZGVmcz48bGluZWFyR3JhZGllbnQgaWQ9IkNsb3VkV2F0Y2hfc3ZnX19hIiB4MT0iMCUiIHgyPSIxMDAlIiB5MT0iMTAwJSIgeTI9IjAlIj48c3RvcCBvZmZzZXQ9IjAlIiBzdG9wLWNvbG9yPSIjQjAwODREIi8+PHN0b3Agb2Zmc2V0PSIxMDAlIiBzdG9wLWNvbG9yPSIjRkY0RjhCIi8+PC9saW5lYXJHcmFkaWVudD48L2RlZnM+PGcgZmlsbD0ibm9uZSIgZmlsbC1ydWxlPSJldmVub2RkIj48ZyBmaWxsPSJ1cmwoI0Nsb3VkV2F0Y2hfc3ZnX19hKSI+PHBhdGggZD0iTTAgMGg2NHY2NEgweiIvPjwvZz48cGF0aCBmaWxsPSIjRkZGIiBkPSJNNDIuMTg0IDM5LjM4MWE0LjA5NSA0LjA5NSAwIDAgMC04LjE4OSAwIDQuMDk1IDQuMDk1IDAgMCAwIDguMTg5IDBabTIgMGMwIDMuMzUzLTIuNzM0IDYuMDgxLTYuMDk1IDYuMDgxLTMuMzYgMC02LjA5NC0yLjcyOC02LjA5NC02LjA4IDAtMy4zNTQgMi43MzQtNi4wODIgNi4wOTQtNi4wODIgMy4zNjEgMCA2LjA5NSAyLjcyOCA2LjA5NSA2LjA4MVptNi41NTkgMTAuMjM1LTQuODk3LTQuNGE5Ljk5MiA5Ljk5MiAwIDAgMS0xLjA2MSAxLjE5bDQuODg2IDQuMzk3YS44MDYuODA2IDAgMCAwIDEuMTMxLS4wNTkuODAxLjgwMSAwIDAgMC0uMDU5LTEuMTI4Wm0tMTIuNjU0LTIuNTI0YzQuMjYyIDAgNy43MjktMy40NiA3LjcyOS03LjcxIDAtNC4yNTItMy40NjctNy43MTEtNy43MjktNy43MTEtNC4yNiAwLTcuNzI3IDMuNDU5LTcuNzI3IDcuNzEgMCA0LjI1MSAzLjQ2NyA3LjcxIDcuNzI3IDcuNzFabTEzLjk5MiAxLjA0MmEyLjc5NiAyLjc5NiAwIDAgMSAuMjA3IDMuOTQ2Yy0uNTUzLjYxLTEuMzE3LjkyLTIuMDgzLjkyYTIuNzk3IDIuNzk3IDAgMCAxLTEuODcyLS43MTNsLTUuMTYxLTQuNjQ2YTkuNjY4IDkuNjY4IDAgMCAxLTUuMDgzIDEuNDQ2Yy01LjM2NCAwLTkuNzI3LTQuMzU0LTkuNzI3LTkuNzA2IDAtNS4zNTIgNC4zNjMtOS43MDYgOS43MjctOS43MDYgNS4zNjUgMCA5LjcyOSA0LjM1NCA5LjcyOSA5LjcwNmE5LjYxIDkuNjEgMCAwIDEtLjkyMSA0LjA5NWw1LjE4NCA0LjY1OFpNMTcuNjk3IDIzLjUzOGMwIC40MDEuMDIzLjguMDcgMS4xODVhLjk5Ny45OTcgMCAwIDEtLjgwNiAxLjEwMUMxNS4wODQgMjYuMzA4IDEyIDI3Ljc3MiAxMiAzMi4xNTdjMCAzLjMyMyAxLjgzNiA1LjE1NyAzLjM3NyA2LjExLjY3Mi40MjMgMS4yNjMuNjM4IDEuNzYxLjY0M2g4Ljk4OXYxLjk5NmgtOWMtLjg4NC0uMDEtMS44MjctLjMyOS0yLjgxLS45NDdDMTIuNzA4IDM4Ljk2NCAxMCAzNi42MiAxMCAzMi4xNTdjMC01LjI3IDMuNTI2LTcuMjkzIDUuNzEtOC4wNGExMy45NjUgMTMuOTY1IDAgMCAxLS4wMTMtLjU3OWMwLTQuMzc4IDIuOTc2LTguOTE2IDYuOTI0LTEwLjU2IDQuNjExLTEuOTI3IDkuNDk4LS45NzEgMTMuMDY2IDIuNTU2IDEuMDQ3IDEuMDMzIDEuOTE3IDIuMjc0IDIuNTk4IDMuNzAyYTUuMjg0IDUuMjg0IDAgMCAxIDMuMTc0LTEuMDYxYzIuNDE1IDAgNS4xMjggMS43OTMgNS42NjMgNS43MTVDNTAuNTggMjQuNzIyIDU0IDI3LjI3OCA1NCAzMi4yMTdjMCAyLjg5LTEuMTM2IDUuMjQtMy4yODcgNi43OTJsLTEuMTcyLTEuNjE2QzUxLjE3MyAzNi4yMTQgNTIgMzQuNDczIDUyIDMyLjIxN2MwLTQuOTc4LTQuMTg5LTYuMjE3LTUuOTktNi41MTlhLjk5Ni45OTYgMCAwIDEtLjgyNC0xLjEyN2MtLjI1NS0zLjA0LTIuMDQ1LTQuNDAxLTMuNzI3LTQuNDAxLTEuMDU3IDAtMi4wNS41MTYtMi43MjUgMS40MTZhLjk5OS45OTkgMCAwIDEtMS43NDEtLjI2Yy0uNjM0LTEuNzUyLTEuNTQ3LTMuMjIzLTIuNzEyLTQuMzc1LTEuNDMtMS40MTEtNS4zNDgtNC40NDQtMTAuODktMi4xMzItMy4xOTMgMS4zMy01LjY5NCA1LjE2LTUuNjk0IDguNzJaIi8+PC9nPjwvc3ZnPjwvZz48L3N2Zz4=;direction=east;" parent="1" vertex="1">
          <mxGeometry x="-484.8826604489967" y="490.1173395510033" width="69.76532089799343" height="69.76532089799343" as="geometry" />
        </mxCell>
        <mxCell id="2c33840e-9e20-47f4-bfe7-f416b302cad4" value="IBM Mainframe data Center" style="text;labelPosition=right;verticalLabelPosition=bottom;fontColor=#000000;fontSize=25;rotation=-90;spacingLeft=10;html=1;" parent="1" vertex="1">
          <mxGeometry x="-506.25" y="1087.5" as="geometry" />
        </mxCell>
        <mxCell id="3b437e05-66d2-4ef0-85e8-9c64fac07c4c" value="10.0.3.0/24" style="text;labelPosition=right;verticalLabelPosition=bottom;fontColor=#ffffff;fontSize=25;rotation=0;spacingLeft=10;html=1;" parent="1" vertex="1">
          <mxGeometry x="93.75" y="487.5" as="geometry" />
        </mxCell>
        <mxCell id="cdcc1965-2b21-47e8-b898-9d422d6ce822" value="10.0.2.0/24" style="text;labelPosition=right;verticalLabelPosition=bottom;fontColor=#ffffff;fontSize=25;rotation=-90;spacingLeft=10;html=1;" parent="1" vertex="1">
          <mxGeometry x="843.75" y="375" as="geometry" />
        </mxCell>
        <mxCell id="0b20d1a8-fd13-4d74-b041-ee2856a3c1b7" value="&lt;div&gt;VPC&lt;/div&gt;&lt;div&gt;Gateway&lt;/div&gt;" style="text;labelPosition=right;verticalLabelPosition=bottom;fontColor=#f5b720;fontSize=20;rotation=0;spacingLeft=10;html=1;" parent="1" vertex="1">
          <mxGeometry x="-18.75" y="806.25" as="geometry" />
        </mxCell>
        <mxCell id="5672d51b-06f1-4be1-a74e-929749981be7" value="AWS Cloud" style="text;labelPosition=right;verticalLabelPosition=bottom;fontColor=#000000;fontSize=50;rotation=0;spacingLeft=10;html=1;" parent="1" vertex="1">
          <mxGeometry x="75" y="-187.5" as="geometry" />
        </mxCell>
        <mxCell id="936c8f3f-0e87-400b-847a-ac1ba5facfce" value="Proprietary Data" style="text;labelPosition=right;verticalLabelPosition=bottom;fontColor=#000000;fontSize=15;rotation=0;spacingLeft=10;html=1;" parent="1" vertex="1">
          <mxGeometry x="-431.713549376593" y="1037.6469813969813" as="geometry" />
        </mxCell>
        <mxCell id="f47312f1-0063-4d9f-b9e1-38f1651801df" value="Compute Grid" style="text;labelPosition=right;verticalLabelPosition=bottom;fontColor=#f44336;fontSize=15;rotation=0;spacingLeft=10;html=1;" parent="1" vertex="1">
          <mxGeometry x="412.5" y="187.5" as="geometry" />
        </mxCell>
        <mxCell id="52e24be0-ea34-4207-b699-230ff45ca24c" value="&lt;div&gt;Grid&lt;/div&gt;&lt;div&gt;Controller&lt;/div&gt;" style="text;labelPosition=right;verticalLabelPosition=bottom;fontColor=#ff9800;fontSize=15;rotation=0;spacingLeft=10;html=1;" parent="1" vertex="1">
          <mxGeometry x="506.25" y="243.75" as="geometry" />
        </mxCell>
        <mxCell id="48cf77de-9e49-422a-b393-9d4d5e11e9eb" value="&lt;div&gt;Customer&lt;/div&gt;&lt;div&gt;Gateway&lt;/div&gt;" style="text;labelPosition=right;verticalLabelPosition=bottom;fontColor=#000000;fontSize=15;rotation=-90;spacingLeft=10;html=1;" parent="1" vertex="1">
          <mxGeometry x="-223.9475788603553" y="810.1868346334858" as="geometry" />
        </mxCell>
        <mxCell id="2d3472b2-2ef3-4066-9479-4d0386df0b0e" value="Datastore - Datalake" style="text;labelPosition=right;verticalLabelPosition=bottom;fontColor=#f44336;fontSize=25;rotation=-90;spacingLeft=10;html=1;" parent="1" vertex="1">
          <mxGeometry x="37.5" y="300" as="geometry" />
        </mxCell>
        <mxCell id="08472c17-4833-4444-b18b-65ff86563c7d" value="&lt;div&gt;Amazon Kinesis &lt;/div&gt;&lt;div&gt;          y/o &lt;/div&gt;&lt;div&gt; Apache Kafka&lt;/div&gt;" style="text;labelPosition=right;verticalLabelPosition=bottom;fontColor=#000000;fontSize=20;rotation=0;spacingLeft=10;html=1;" parent="1" vertex="1">
          <mxGeometry x="112.5" y="750" as="geometry" />
        </mxCell>
        <mxCell id="7b4566cb-f1da-48cc-8ab1-4894ae5a3131" value="&lt;div&gt;      Amazon S3&lt;/div&gt;&lt;div&gt;Glacier - Raw zone &lt;/div&gt;" style="text;labelPosition=right;verticalLabelPosition=bottom;fontColor=#000000;fontSize=20;rotation=0;spacingLeft=10;html=1;" parent="1" vertex="1">
          <mxGeometry x="318.75" y="900" as="geometry" />
        </mxCell>
        <mxCell id="2a4b7cb0-acb3-443e-954e-90dd4be8116a" value="Lambda" style="text;labelPosition=right;verticalLabelPosition=bottom;fontColor=#000000;fontSize=20;rotation=0;spacingLeft=10;html=1;" parent="1" vertex="1">
          <mxGeometry x="693.75" y="975" as="geometry" />
        </mxCell>
        <mxCell id="a77ec354-bbd0-447d-925e-29608bea4302" value="Lambda" style="text;labelPosition=right;verticalLabelPosition=bottom;fontColor=#000000;fontSize=20;rotation=0;spacingLeft=10;html=1;" parent="1" vertex="1">
          <mxGeometry x="693.75" y="675" as="geometry" />
        </mxCell>
        <mxCell id="4d816d60-812c-4785-8d6c-0b5508ea6ae9" value="&lt;div&gt;Amazon&lt;/div&gt;&lt;div&gt; simple MQ&lt;/div&gt;&lt;div&gt;&lt;br/&gt;&lt;/div&gt;" style="text;labelPosition=right;verticalLabelPosition=bottom;fontColor=#000000;fontSize=20;rotation=0;spacingLeft=10;html=1;" parent="1" vertex="1">
          <mxGeometry x="693.75" y="825" as="geometry" />
        </mxCell>
        <mxCell id="8475f6a3-2305-40de-9feb-8f73ea572d73" value="LoadBalancer" style="text;labelPosition=right;verticalLabelPosition=bottom;fontColor=#000000;fontSize=16;rotation=0;spacingLeft=10;html=1;" parent="1" vertex="1">
          <mxGeometry x="693.75" y="487.5" as="geometry" />
        </mxCell>
        <mxCell id="0e91460e-854b-4fd6-8e07-e7252ff9e79d" value="&lt;div&gt;EC2 virtual&lt;/div&gt;&lt;div&gt;machines&lt;/div&gt;" style="text;labelPosition=right;verticalLabelPosition=bottom;fontColor=#000000;fontSize=16;rotation=0;spacingLeft=10;html=1;" parent="1" vertex="1">
          <mxGeometry x="356.25" y="543.75" as="geometry" />
        </mxCell>
        <mxCell id="a342e568-55b3-4e37-ac68-6082cfb0ab27" value="&lt;div&gt;Dynamo &lt;/div&gt;&lt;div&gt;     DB&lt;/div&gt;" style="text;labelPosition=right;verticalLabelPosition=bottom;fontColor=#000000;fontSize=16;rotation=0;spacingLeft=10;html=1;" parent="1" vertex="1">
          <mxGeometry x="75" y="75" as="geometry" />
        </mxCell>
        <mxCell id="a5a63343-ba8b-496a-9409-6ee7754fd896" value="&lt;div&gt; Amazon &lt;/div&gt;&lt;div&gt;Neptune&lt;/div&gt;&lt;div&gt;    (AI)&lt;/div&gt;" style="text;labelPosition=right;verticalLabelPosition=bottom;fontColor=#000000;fontSize=16;rotation=0;spacingLeft=10;html=1;" parent="1" vertex="1">
          <mxGeometry x="75" y="187.5" as="geometry" />
        </mxCell>
        <mxCell id="ea41f070-8214-4bf6-b857-b7e0772120df" value="&lt;div&gt;Amazon&lt;/div&gt;&lt;div&gt;Aurora&lt;/div&gt;" style="text;labelPosition=right;verticalLabelPosition=bottom;fontColor=#000000;fontSize=16;rotation=0;spacingLeft=10;html=1;" parent="1" vertex="1">
          <mxGeometry x="75" y="375" as="geometry" />
        </mxCell>
        <mxCell id="427ffbf5-3d86-42ce-afb6-1ab671604d59" value="&lt;div&gt; Aurora&lt;/div&gt;&lt;div&gt;pgVector&lt;/div&gt;&lt;div&gt;    (AI)&lt;/div&gt;" style="text;labelPosition=right;verticalLabelPosition=bottom;fontColor=#000000;fontSize=16;rotation=0;spacingLeft=10;html=1;" parent="1" vertex="1">
          <mxGeometry x="75" y="281.25" as="geometry" />
        </mxCell>
        <mxCell id="0ded3cdd-c7f2-453d-85e5-27043ad3b946" value="&lt;div&gt;Amazon EMR&lt;/div&gt;&lt;div&gt;(sagemaker)&lt;/div&gt;" style="text;labelPosition=right;verticalLabelPosition=bottom;fontColor=#000000;fontSize=20;rotation=0;spacingLeft=10;html=1;" parent="1" vertex="1">
          <mxGeometry x="318.75" y="131.25" as="geometry" />
        </mxCell>
        <mxCell id="3c5a1aad-e8ed-4999-9d85-b86352eff503" value="Amazon Redshift" style="text;labelPosition=right;verticalLabelPosition=bottom;fontColor=#000000;fontSize=20;rotation=0;spacingLeft=10;html=1;" parent="1" vertex="1">
          <mxGeometry x="506.25" y="150" as="geometry" />
        </mxCell>
        <mxCell id="70b92c13-8bf3-420e-888a-3d15dd9d4451" value="Datawarehouse - ETL" style="text;labelPosition=right;verticalLabelPosition=bottom;fontColor=#f44336;fontSize=25;rotation=0;spacingLeft=10;html=1;" parent="1" vertex="1">
          <mxGeometry x="431.25" y="-56.25" as="geometry" />
        </mxCell>
        <mxCell id="3f64bcc8-0643-4b89-8217-3044068ce35f" value="&lt;div&gt;  Amazon &lt;/div&gt;&lt;div&gt;Quicksight&lt;/div&gt;" style="text;labelPosition=right;verticalLabelPosition=bottom;fontColor=#000000;fontSize=20;rotation=0;spacingLeft=10;html=1;" parent="1" vertex="1">
          <mxGeometry x="712.5" y="131.25" as="geometry" />
        </mxCell>
        <mxCell id="ad65a7cd-d16d-42c8-a779-86d311fabcd5" value="Kubernetes" style="text;labelPosition=right;verticalLabelPosition=bottom;fontColor=#000000;fontSize=20;rotation=0;spacingLeft=10;html=1;" parent="1" vertex="1">
          <mxGeometry x="581.25" y="225" as="geometry" />
        </mxCell>
        <mxCell id="c260d717-e4df-4d59-a34f-b380715c559b" value="AWS fargate" style="text;labelPosition=right;verticalLabelPosition=bottom;fontColor=#000000;fontSize=16;rotation=0;spacingLeft=10;html=1;" parent="1" vertex="1">
          <mxGeometry x="356.25" y="225" as="geometry" />
        </mxCell>
        <mxCell id="3fd8ecb6-3bff-40cb-886f-6c4dfbc91d87" value="&lt;div&gt;    Amazon S3&lt;/div&gt;&lt;div&gt;Sitio web stático&lt;/div&gt;" style="text;labelPosition=right;verticalLabelPosition=bottom;fontColor=#000000;fontSize=16;rotation=0;spacingLeft=10;html=1;" parent="1" vertex="1">
          <mxGeometry x="356.25" y="1125" as="geometry" />
        </mxCell>
        <mxCell id="f0d9870a-bd12-476c-901b-3a8427113f8e" value="Usuarios" style="text;labelPosition=right;verticalLabelPosition=bottom;fontColor=#000000;fontSize=34;rotation=0;spacingLeft=10;html=1;" parent="1" vertex="1">
          <mxGeometry x="-206.25" y="1293.75" as="geometry" />
        </mxCell>
        <mxCell id="122f7a50-4b3c-4a01-a8c5-da4b4993dba2" value="&lt;div&gt;   Usuarios&lt;/div&gt;&lt;div&gt;Corporativos&lt;/div&gt;" style="text;labelPosition=right;verticalLabelPosition=bottom;fontColor=#000000;fontSize=34;rotation=0;spacingLeft=10;html=1;" parent="1" vertex="1">
          <mxGeometry x="600" y="-225" as="geometry" />
        </mxCell>
        <mxCell id="5808cafb-9a48-4ed6-9c61-2275e74bdb12" value="&lt;div&gt; Amazon &lt;/div&gt;&lt;div&gt;Route 53&lt;/div&gt;" style="text;labelPosition=right;verticalLabelPosition=bottom;fontColor=#000000;fontSize=20;rotation=0;spacingLeft=10;html=1;" parent="1" vertex="1">
          <mxGeometry x="375" y="1293.75" as="geometry" />
        </mxCell>
        <mxCell id="c429c48c-8f02-4df6-9598-5debd2b5d3db" value="&lt;div&gt;  Amazon &lt;/div&gt;&lt;div&gt;Cloud Front&lt;/div&gt;" style="text;labelPosition=right;verticalLabelPosition=bottom;fontColor=#000000;fontSize=20;rotation=0;spacingLeft=10;html=1;" parent="1" vertex="1">
          <mxGeometry x="618.75" y="1293.75" as="geometry" />
        </mxCell>
        <mxCell id="12618834-2616-4dc8-97a7-a95cfeb79900" value="Amazon Bedrock(AI)" style="text;labelPosition=right;verticalLabelPosition=bottom;fontColor=#000000;fontSize=20;rotation=0;spacingLeft=10;html=1;" parent="1" vertex="1">
          <mxGeometry x="637.5" as="geometry" />
        </mxCell>
        <mxCell id="4fe3f61b-8bee-4a8c-b498-a1353c0ace2c" value="&lt;div&gt;  AWS &lt;/div&gt;&lt;div&gt;fargate&lt;/div&gt;" style="text;labelPosition=right;verticalLabelPosition=bottom;fontColor=#000000;fontSize=20;rotation=0;spacingLeft=10;html=1;" parent="1" vertex="1">
          <mxGeometry x="731.25" y="337.5" as="geometry" />
        </mxCell>
        <mxCell id="09fc5e82-16da-458c-9f58-050af896f40b" value="API Gateway" style="text;labelPosition=right;verticalLabelPosition=bottom;fontColor=#000000;fontSize=20;rotation=0;spacingLeft=10;html=1;" parent="1" vertex="1">
          <mxGeometry x="768.75" y="1293.75" as="geometry" />
        </mxCell>
        <mxCell id="7d68b632-af14-49d5-9329-39c88e191fb2" value="Seguridad y gobernanza" style="text;labelPosition=right;verticalLabelPosition=bottom;fontColor=#ffffff;fontSize=25;rotation=0;spacingLeft=10;html=1;" parent="1" vertex="1">
          <mxGeometry x="-487.5" y="-168.75" as="geometry" />
        </mxCell>
        <mxCell id="273b991b-f73c-472a-8d9b-4cb9cfa7bc67" value="IAM" style="text;labelPosition=right;verticalLabelPosition=bottom;fontColor=#ffffff;fontSize=25;rotation=0;spacingLeft=10;html=1;" parent="1" vertex="1">
          <mxGeometry x="-393.75" y="-56.25" as="geometry" />
        </mxCell>
        <mxCell id="06aa60a3-fd48-4993-9248-2bbae873ea68" value="Cloud trail" style="text;labelPosition=right;verticalLabelPosition=bottom;fontColor=#ffffff;fontSize=25;rotation=0;spacingLeft=10;html=1;" parent="1" vertex="1">
          <mxGeometry x="-393.75" y="225" as="geometry" />
        </mxCell>
        <mxCell id="ce9103db-8200-419e-807b-9008647a7093" value="AWS X-ray" style="text;labelPosition=right;verticalLabelPosition=bottom;fontColor=#ffffff;fontSize=25;rotation=0;spacingLeft=10;html=1;" parent="1" vertex="1">
          <mxGeometry x="-393.75" y="318.75" as="geometry" />
        </mxCell>
        <mxCell id="3ce16f54-27ff-4bcf-95e7-e04dd1e84ef1" value="AWS lake formation" style="text;labelPosition=right;verticalLabelPosition=bottom;fontColor=#ffffff;fontSize=25;rotation=0;spacingLeft=10;html=1;" parent="1" vertex="1">
          <mxGeometry x="-393.75" y="412.5" as="geometry" />
        </mxCell>
        <mxCell id="70a3f177-2427-4efe-9168-dc671c470d42" value="ElastiCache" style="text;labelPosition=right;verticalLabelPosition=bottom;fontColor=#ffffff;fontSize=25;rotation=0;spacingLeft=10;html=1;" parent="1" vertex="1">
          <mxGeometry x="-393.75" y="131.25" as="geometry" />
        </mxCell>
        <mxCell id="99ced27a-d7a7-4325-88e8-eaec3e5e0cff" value="AWS KMS" style="text;labelPosition=right;verticalLabelPosition=bottom;fontColor=#ffffff;fontSize=25;rotation=0;spacingLeft=10;html=1;" parent="1" vertex="1">
          <mxGeometry x="-393.75" y="37.5" as="geometry" />
        </mxCell>
        <mxCell id="aad94615-bd73-4bf6-bfa7-b58aa84bb5ba" value="AWS cloudwatch" style="text;labelPosition=right;verticalLabelPosition=bottom;fontColor=#ffffff;fontSize=25;rotation=0;spacingLeft=10;html=1;" parent="1" vertex="1">
          <mxGeometry x="-393.75" y="506.25" as="geometry" />
        </mxCell>
      </root>
    </mxGraphModel>
  </diagram>
</mxfile>
